<?xml version="1.0" encoding="utf-8"?>
<!-- Generator: Adobe Illustrator 27.1.1, SVG Export Plug-In . SVG Version: 6.00 Build 0)  -->
<svg version="1.1" id="ELEMENTS" xmlns="http://www.w3.org/2000/svg" xmlns:xlink="http://www.w3.org/1999/xlink" x="0px" y="0px"
	 viewBox="0 0 251.1 121.3" style="enable-background:new 0 0 251.1 121.3;" xml:space="preserve">
<style type="text/css">
	.st0{fill:#98075B;}
	.st1{fill:#50336E;}
	.st2{fill:#6D4994;}
	.st3{fill:#E4C820;}
	.st4{fill:#F1923F;}
	.st5{fill:#ECE371;}
	.st6{fill:#FFFFFF;}
</style>
<g>
	<polygon class="st0" points="86.2,76.7 90.9,74.1 90.9,58.4 78.6,67.7 	"/>
	<polygon class="st0" points="76,36.7 64.6,30.4 52.8,37 62,47.9 	"/>
	<polygon class="st1" points="46.7,60.1 60.6,49 38.4,51.7 38.4,55.6 	"/>
	<polygon class="st2" points="70.2,58.5 63.1,68.9 70.8,73 77.8,67.6 	"/>
	<polygon class="st2" points="90.7,44.9 82.6,40.4 78.5,46.4 	"/>
	<polygon class="st3" points="62.4,48.3 77.8,46.4 82.1,40.1 76.5,37 	"/>
	<polygon class="st1" points="71.3,73.2 82.1,79 85.7,77 78.2,68.1 	"/>
	<polygon class="st3" points="61.5,48.3 52.3,37.3 38.4,45 38.4,51.1 61.4,48.4 	"/>
	<polygon class="st4" points="78.1,46.9 70.5,58.1 78.3,67.3 90.9,57.7 90.9,45.4 	"/>
	<polygon class="st5" points="62,48.9 61.6,48.9 47.2,60.4 62.6,68.6 69.8,58.1 	"/>
	<polygon class="st3" points="56.8,84.3 64.6,88.7 81.5,79.3 70.9,73.6 	"/>
	<polygon class="st2" points="38.4,56.2 38.4,66.7 46.2,60.4 	"/>
	<polygon class="st3" points="77.4,47 62.7,48.8 70.1,57.6 	"/>
	<polygon class="st4" points="46.8,60.7 38.4,67.4 38.4,74.1 53.2,82.4 62.3,69 	"/>
	<polygon class="st0" points="70.3,73.3 62.8,69.3 53.7,82.6 56.2,84 	"/>
	<path class="st6" d="M71.3,73.2l6.8-5.2l7.5,8.9l0.5-0.3l-7.6-9l12.3-9.3v-0.7l-12.6,9.6l-7.8-9.2l7.6-11.1l12.8-1.5V45l-0.2-0.1
		l-12.2,1.5l4.1-6l-0.5-0.3l-4.3,6.3l-15.4,1.8L76.5,37L76,36.7L62,47.9L52.8,37l-0.5,0.3l9.2,11l-0.1,0.1l-23,2.7v0.5L60.6,49
		L46.7,60.1l-8.4-4.5v0.6l7.9,4.2l-7.9,6.3v0.7l8.4-6.7L62.3,69l-9.1,13.3l0.5,0.3l9.1-13.3l7.5,4L56.2,84l0.5,0.3l14.1-10.7
		l10.7,5.7l0.6-0.3L71.3,73.2z M77.4,47l-7.2,10.6l-7.4-8.9L77.4,47z M62.6,68.6l-15.4-8.2l14.4-11.5l0.4,0l7.8,9.3L62.6,68.6z
		 M70.8,73l-7.7-4.1l7-10.3l7.7,9.1L70.8,73z"/>
	<g>
		<path class="st6" d="M64.6,44.3c-8.8,0-15.9,6.9-15.9,15.3s7.1,15.3,15.9,15.3c8.8,0,15.9-6.9,15.9-15.3S73.4,44.3,64.6,44.3
			 M73.9,59.6c0,4.9-4.2,8.9-9.3,8.9c-5.1,0-9.3-4-9.3-8.9s4.2-8.9,9.3-8.9C69.8,50.6,73.9,54.6,73.9,59.6"/>
		<polygon class="st4" points="97.8,44.1 97.8,37.7 102.1,37.7 102.1,39 99.3,39 99.3,40.2 102,40.2 102,41.5 99.3,41.5 99.3,42.8 
			102.3,42.8 102.3,44.1 		"/>
		<polygon class="st4" points="107.2,44.1 105.8,41.9 104.4,44.1 102.6,44.1 104.8,40.7 102.8,37.7 104.6,37.7 105.8,39.7 107,37.7 
			108.8,37.7 106.8,40.7 109.1,44.1 		"/>
		<path class="st4" d="M114.6,39.7c0,0.4-0.1,0.7-0.2,0.9c-0.1,0.3-0.3,0.5-0.6,0.6c-0.2,0.2-0.5,0.3-0.8,0.3
			c-0.3,0.1-0.6,0.1-1,0.1h-0.8v2.4h-1.6v-6.4h2.4c0.3,0,0.7,0,1,0.1c0.3,0.1,0.6,0.2,0.8,0.3c0.2,0.2,0.4,0.4,0.5,0.6
			C114.5,39,114.6,39.3,114.6,39.7 M113,39.7c0-0.2,0-0.3-0.1-0.4c-0.1-0.1-0.1-0.2-0.2-0.2c-0.1-0.1-0.2-0.1-0.3-0.1
			c-0.1,0-0.3,0-0.4,0h-0.7v1.5h0.7c0.1,0,0.3,0,0.4,0c0.1,0,0.3-0.1,0.4-0.1c0.1-0.1,0.2-0.1,0.3-0.2C113,40,113,39.9,113,39.7"/>
		<polygon class="st4" points="115.5,44.1 115.5,37.7 119.8,37.7 119.8,39 117,39 117,40.2 119.7,40.2 119.7,41.5 117,41.5 
			117,42.8 120,42.8 120,44.1 		"/>
		<path class="st4" d="M124.4,44.1l-1.4-2.5h-0.5v2.5H121v-6.4h2.4c0.3,0,0.6,0,0.9,0.1c0.3,0.1,0.6,0.2,0.8,0.3
			c0.2,0.2,0.4,0.4,0.6,0.6c0.1,0.2,0.2,0.6,0.2,0.9c0,0.4-0.1,0.8-0.4,1.1c-0.2,0.3-0.6,0.5-1,0.6l1.7,2.7H124.4z M124.4,39.7
			c0-0.2,0-0.3-0.1-0.4c-0.1-0.1-0.1-0.2-0.2-0.2c-0.1-0.1-0.2-0.1-0.3-0.1c-0.1,0-0.2,0-0.4,0h-0.8v1.5h0.7c0.1,0,0.3,0,0.4,0
			c0.1,0,0.3-0.1,0.4-0.1c0.1-0.1,0.2-0.1,0.3-0.2C124.3,40,124.4,39.9,124.4,39.7"/>
		<rect x="127" y="37.7" class="st4" width="1.6" height="6.4"/>
		<polygon class="st4" points="135.7,44.1 135.8,39.6 135.7,39.6 134.1,44.1 133,44.1 131.3,39.6 131.3,39.6 131.4,44.1 129.9,44.1 
			129.9,37.7 132.1,37.7 133.6,41.8 133.6,41.8 135,37.7 137.2,37.7 137.2,44.1 		"/>
		<polygon class="st4" points="138.6,44.1 138.6,37.7 142.9,37.7 142.9,39 140,39 140,40.2 142.7,40.2 142.7,41.5 140,41.5 
			140,42.8 143,42.8 143,44.1 		"/>
		<polygon class="st4" points="148.1,44.1 145.5,39.9 145.5,39.9 145.6,44.1 144.1,44.1 144.1,37.7 145.8,37.7 148.4,41.9 
			148.4,41.9 148.4,37.7 149.9,37.7 149.9,44.1 		"/>
		<polygon class="st4" points="154,39 154,44.1 152.4,44.1 152.4,39 150.6,39 150.6,37.7 155.8,37.7 155.8,39 		"/>
		<path class="st4" d="M160.3,44.1l-0.5-1.3h-2.5l-0.5,1.3h-1.7l2.7-6.4h1.5l2.7,6.4H160.3z M158.6,39.4l-0.8,2.2h1.6L158.6,39.4z"
			/>
		<polygon class="st4" points="164.7,39 164.7,44.1 163.2,44.1 163.2,39 161.4,39 161.4,37.7 166.6,37.7 166.6,39 		"/>
		<rect x="167.3" y="37.7" class="st4" width="1.6" height="6.4"/>
		<path class="st4" d="M176.8,40.9c0,0.5-0.1,1-0.3,1.4c-0.2,0.4-0.4,0.8-0.7,1.1c-0.3,0.3-0.7,0.5-1.1,0.7
			c-0.4,0.2-0.9,0.2-1.4,0.2c-0.5,0-1-0.1-1.4-0.2c-0.4-0.2-0.8-0.4-1.1-0.7c-0.3-0.3-0.6-0.7-0.7-1.1c-0.2-0.4-0.3-0.9-0.3-1.4
			c0-0.5,0.1-1,0.3-1.4c0.2-0.4,0.4-0.8,0.7-1.1c0.3-0.3,0.7-0.5,1.1-0.7c0.4-0.2,0.9-0.2,1.4-0.2c0.5,0,1,0.1,1.4,0.2
			c0.4,0.2,0.8,0.4,1.1,0.7c0.3,0.3,0.6,0.6,0.7,1.1C176.8,39.9,176.8,40.4,176.8,40.9 M175.2,40.9c0-0.3,0-0.5-0.1-0.8
			c-0.1-0.2-0.2-0.4-0.4-0.6c-0.2-0.2-0.4-0.3-0.6-0.4c-0.2-0.1-0.5-0.1-0.7-0.1c-0.3,0-0.5,0-0.7,0.1c-0.2,0.1-0.4,0.2-0.6,0.4
			c-0.2,0.2-0.3,0.4-0.4,0.6c-0.1,0.2-0.1,0.5-0.1,0.8c0,0.3,0,0.6,0.1,0.8c0.1,0.2,0.2,0.5,0.4,0.6c0.2,0.2,0.4,0.3,0.6,0.4
			c0.2,0.1,0.5,0.2,0.7,0.2c0.3,0,0.5,0,0.7-0.2c0.2-0.1,0.4-0.2,0.6-0.4c0.2-0.2,0.3-0.4,0.4-0.6C175.1,41.5,175.2,41.2,175.2,40.9
			"/>
		<polygon class="st4" points="181.9,44.1 179.4,39.9 179.3,39.9 179.4,44.1 177.9,44.1 177.9,37.7 179.6,37.7 182.2,41.9 
			182.2,41.9 182.2,37.7 183.7,37.7 183.7,44.1 		"/>
		<polygon class="st2" points="98.2,74.2 98.2,67.8 99.7,67.8 99.7,72.8 102.2,72.8 102.2,74.2 		"/>
		<path class="st2" d="M109.4,71c0,0.5-0.1,1-0.3,1.4c-0.2,0.4-0.4,0.8-0.7,1.1c-0.3,0.3-0.7,0.5-1.1,0.7c-0.4,0.2-0.9,0.2-1.4,0.2
			c-0.5,0-1-0.1-1.4-0.2c-0.4-0.2-0.8-0.4-1.1-0.7c-0.3-0.3-0.6-0.7-0.7-1.1c-0.2-0.4-0.3-0.9-0.3-1.4c0-0.5,0.1-1,0.3-1.4
			c0.2-0.4,0.4-0.8,0.7-1c0.3-0.3,0.7-0.5,1.1-0.7c0.4-0.2,0.9-0.2,1.4-0.2c0.5,0,1,0.1,1.4,0.2c0.4,0.2,0.8,0.4,1.1,0.7
			c0.3,0.3,0.6,0.6,0.7,1C109.3,70,109.4,70.4,109.4,71 M107.7,71c0-0.3,0-0.5-0.1-0.8c-0.1-0.2-0.2-0.4-0.4-0.6
			c-0.2-0.2-0.4-0.3-0.6-0.4c-0.2-0.1-0.5-0.1-0.8-0.1c-0.3,0-0.5,0-0.7,0.1c-0.2,0.1-0.4,0.2-0.6,0.4c-0.2,0.2-0.3,0.4-0.4,0.6
			c-0.1,0.2-0.1,0.5-0.1,0.8c0,0.3,0,0.6,0.1,0.8c0.1,0.2,0.2,0.4,0.4,0.6c0.2,0.2,0.4,0.3,0.6,0.4c0.2,0.1,0.5,0.1,0.7,0.1
			c0.3,0,0.5,0,0.7-0.1c0.2-0.1,0.4-0.2,0.6-0.4c0.2-0.2,0.3-0.4,0.4-0.6C107.7,71.5,107.7,71.2,107.7,71"/>
		<polygon class="st2" points="114.5,74.2 111.9,70 111.9,70 111.9,74.2 110.4,74.2 110.4,67.8 112.2,67.8 114.7,71.9 114.8,71.9 
			114.7,67.8 116.2,67.8 116.2,74.2 		"/>
		<path class="st2" d="M122.2,74.2c-0.4,0.1-0.9,0.2-1.4,0.2c-0.5,0-1-0.1-1.4-0.2c-0.4-0.2-0.8-0.4-1.1-0.7
			c-0.3-0.3-0.6-0.6-0.7-1.1c-0.2-0.4-0.3-0.9-0.3-1.4c0-0.5,0.1-1,0.3-1.4c0.2-0.4,0.4-0.8,0.7-1.1c0.3-0.3,0.7-0.5,1.1-0.7
			c0.4-0.2,0.9-0.2,1.4-0.2c0.5,0,1,0.1,1.4,0.2c0.4,0.2,0.8,0.4,1.1,0.6l-1,1.1c-0.2-0.2-0.4-0.3-0.6-0.4c-0.2-0.1-0.5-0.2-0.8-0.2
			c-0.3,0-0.5,0-0.8,0.1c-0.2,0.1-0.4,0.2-0.6,0.4c-0.2,0.2-0.3,0.4-0.4,0.6c-0.1,0.2-0.1,0.5-0.1,0.8c0,0.3,0,0.6,0.1,0.8
			c0.1,0.2,0.2,0.5,0.4,0.6c0.2,0.2,0.4,0.3,0.6,0.4c0.2,0.1,0.5,0.1,0.8,0.1c0.2,0,0.4,0,0.5,0c0.2,0,0.3-0.1,0.5-0.1v-1.2h-1.2
			v-1.2h2.6v3.4C122.9,73.9,122.6,74.1,122.2,74.2"/>
		<path class="st2" d="M129.8,72.8c-0.1,0.3-0.3,0.6-0.6,0.8c-0.2,0.2-0.5,0.4-0.9,0.5c-0.3,0.1-0.7,0.2-1.1,0.2
			c-0.4,0-0.8-0.1-1.1-0.2c-0.3-0.1-0.6-0.3-0.9-0.5c-0.2-0.2-0.4-0.5-0.5-0.8c-0.1-0.3-0.2-0.7-0.2-1v-4h1.5v3.8
			c0,0.2,0,0.3,0.1,0.5c0,0.2,0.1,0.3,0.2,0.4c0.1,0.1,0.2,0.2,0.4,0.3c0.2,0.1,0.3,0.1,0.6,0.1c0.2,0,0.4,0,0.6-0.1
			c0.2-0.1,0.3-0.2,0.4-0.3c0.1-0.1,0.2-0.3,0.2-0.4c0-0.2,0.1-0.3,0.1-0.5v-3.8h1.6v4C130,72.1,129.9,72.5,129.8,72.8"/>
		<polygon class="st2" points="131.2,74.2 131.2,67.8 135.5,67.8 135.5,69.1 132.7,69.1 132.7,70.3 135.4,70.3 135.4,71.5 
			132.7,71.5 132.7,72.8 135.7,72.8 135.7,74.2 		"/>
		<path class="st1" d="M104.2,81.2c0,0.6-0.1,1-0.3,1.5s-0.5,0.7-0.8,1c-0.3,0.3-0.7,0.5-1.2,0.6c-0.4,0.1-0.9,0.2-1.3,0.2h-2.4V78
			h2.3c0.5,0,0.9,0.1,1.3,0.2c0.4,0.1,0.8,0.3,1.2,0.5c0.3,0.2,0.6,0.6,0.8,1C104.1,80,104.2,80.5,104.2,81.2 M102.6,81.2
			c0-0.4-0.1-0.7-0.2-0.9c-0.1-0.2-0.3-0.4-0.5-0.6c-0.2-0.1-0.4-0.2-0.7-0.3c-0.2-0.1-0.5-0.1-0.8-0.1h-0.8V83h0.7
			c0.3,0,0.5,0,0.8-0.1c0.3-0.1,0.5-0.2,0.7-0.3c0.2-0.1,0.4-0.3,0.5-0.6C102.5,81.8,102.6,81.5,102.6,81.2"/>
		<path class="st1" d="M110.5,83c-0.1,0.3-0.3,0.6-0.6,0.8c-0.2,0.2-0.5,0.4-0.9,0.5c-0.3,0.1-0.7,0.2-1.1,0.2
			c-0.4,0-0.8-0.1-1.1-0.2c-0.3-0.1-0.6-0.3-0.9-0.5c-0.2-0.2-0.4-0.5-0.5-0.8c-0.1-0.3-0.2-0.7-0.2-1.1v-4h1.5v3.9
			c0,0.2,0,0.3,0.1,0.5c0,0.2,0.1,0.3,0.2,0.4c0.1,0.1,0.2,0.2,0.4,0.3c0.2,0.1,0.3,0.1,0.6,0.1c0.2,0,0.4,0,0.6-0.1
			c0.2-0.1,0.3-0.2,0.4-0.3c0.1-0.1,0.2-0.3,0.2-0.4c0-0.2,0.1-0.3,0.1-0.5V78h1.5v4C110.7,82.3,110.6,82.7,110.5,83"/>
		<path class="st1" d="M115.3,84.4l-1.4-2.5h-0.5v2.5h-1.5V78h2.4c0.3,0,0.6,0,0.9,0.1c0.3,0.1,0.6,0.2,0.8,0.3s0.4,0.4,0.6,0.6
			c0.1,0.2,0.2,0.6,0.2,0.9c0,0.4-0.1,0.8-0.4,1.1c-0.2,0.3-0.6,0.5-1,0.6l1.7,2.7H115.3z M115.3,79.9c0-0.2,0-0.3-0.1-0.4
			c-0.1-0.1-0.1-0.2-0.2-0.2c-0.1-0.1-0.2-0.1-0.3-0.1c-0.1,0-0.2,0-0.4,0h-0.8v1.5h0.7c0.1,0,0.3,0,0.4,0c0.1,0,0.3-0.1,0.4-0.1
			c0.1-0.1,0.2-0.1,0.3-0.2C115.3,80.2,115.3,80.1,115.3,79.9"/>
		<path class="st1" d="M117.9,84.4V78h4.3v1.3h-2.8v1.2h2.7v1.2h-2.7v1.3h3v1.3H117.9z M120.5,77.5h-1.1l0.9-1.3h1.5L120.5,77.5z"/>
		<polygon class="st1" points="123.4,84.4 123.4,78 127.7,78 127.7,79.3 124.9,79.3 124.9,80.5 127.6,80.5 127.6,81.7 124.9,81.7 
			124.9,83.1 127.9,83.1 127.9,84.4 		"/>
		<polygon class="st4" points="100.7,49.2 100.7,54.2 99.1,54.2 99.1,49.2 97.3,49.2 97.3,47.8 102.5,47.8 102.5,49.2 		"/>
		<polygon class="st4" points="103.2,54.2 103.2,47.8 107.5,47.8 107.5,49.1 104.7,49.1 104.7,50.4 107.4,50.4 107.4,51.6 
			104.7,51.6 104.7,52.9 107.7,52.9 107.7,54.2 		"/>
		<path class="st4" d="M112.2,54.3l-1.4-2.5h-0.5v2.5h-1.5v-6.4h2.4c0.3,0,0.6,0,0.9,0.1c0.3,0.1,0.6,0.2,0.8,0.3
			c0.2,0.2,0.4,0.3,0.6,0.6c0.1,0.2,0.2,0.6,0.2,0.9c0,0.4-0.1,0.8-0.4,1.1c-0.2,0.3-0.6,0.5-1,0.6l1.7,2.7H112.2z M112.1,49.8
			c0-0.2,0-0.3-0.1-0.4c-0.1-0.1-0.1-0.2-0.2-0.2c-0.1-0.1-0.2-0.1-0.3-0.1c-0.1,0-0.2,0-0.4,0h-0.8v1.5h0.7c0.1,0,0.3,0,0.4,0
			c0.1,0,0.3-0.1,0.4-0.1c0.1-0.1,0.2-0.1,0.3-0.2C112.1,50.1,112.1,50,112.1,49.8"/>
		<path class="st4" d="M118.2,54.3l-1.4-2.5h-0.5v2.5h-1.5v-6.4h2.4c0.3,0,0.6,0,0.9,0.1c0.3,0.1,0.6,0.2,0.8,0.3
			c0.2,0.2,0.4,0.3,0.6,0.6c0.1,0.2,0.2,0.6,0.2,0.9c0,0.4-0.1,0.8-0.4,1.1c-0.2,0.3-0.6,0.5-1,0.6l1.7,2.7H118.2z M118.1,49.8
			c0-0.2,0-0.3-0.1-0.4c-0.1-0.1-0.1-0.2-0.2-0.2c-0.1-0.1-0.2-0.1-0.3-0.1c-0.1,0-0.2,0-0.4,0h-0.8v1.5h0.7c0.1,0,0.3,0,0.4,0
			c0.1,0,0.3-0.1,0.4-0.1c0.1-0.1,0.2-0.1,0.3-0.2C118.1,50.1,118.1,50,118.1,49.8"/>
		<rect x="120.7" y="47.8" class="st4" width="1.6" height="6.4"/>
		<polygon class="st4" points="126.4,49.2 126.4,54.2 124.8,54.2 124.8,49.2 123,49.2 123,47.8 128.2,47.8 128.2,49.2 		"/>
		<path class="st4" d="M135.3,51c0,0.5-0.1,1-0.3,1.4c-0.2,0.4-0.4,0.8-0.7,1.1c-0.3,0.3-0.7,0.5-1.1,0.7c-0.4,0.2-0.9,0.2-1.4,0.2
			c-0.5,0-1-0.1-1.4-0.2c-0.4-0.2-0.8-0.4-1.1-0.7c-0.3-0.3-0.6-0.7-0.7-1.1c-0.2-0.4-0.3-0.9-0.3-1.4c0-0.5,0.1-1,0.3-1.4
			c0.2-0.4,0.4-0.8,0.7-1.1c0.3-0.3,0.7-0.5,1.1-0.7c0.4-0.2,0.9-0.2,1.4-0.2c0.5,0,1,0.1,1.4,0.2c0.4,0.2,0.8,0.4,1.1,0.7
			c0.3,0.3,0.6,0.6,0.7,1.1C135.2,50,135.3,50.5,135.3,51 M133.6,51c0-0.3,0-0.5-0.1-0.8c-0.1-0.2-0.2-0.4-0.4-0.6
			c-0.2-0.2-0.4-0.3-0.6-0.4c-0.2-0.1-0.5-0.1-0.7-0.1c-0.3,0-0.5,0-0.7,0.1c-0.2,0.1-0.4,0.2-0.6,0.4c-0.2,0.2-0.3,0.4-0.4,0.6
			c-0.1,0.2-0.1,0.5-0.1,0.8c0,0.3,0,0.6,0.1,0.8c0.1,0.2,0.2,0.5,0.4,0.6c0.2,0.2,0.4,0.3,0.6,0.4c0.2,0.1,0.5,0.1,0.7,0.1
			c0.3,0,0.5,0,0.7-0.1c0.2-0.1,0.4-0.2,0.6-0.4c0.2-0.2,0.3-0.4,0.4-0.6C133.6,51.6,133.6,51.3,133.6,51"/>
		<path class="st4" d="M139.8,54.3l-1.4-2.5h-0.5v2.5h-1.5v-6.4h2.4c0.3,0,0.6,0,0.9,0.1c0.3,0.1,0.6,0.2,0.8,0.3
			c0.2,0.2,0.4,0.3,0.6,0.6c0.1,0.2,0.2,0.6,0.2,0.9c0,0.4-0.1,0.8-0.4,1.1c-0.2,0.3-0.6,0.5-1,0.6l1.7,2.7H139.8z M139.7,49.8
			c0-0.2,0-0.3-0.1-0.4c-0.1-0.1-0.1-0.2-0.2-0.2c-0.1-0.1-0.2-0.1-0.3-0.1c-0.1,0-0.2,0-0.4,0h-0.8v1.5h0.7c0.1,0,0.3,0,0.4,0
			c0.1,0,0.3-0.1,0.4-0.1c0.1-0.1,0.2-0.1,0.3-0.2C139.7,50.1,139.7,50,139.7,49.8"/>
		<rect x="142.3" y="47.8" class="st4" width="1.6" height="6.4"/>
		<path class="st4" d="M149.6,54.2l-0.5-1.3h-2.5l-0.5,1.3h-1.7l2.7-6.4h1.5l2.7,6.4H149.6z M147.8,49.5l-0.8,2.2h1.6L147.8,49.5z"
			/>
		<polygon class="st4" points="151.8,54.2 151.8,47.8 153.4,47.8 153.4,52.9 155.9,52.9 155.9,54.2 		"/>
		<polygon class="st4" points="156.6,54.2 156.6,47.8 160.9,47.8 160.9,49.1 158.1,49.1 158.1,50.4 160.8,50.4 160.8,51.6 
			158.1,51.6 158.1,52.9 161.1,52.9 161.1,54.2 		"/>
		<path class="st4" d="M169,54.1c-0.4,0.2-0.9,0.3-1.4,0.3c-0.5,0-1-0.1-1.4-0.2c-0.4-0.2-0.8-0.4-1.1-0.7c-0.3-0.3-0.5-0.7-0.7-1.1
			c-0.2-0.4-0.3-0.9-0.3-1.4c0-0.5,0.1-1,0.3-1.4c0.2-0.4,0.4-0.8,0.7-1.1c0.3-0.3,0.7-0.5,1.1-0.7c0.4-0.2,0.9-0.2,1.4-0.2
			c0.5,0,0.9,0.1,1.3,0.2c0.4,0.2,0.8,0.4,1.1,0.7l-1.1,1.1c-0.1-0.2-0.3-0.3-0.6-0.4c-0.2-0.1-0.5-0.1-0.7-0.1
			c-0.3,0-0.5,0.1-0.7,0.2c-0.2,0.1-0.4,0.2-0.6,0.4c-0.2,0.2-0.3,0.4-0.4,0.6c-0.1,0.2-0.1,0.5-0.1,0.8c0,0.3,0,0.6,0.1,0.8
			c0.1,0.2,0.2,0.4,0.4,0.6c0.2,0.2,0.4,0.3,0.6,0.4c0.2,0.1,0.5,0.1,0.7,0.1c0.3,0,0.6-0.1,0.8-0.2c0.2-0.1,0.4-0.3,0.6-0.5l1.1,1
			C169.7,53.7,169.4,53.9,169,54.1"/>
		<path class="st4" d="M177.3,51c0,0.5-0.1,1-0.3,1.4c-0.2,0.4-0.4,0.8-0.7,1.1c-0.3,0.3-0.7,0.5-1.1,0.7c-0.4,0.2-0.9,0.2-1.4,0.2
			c-0.5,0-1-0.1-1.4-0.2c-0.4-0.2-0.8-0.4-1.1-0.7c-0.3-0.3-0.6-0.7-0.7-1.1c-0.2-0.4-0.3-0.9-0.3-1.4c0-0.5,0.1-1,0.3-1.4
			c0.2-0.4,0.4-0.8,0.7-1.1c0.3-0.3,0.7-0.5,1.1-0.7c0.4-0.2,0.9-0.2,1.4-0.2c0.5,0,1,0.1,1.4,0.2c0.4,0.2,0.8,0.4,1.1,0.7
			c0.3,0.3,0.6,0.6,0.7,1.1C177.2,50,177.3,50.5,177.3,51 M175.6,51c0-0.3,0-0.5-0.1-0.8c-0.1-0.2-0.2-0.4-0.4-0.6
			c-0.2-0.2-0.4-0.3-0.6-0.4c-0.2-0.1-0.5-0.1-0.7-0.1c-0.3,0-0.5,0-0.7,0.1c-0.2,0.1-0.4,0.2-0.6,0.4c-0.2,0.2-0.3,0.4-0.4,0.6
			c-0.1,0.2-0.1,0.5-0.1,0.8c0,0.3,0,0.6,0.1,0.8c0.1,0.2,0.2,0.5,0.4,0.6c0.2,0.2,0.4,0.3,0.6,0.4c0.2,0.1,0.5,0.1,0.7,0.1
			c0.3,0,0.5,0,0.7-0.1c0.2-0.1,0.4-0.2,0.6-0.4c0.2-0.2,0.3-0.4,0.4-0.6C175.5,51.6,175.6,51.3,175.6,51"/>
		<polygon class="st4" points="182.4,54.2 179.8,50.1 179.7,50.1 179.8,54.2 178.3,54.2 178.3,47.8 180,47.8 182.6,52 182.6,52 
			182.6,47.8 184.1,47.8 184.1,54.2 		"/>
		<polygon class="st4" points="188.2,49.2 188.2,54.2 186.6,54.2 186.6,49.2 184.8,49.2 184.8,47.8 190,47.8 190,49.2 		"/>
		<path class="st4" d="M194.1,54.3l-1.4-2.5h-0.5v2.5h-1.5v-6.4h2.4c0.3,0,0.6,0,0.9,0.1c0.3,0.1,0.6,0.2,0.8,0.3
			c0.2,0.2,0.4,0.3,0.6,0.6c0.1,0.2,0.2,0.6,0.2,0.9c0,0.4-0.1,0.8-0.4,1.1c-0.2,0.3-0.6,0.5-1,0.6l1.7,2.7H194.1z M194.1,49.8
			c0-0.2,0-0.3-0.1-0.4c-0.1-0.1-0.1-0.2-0.2-0.2c-0.1-0.1-0.2-0.1-0.3-0.1c-0.1,0-0.2,0-0.4,0h-0.8v1.5h0.7c0.1,0,0.3,0,0.4,0
			c0.1,0,0.3-0.1,0.4-0.1c0.1-0.1,0.2-0.1,0.3-0.2C194,50.1,194.1,50,194.1,49.8"/>
		<polygon class="st4" points="196.7,54.2 196.7,47.8 201,47.8 201,49.1 198.2,49.1 198.2,50.4 200.9,50.4 200.9,51.6 198.2,51.6 
			198.2,52.9 201.2,52.9 201.2,54.2 		"/>
		<polygon class="st4" points="204.5,54.2 204.5,47.8 206,47.8 206,52.9 208.5,52.9 208.5,54.2 		"/>
		<polygon class="st4" points="209.3,54.2 209.3,47.8 213.6,47.8 213.6,49.1 210.7,49.1 210.7,50.4 213.4,50.4 213.4,51.6 
			210.7,51.6 210.7,52.9 213.7,52.9 213.7,54.2 		"/>
		<path class="st0" d="M102.6,64.2c-0.4,0.2-0.9,0.3-1.4,0.3c-0.5,0-1-0.1-1.4-0.2c-0.4-0.2-0.8-0.4-1.1-0.7
			c-0.3-0.3-0.5-0.7-0.7-1.1c-0.2-0.4-0.3-0.9-0.3-1.4c0-0.5,0.1-1,0.3-1.4c0.2-0.4,0.4-0.8,0.7-1.1c0.3-0.3,0.7-0.5,1.1-0.7
			c0.4-0.2,0.9-0.2,1.4-0.2c0.5,0,0.9,0.1,1.3,0.2c0.4,0.2,0.8,0.4,1.1,0.7l-1.1,1.1c-0.1-0.2-0.3-0.3-0.6-0.4
			c-0.2-0.1-0.5-0.1-0.7-0.1c-0.3,0-0.5,0.1-0.8,0.2c-0.2,0.1-0.4,0.2-0.6,0.4c-0.2,0.2-0.3,0.4-0.4,0.6c-0.1,0.2-0.1,0.5-0.1,0.8
			c0,0.3,0,0.6,0.1,0.8c0.1,0.2,0.2,0.4,0.4,0.6c0.2,0.2,0.4,0.3,0.6,0.4c0.2,0.1,0.5,0.1,0.7,0.1c0.3,0,0.6-0.1,0.8-0.2
			c0.2-0.1,0.4-0.3,0.6-0.5l1.1,1C103.4,63.7,103,64,102.6,64.2"/>
		<polygon class="st0" points="108.4,64.3 108.4,61.6 105.9,61.6 105.9,64.3 104.3,64.3 104.3,57.8 105.9,57.8 105.9,60.3 
			108.4,60.3 108.4,57.8 109.9,57.8 109.9,64.3 		"/>
		<path class="st0" d="M117.9,61c0,0.5-0.1,1-0.3,1.4c-0.2,0.4-0.4,0.8-0.7,1.1c-0.3,0.3-0.7,0.5-1.1,0.7c-0.4,0.2-0.9,0.2-1.4,0.2
			c-0.5,0-1-0.1-1.4-0.2c-0.4-0.2-0.8-0.4-1.1-0.7c-0.3-0.3-0.6-0.7-0.7-1.1c-0.2-0.4-0.3-0.9-0.3-1.4c0-0.5,0.1-1,0.3-1.4
			c0.2-0.4,0.4-0.8,0.7-1.1c0.3-0.3,0.7-0.5,1.1-0.7c0.4-0.2,0.9-0.2,1.4-0.2c0.5,0,1,0.1,1.4,0.2c0.4,0.2,0.8,0.4,1.1,0.7
			c0.3,0.3,0.6,0.6,0.7,1.1C117.8,60,117.9,60.5,117.9,61 M116.3,61c0-0.3,0-0.5-0.1-0.8c-0.1-0.2-0.2-0.4-0.4-0.6
			c-0.2-0.2-0.4-0.3-0.6-0.4c-0.2-0.1-0.5-0.2-0.7-0.2s-0.5,0.1-0.7,0.2c-0.2,0.1-0.4,0.2-0.6,0.4c-0.2,0.2-0.3,0.4-0.4,0.6
			c-0.1,0.2-0.1,0.5-0.1,0.8c0,0.3,0,0.6,0.1,0.8c0.1,0.2,0.2,0.5,0.4,0.6c0.2,0.2,0.4,0.3,0.6,0.4c0.2,0.1,0.5,0.2,0.7,0.2
			s0.5,0,0.7-0.2c0.2-0.1,0.4-0.2,0.6-0.4c0.2-0.2,0.3-0.4,0.4-0.6C116.2,61.6,116.3,61.3,116.3,61 M115,57.3l-0.6-0.7l-0.6,0.7
			h-1.2l1.1-1.3h1.3l1.1,1.3H115z"/>
		<polygon class="st0" points="124.8,64.3 124.8,59.7 124.8,59.7 123.1,64.3 122,64.3 120.4,59.7 120.4,59.7 120.4,64.3 119,64.3 
			119,57.8 121.2,57.8 122.6,62 122.7,62 124.1,57.8 126.3,57.8 126.3,64.3 		"/>
		<path class="st0" d="M132,64.3l-0.5-1.3H129l-0.5,1.3h-1.7l2.7-6.4h1.5l2.7,6.4H132z M130.2,59.6l-0.8,2.2h1.6L130.2,59.6z"/>
		<path class="st0" d="M138.7,64.3c-0.4,0.1-0.9,0.2-1.4,0.2c-0.5,0-1-0.1-1.4-0.2c-0.4-0.2-0.8-0.4-1.1-0.7
			c-0.3-0.3-0.6-0.7-0.7-1.1c-0.2-0.4-0.3-0.9-0.3-1.4c0-0.5,0.1-1,0.3-1.4c0.2-0.4,0.4-0.8,0.7-1.1c0.3-0.3,0.7-0.5,1.1-0.7
			c0.4-0.2,0.9-0.2,1.4-0.2c0.5,0,1,0.1,1.4,0.2s0.8,0.4,1.1,0.6l-1,1.1c-0.2-0.2-0.4-0.3-0.6-0.4c-0.2-0.1-0.5-0.2-0.8-0.2
			c-0.3,0-0.5,0-0.8,0.2c-0.2,0.1-0.4,0.2-0.6,0.4c-0.2,0.2-0.3,0.4-0.4,0.6c-0.1,0.2-0.1,0.5-0.1,0.8c0,0.3,0,0.6,0.1,0.8
			c0.1,0.2,0.2,0.5,0.4,0.6c0.2,0.2,0.4,0.3,0.6,0.4c0.2,0.1,0.5,0.2,0.8,0.2c0.2,0,0.4,0,0.5,0c0.2,0,0.3-0.1,0.5-0.1v-1.2h-1.2
			v-1.3h2.6v3.4C139.4,64,139.1,64.2,138.7,64.3"/>
		<polygon class="st0" points="141,64.3 141,57.8 145.3,57.8 145.3,59.2 142.5,59.2 142.5,60.4 145.2,60.4 145.2,61.6 142.5,61.6 
			142.5,62.9 145.5,62.9 145.5,64.3 		"/>
		<path class="st0" d="M154.8,61c0,0.6-0.1,1-0.3,1.5c-0.2,0.4-0.5,0.7-0.8,1c-0.3,0.3-0.7,0.5-1.2,0.6c-0.4,0.1-0.9,0.2-1.3,0.2
			h-2.4v-6.4h2.3c0.5,0,0.9,0.1,1.3,0.2c0.4,0.1,0.8,0.3,1.2,0.5c0.3,0.2,0.6,0.6,0.8,1C154.7,59.9,154.8,60.4,154.8,61 M153.2,61
			c0-0.4-0.1-0.7-0.2-0.9c-0.1-0.2-0.3-0.4-0.5-0.6c-0.2-0.1-0.4-0.2-0.7-0.3c-0.3-0.1-0.5-0.1-0.8-0.1h-0.8v3.8h0.7
			c0.3,0,0.5,0,0.8-0.1c0.3-0.1,0.5-0.2,0.7-0.3c0.2-0.1,0.4-0.3,0.5-0.6C153.1,61.7,153.2,61.4,153.2,61"/>
		<polygon class="st0" points="155.8,64.3 155.8,57.8 160.1,57.8 160.1,59.2 157.3,59.2 157.3,60.4 160,60.4 160,61.6 157.3,61.6 
			157.3,62.9 160.3,62.9 160.3,64.3 		"/>
	</g>
</g>
<path class="st4" d="M115.5,44.1v-6.4h4.3V39H117v1.2h2.7v1.2H117v1.3h3v1.3H115.5z M118.1,37.2h-1.1l0.9-1.3h1.5L118.1,37.2z"/>
</svg>
