<?xml version="1.0" encoding="utf-8"?>
<!-- Generator: Adobe Illustrator 27.2.0, SVG Export Plug-In . SVG Version: 6.00 Build 0)  -->
<svg version="1.1" id="Calque_2_00000049916952226113363400000003123003197317003941_"
	 xmlns="http://www.w3.org/2000/svg" xmlns:xlink="http://www.w3.org/1999/xlink" x="0px" y="0px" viewBox="0 0 393.1 142"
	 style="enable-background:new 0 0 393.1 142;" xml:space="preserve">
<style type="text/css">
	.st0{fill:#97C22A;}
	.st1{fill:#68B437;}
	.st2{fill:#4D1A5F;}
	.st3{fill:#F9B318;}
	.st4{fill:#EC661B;}
	.st5{fill:#EFFEE7;}
</style>
<symbol  id="Logo-feuille-tilleul" viewBox="-52.6 -46.2 105.2 92.3">
	<path class="st0" d="M-0.1,29.5c38,30.3,52.7,12.3,52.7,0.1c-0.5-28.9-31-75.8-52.7-75.8L-0.1,29.5z"/>
	<path class="st1" d="M0.1,29.5c-38,30.3-52.7,12.3-52.7,0.1c0.5-28.9,31-75.8,52.7-75.8L0.1,29.5z"/>
</symbol>
<g>
	<path class="st2" d="M196.5,142.1c-75.4,0.4-148.1-15.5-176.6-38.1c6.3-0.4,12.6-3,18.8-3.7c47.7,16.7,99.1,25,155,25
		c50.3,0,95.3-10,137.7-30.6c4.3-2.1,14.9-8.8,23.4-16.2c7.4-6,20.9-19.4,15-30.7c-2.3-4.4-7.3-10.5-11.4-13.1
		c11.6,3,22.8,18.2,25.4,23.3c3.5,6.8,3.8,15.9,0.4,23.6c-7.3,14.8-26.7,30.6-56.9,40.2C297.6,132.8,256.8,141.8,196.5,142.1z"/>
</g>
<g>
	<defs>
		<rect id="SVGID_1_" x="342.4" y="1.3" width="11" height="9.6"/>
	</defs>
	<clipPath id="SVGID_00000109721012615181258750000009304946775053291652_">
		<use xlink:href="#SVGID_1_"  style="overflow:visible;"/>
	</clipPath>
	<g transform="matrix(1 0 0 1 0 0)" style="clip-path:url(#SVGID_00000109721012615181258750000009304946775053291652_);">
		
			<use xlink:href="#Logo-feuille-tilleul"  width="105.2" height="92.3" x="-52.6" y="-46.2" transform="matrix(-0.1046 0 0 0.1034 347.9236 6.0899)" style="overflow:visible;"/>
	</g>
</g>
<g>
	<path class="st3" d="M351.7,74.6l-12.5-8.3c-1.6-1.1-3.8-0.6-4.8,1l2.9,1.9l2.9,1.9l11.5,7.6L351.7,74.6L351.7,74.6z"/>
	<path class="st4" d="M350.6,78l-10.4-6.9l-2.9-1.9l-2.9-1.9c-1.1,1.6-0.6,3.8,1,4.8l15.2,10L350.6,78L350.6,78z"/>
</g>
<g>
	<path class="st3" d="M348.1,63.8l12.5-8.3c1.6-1.1,3.8-0.6,4.8,1l-2.9,1.9l-2.9,1.9l-11.5,7.6L348.1,63.8L348.1,63.8z"/>
	<path class="st4" d="M349.3,67.1l10.4-6.9l2.9-1.9l2.9-1.9c1.1,1.6,0.6,3.8-1,4.8l-15.2,10L349.3,67.1L349.3,67.1z"/>
</g>
<g>
	<path class="st4" d="M350,103v-1.1l0,0V46v-3.1v-3.1c-1.9,0-3.5,1.4-3.5,3.1v43.9V103c0,1.7,1.6,3.1,3.5,3.1V103z"/>
	<path class="st3" d="M353.5,42.9c0-1.7-1.6-3.1-3.5-3.1v3.1V46v53.9v3.1v3.1c1.9,0,3.5-1.4,3.5-3.1v-1.1l0,0V42.9z"/>
</g>
<g>
	<defs>
		
			<rect id="SVGID_00000102545111545296859740000011469967599024901525_" x="343" y="-0.8" transform="matrix(4.017235e-03 -1 1 4.017235e-03 341.4032 355.3236)" width="12.2" height="14.1"/>
	</defs>
	<clipPath id="SVGID_00000003812861075847909010000014966932493448749188_">
		<use xlink:href="#SVGID_00000102545111545296859740000011469967599024901525_"  style="overflow:visible;"/>
	</clipPath>
	
		<g transform="matrix(1 0 4.656613e-10 1 0 4.768372e-07)" style="clip-path:url(#SVGID_00000003812861075847909010000014966932493448749188_);enable-background:new    ;">
		
			<use xlink:href="#Logo-feuille-tilleul"  width="105.2" height="92.3" x="-52.6" y="-46.2" transform="matrix(-0.1338 -5.375103e-04 -5.316138e-04 0.1324 349.0786 6.2692)" style="overflow:visible;"/>
	</g>
</g>
<g>
	<defs>
		
			<rect id="SVGID_00000090995760989029644440000011644936864189051532_" x="323.8" y="5.5" transform="matrix(0.8681 -0.4965 0.4965 0.8681 37.8784 165.7599)" width="14.1" height="12.2"/>
	</defs>
	<clipPath id="SVGID_00000157303437393520945280000018365342528105471164_">
		<use xlink:href="#SVGID_00000090995760989029644440000011644936864189051532_"  style="overflow:visible;"/>
	</clipPath>
	
		<g transform="matrix(1 0 0 1 0 1.525879e-05)" style="clip-path:url(#SVGID_00000157303437393520945280000018365342528105471164_);enable-background:new    ;">
		
			<use xlink:href="#Logo-feuille-tilleul"  width="105.2" height="92.3" x="-52.6" y="-46.2" transform="matrix(-0.1162 6.645692e-02 6.572788e-02 0.1149 330.7949 11.6128)" style="overflow:visible;"/>
	</g>
</g>
<g>
	<defs>
		
			<rect id="SVGID_00000168091288688718753500000001675781135010626442_" x="310.6" y="19.3" transform="matrix(0.5036 -0.8639 0.8639 0.5036 135.7387 287.0145)" width="14.1" height="12.2"/>
	</defs>
	<clipPath id="SVGID_00000158714684882992042620000017011153643758001581_">
		<use xlink:href="#SVGID_00000168091288688718753500000001675781135010626442_"  style="overflow:visible;"/>
	</clipPath>
	
		<g transform="matrix(1 2.980232e-08 0 1 0 1.907349e-06)" style="clip-path:url(#SVGID_00000158714684882992042620000017011153643758001581_);enable-background:new    ;">
		
			<use xlink:href="#Logo-feuille-tilleul"  width="105.2" height="92.3" x="-52.6" y="-46.2" transform="matrix(-6.738792e-02 0.1156 0.1144 6.664866e-02 317.6326 25.3823)" style="overflow:visible;"/>
	</g>
</g>
<g>
	<defs>
		
			<rect id="SVGID_00000110443008585185079070000006338024233375616184_" x="306.1" y="37.8" transform="matrix(4.017235e-03 -1 1 4.017235e-03 267.9765 356.8318)" width="14.1" height="12.2"/>
	</defs>
	<clipPath id="SVGID_00000008828150326805160600000011151159339764693656_">
		<use xlink:href="#SVGID_00000110443008585185079070000006338024233375616184_"  style="overflow:visible;"/>
	</clipPath>
	
		<g transform="matrix(1 -4.656613e-10 0 1 0 0)" style="clip-path:url(#SVGID_00000008828150326805160600000011151159339764693656_);enable-background:new    ;">
		
			<use xlink:href="#Logo-feuille-tilleul"  width="105.2" height="92.3" x="-52.6" y="-46.2" transform="matrix(-5.375103e-04 0.1338 0.1324 5.316138e-04 313.1185 43.8883)" style="overflow:visible;"/>
	</g>
</g>
<g>
	<defs>
		
			<rect id="SVGID_00000003066889137376993970000016722919985516439456_" x="312.3" y="55.1" transform="matrix(0.8681 -0.4965 0.4965 0.8681 11.1535 166.3079)" width="12.2" height="14.1"/>
	</defs>
	<clipPath id="SVGID_00000005967195481270139880000017451538655449059756_">
		<use xlink:href="#SVGID_00000003066889137376993970000016722919985516439456_"  style="overflow:visible;"/>
	</clipPath>
	<g style="clip-path:url(#SVGID_00000005967195481270139880000017451538655449059756_);enable-background:new    ;">
		
			<use xlink:href="#Logo-feuille-tilleul"  width="105.2" height="92.3" x="-52.6" y="-46.2" transform="matrix(6.645692e-02 0.1162 0.1149 -6.572788e-02 318.462 62.1719)" style="overflow:visible;"/>
	</g>
</g>
<g>
	<defs>
		
			<rect id="SVGID_00000049944763332788843090000001955733206469606547_" x="362" y="68.4" transform="matrix(0.8681 -0.4965 0.4965 0.8681 11.7015 193.0328)" width="14.1" height="12.2"/>
	</defs>
	<clipPath id="SVGID_00000178168558723557261940000002231815903445909376_">
		<use xlink:href="#SVGID_00000049944763332788843090000001955733206469606547_"  style="overflow:visible;"/>
	</clipPath>
	
		<g transform="matrix(1 0 0 1 3.051758e-05 -7.629395e-06)" style="clip-path:url(#SVGID_00000178168558723557261940000002231815903445909376_);enable-background:new    ;">
		
			<use xlink:href="#Logo-feuille-tilleul"  width="105.2" height="92.3" x="-52.6" y="-46.2" transform="matrix(0.1162 -6.645692e-02 -6.572788e-02 -0.1149 369.0212 74.5048)" style="overflow:visible;"/>
	</g>
</g>
<g>
	<defs>
		
			<rect id="SVGID_00000057832577313619061650000016109628930455414663_" x="375.1" y="54.6" transform="matrix(0.5036 -0.8639 0.8639 0.5036 137.2383 360.3224)" width="14.1" height="12.2"/>
	</defs>
	<clipPath id="SVGID_00000072261244448933213650000010303467344490675360_">
		<use xlink:href="#SVGID_00000057832577313619061650000016109628930455414663_"  style="overflow:visible;"/>
	</clipPath>
	
		<g transform="matrix(1 2.980232e-08 0 1 0 -7.629395e-06)" style="clip-path:url(#SVGID_00000072261244448933213650000010303467344490675360_);enable-background:new    ;">
		
			<use xlink:href="#Logo-feuille-tilleul"  width="105.2" height="92.3" x="-52.6" y="-46.2" transform="matrix(6.738792e-02 -0.1156 -0.1144 -6.664866e-02 382.1834 60.7353)" style="overflow:visible;"/>
	</g>
</g>
<g>
	<defs>
		
			<rect id="SVGID_00000063623408969641387130000006652556788389574317_" x="379.7" y="36.1" transform="matrix(4.017235e-03 -1 1 4.017235e-03 342.9113 428.7504)" width="14.1" height="12.2"/>
	</defs>
	<clipPath id="SVGID_00000085241294854979462220000016194706333424513409_">
		<use xlink:href="#SVGID_00000063623408969641387130000006652556788389574317_"  style="overflow:visible;"/>
	</clipPath>
	
		<g transform="matrix(1 -4.656613e-10 0 1 0 0)" style="clip-path:url(#SVGID_00000085241294854979462220000016194706333424513409_);enable-background:new    ;">
		
			<use xlink:href="#Logo-feuille-tilleul"  width="105.2" height="92.3" x="-52.6" y="-46.2" transform="matrix(5.375103e-04 -0.1338 -0.1324 -5.316138e-04 386.6977 42.2294)" style="overflow:visible;"/>
	</g>
</g>
<g>
	<defs>
		
			<rect id="SVGID_00000140735269669647671800000012399776505996075904_" x="375.2" y="16.9" transform="matrix(0.8681 -0.4965 0.4965 0.8681 38.4264 192.4848)" width="12.2" height="14.1"/>
	</defs>
	<clipPath id="SVGID_00000137113910049562816010000001574274968477586602_">
		<use xlink:href="#SVGID_00000140735269669647671800000012399776505996075904_"  style="overflow:visible;"/>
	</clipPath>
	
		<g transform="matrix(1 0 0 1 0 -1.716614e-05)" style="clip-path:url(#SVGID_00000137113910049562816010000001574274968477586602_);enable-background:new    ;">
		
			<use xlink:href="#Logo-feuille-tilleul"  width="105.2" height="92.3" x="-52.6" y="-46.2" transform="matrix(-6.645692e-02 -0.1162 -0.1149 6.572788e-02 381.354 23.9458)" style="overflow:visible;"/>
	</g>
</g>
<g>
	<defs>
		
			<rect id="SVGID_00000088111628150190211110000011341135420020869015_" x="361.5" y="3.7" transform="matrix(0.5036 -0.8639 0.8639 0.5036 173.1424 322.9187)" width="12.2" height="14.1"/>
	</defs>
	<clipPath id="SVGID_00000102544769935659896550000012209330311641732234_">
		<use xlink:href="#SVGID_00000088111628150190211110000011341135420020869015_"  style="overflow:visible;"/>
	</clipPath>
	
		<g transform="matrix(1 0 -2.980232e-08 1 0 5.722046e-06)" style="clip-path:url(#SVGID_00000102544769935659896550000012209330311641732234_);enable-background:new    ;">
		
			<use xlink:href="#Logo-feuille-tilleul"  width="105.2" height="92.3" x="-52.6" y="-46.2" transform="matrix(-0.1156 -6.738792e-02 -6.664866e-02 0.1144 367.5845 10.7834)" style="overflow:visible;"/>
	</g>
</g>
<g>
	<defs>
		
			<rect id="SVGID_00000140697157661314084120000001855708164470650031_" x="339.6" y="16" transform="matrix(0.9832 -0.1826 0.1826 0.9832 2.142 63.1561)" width="9" height="7.8"/>
	</defs>
	<clipPath id="SVGID_00000172423749629880093670000011513448769438967214_">
		<use xlink:href="#SVGID_00000140697157661314084120000001855708164470650031_"  style="overflow:visible;"/>
	</clipPath>
	
		<g transform="matrix(1 0 -1.490116e-08 1 0 -3.814697e-06)" style="clip-path:url(#SVGID_00000172423749629880093670000011513448769438967214_);enable-background:new    ;">
		
			<use xlink:href="#Logo-feuille-tilleul"  width="105.2" height="92.3" x="-52.6" y="-46.2" transform="matrix(-8.409549e-02 1.561721e-02 1.544589e-02 8.317295e-02 344.0607 19.9426)" style="overflow:visible;"/>
	</g>
</g>
<g>
	<defs>
		
			<rect id="SVGID_00000097476723504154447720000008602794332458349202_" x="328.7" y="21.6" transform="matrix(0.7602 -0.6497 0.6497 0.7602 63.3607 222.6101)" width="9" height="7.8"/>
	</defs>
	<clipPath id="SVGID_00000001630404270744933080000016568115016299293851_">
		<use xlink:href="#SVGID_00000097476723504154447720000008602794332458349202_"  style="overflow:visible;"/>
	</clipPath>
	
		<g transform="matrix(1 -2.980232e-08 0 1 0 1.144409e-05)" style="clip-path:url(#SVGID_00000001630404270744933080000016568115016299293851_);enable-background:new    ;">
		
			<use xlink:href="#Logo-feuille-tilleul"  width="105.2" height="92.3" x="-52.6" y="-46.2" transform="matrix(-6.502023e-02 5.557264e-02 5.496301e-02 6.430695e-02 333.2187 25.4769)" style="overflow:visible;"/>
	</g>
</g>
<g>
	<defs>
		
			<rect id="SVGID_00000129908085517813336750000014881641186368896146_" x="322.1" y="31.8" transform="matrix(0.3335 -0.9428 0.9428 0.3335 184.039 331.6939)" width="9" height="7.8"/>
	</defs>
	<clipPath id="SVGID_00000157310446514186960310000002467546874960857023_">
		<use xlink:href="#SVGID_00000129908085517813336750000014881641186368896146_"  style="overflow:visible;"/>
	</clipPath>
	
		<g transform="matrix(1 0 0 1 0 -7.629395e-06)" style="clip-path:url(#SVGID_00000157310446514186960310000002467546874960857023_);enable-background:new    ;">
		
			<use xlink:href="#Logo-feuille-tilleul"  width="105.2" height="92.3" x="-52.6" y="-46.2" transform="matrix(-2.852285e-02 8.063743e-02 7.975283e-02 2.820995e-02 326.5964 35.6908)" style="overflow:visible;"/>
	</g>
</g>
<g>
	<defs>
		
			<rect id="SVGID_00000039826826959835087180000006142981416885069241_" x="322.1" y="43.3" transform="matrix(0.9832 -0.1826 0.1826 0.9832 -3.2566 60.3221)" width="7.8" height="9"/>
	</defs>
	<clipPath id="SVGID_00000018226180143032580770000003005488568262550458_">
		<use xlink:href="#SVGID_00000039826826959835087180000006142981416885069241_"  style="overflow:visible;"/>
	</clipPath>
	
		<g transform="matrix(1 1.490116e-08 0 1 0 3.814697e-06)" style="clip-path:url(#SVGID_00000018226180143032580770000003005488568262550458_);enable-background:new    ;">
		
			<use xlink:href="#Logo-feuille-tilleul"  width="105.2" height="92.3" x="-52.6" y="-46.2" transform="matrix(1.561721e-02 8.409549e-02 8.317295e-02 -1.544589e-02 325.9682 47.8474)" style="overflow:visible;"/>
	</g>
</g>
<g>
	<defs>
		
			<rect id="SVGID_00000145776621410760354720000002688403304699909534_" x="327.6" y="54.2" transform="matrix(0.7602 -0.6497 0.6497 0.7602 41.3728 229.4596)" width="7.8" height="9"/>
	</defs>
	<clipPath id="SVGID_00000169525486036932196650000018225596426625278650_">
		<use xlink:href="#SVGID_00000145776621410760354720000002688403304699909534_"  style="overflow:visible;"/>
	</clipPath>
	
		<g transform="matrix(1 0 2.980232e-08 1 0 1.144409e-05)" style="clip-path:url(#SVGID_00000169525486036932196650000018225596426625278650_);enable-background:new    ;">
		
			<use xlink:href="#Logo-feuille-tilleul"  width="105.2" height="92.3" x="-52.6" y="-46.2" transform="matrix(5.557264e-02 6.502023e-02 6.430695e-02 -5.496301e-02 331.5026 58.6893)" style="overflow:visible;"/>
	</g>
</g>
<g>
	<defs>
		
			<rect id="SVGID_00000089548729649281923750000007380215687637082249_" x="366.8" y="46.3" transform="matrix(0.3335 -0.9428 0.9428 0.3335 200.1878 383.5337)" width="9" height="7.8"/>
	</defs>
	<clipPath id="SVGID_00000089561644311675695950000002481830553457105343_">
		<use xlink:href="#SVGID_00000089548729649281923750000007380215687637082249_"  style="overflow:visible;"/>
	</clipPath>
	<g style="clip-path:url(#SVGID_00000089561644311675695950000002481830553457105343_);enable-background:new    ;">
		
			<use xlink:href="#Logo-feuille-tilleul"  width="105.2" height="92.3" x="-52.6" y="-46.2" transform="matrix(2.852285e-02 -8.063743e-02 -7.975283e-02 -2.820995e-02 371.3374 50.1916)" style="overflow:visible;"/>
	</g>
</g>
<g>
	<defs>
		
			<rect id="SVGID_00000156547932191635260450000011427407788284726688_" x="368.1" y="33.5" transform="matrix(0.9832 -0.1826 0.1826 0.9832 -0.692 68.5547)" width="7.8" height="9"/>
	</defs>
	<clipPath id="SVGID_00000142868103883172628660000018273862837545164937_">
		<use xlink:href="#SVGID_00000156547932191635260450000011427407788284726688_"  style="overflow:visible;"/>
	</clipPath>
	
		<g transform="matrix(1 1.490116e-08 0 1 0 3.814697e-06)" style="clip-path:url(#SVGID_00000142868103883172628660000018273862837545164937_);enable-background:new    ;">
		
			<use xlink:href="#Logo-feuille-tilleul"  width="105.2" height="92.3" x="-52.6" y="-46.2" transform="matrix(-1.561721e-02 -8.409549e-02 -8.317295e-02 1.544589e-02 371.9655 38.035)" style="overflow:visible;"/>
	</g>
</g>
<g>
	<defs>
		
			<rect id="SVGID_00000168103662970428492420000012084631383633465019_" x="362.5" y="22.7" transform="matrix(0.7602 -0.6497 0.6497 0.7602 70.2103 244.5981)" width="7.8" height="9"/>
	</defs>
	<clipPath id="SVGID_00000034062542714436871950000017249886674264435873_">
		<use xlink:href="#SVGID_00000168103662970428492420000012084631383633465019_"  style="overflow:visible;"/>
	</clipPath>
	
		<g transform="matrix(1 0 2.980232e-08 1 0 5.722046e-06)" style="clip-path:url(#SVGID_00000034062542714436871950000017249886674264435873_);enable-background:new    ;">
		
			<use xlink:href="#Logo-feuille-tilleul"  width="105.2" height="92.3" x="-52.6" y="-46.2" transform="matrix(-5.557264e-02 -6.502023e-02 -6.430695e-02 5.496301e-02 366.4312 27.193)" style="overflow:visible;"/>
	</g>
</g>
<g>
	<defs>
		
			<rect id="SVGID_00000168818213004365093270000010416061358014097032_" x="352.3" y="16.1" transform="matrix(0.3335 -0.9428 0.9428 0.3335 218.0333 349.5393)" width="7.8" height="9"/>
	</defs>
	<clipPath id="SVGID_00000114793605499649583620000012431619082045407894_">
		<use xlink:href="#SVGID_00000168818213004365093270000010416061358014097032_"  style="overflow:visible;"/>
	</clipPath>
	
		<g transform="matrix(1 0 0 1 3.051758e-05 0)" style="clip-path:url(#SVGID_00000114793605499649583620000012431619082045407894_);enable-background:new    ;">
		
			<use xlink:href="#Logo-feuille-tilleul"  width="105.2" height="92.3" x="-52.6" y="-46.2" transform="matrix(-8.063743e-02 -2.852285e-02 -2.820995e-02 7.975283e-02 356.2173 20.5707)" style="overflow:visible;"/>
	</g>
</g>
</svg>
