<?xml version="1.0" encoding="utf-8"?>
<!-- Generator: Adobe Illustrator 27.2.0, SVG Export Plug-In . SVG Version: 6.00 Build 0)  -->
<svg version="1.1" id="Calque_2_00000049916952226113363400000003123003197317003941_"
	 xmlns="http://www.w3.org/2000/svg" xmlns:xlink="http://www.w3.org/1999/xlink" x="0px" y="0px" viewBox="0 0 713.8 142"
	 style="enable-background:new 0 0 713.8 142;" xml:space="preserve">
<style type="text/css">
	.st0{fill:#97C22A;}
	.st1{fill:#68B437;}
	.st2{fill:#4D1A5F;}
	.st3{fill:#F9B318;}
	.st4{fill:#EC661B;}
</style>
<symbol  id="Logo-feuille-tilleul" viewBox="-52.6 -46.2 105.2 92.3">
	<path class="st0" d="M-0.1,29.5c38,30.3,52.7,12.3,52.7,0.1c-0.5-28.9-31-75.8-52.7-75.8L-0.1,29.5z"/>
	<path class="st1" d="M0.1,29.5c-38,30.3-52.7,12.3-52.7,0.1c0.5-28.9,31-75.8,52.7-75.8L0.1,29.5z"/>
</symbol>
<g>
	<path class="st2" d="M343.5,142.1c-146.6,0-288-15.5-343.4-38.1c12.3-0.4,24.6-3,36.5-3.7c92.7,16.7,192.7,25,301.4,25
		c97.8,0,185.4-10,267.8-30.6c8.4-2.1,28.9-8.8,45.5-16.2c14.5-6,40.5-19.4,29.2-30.7c-4.4-4.4-14.3-10.5-22.2-13.1
		c22.6,3,44.3,18.2,49.4,23.3c6.8,6.8,7.4,15.9,0.7,23.6c-14.1,14.8-56.5,30.7-111.7,38.6C536.9,132.6,451.3,142.1,343.5,142.1z"/>
</g>
<g>
	<defs>
		<rect id="SVGID_1_" x="602.2" y="1.3" width="11" height="9.6"/>
	</defs>
	<clipPath id="SVGID_00000181781951619458091970000014231711254455354769_">
		<use xlink:href="#SVGID_1_"  style="overflow:visible;"/>
	</clipPath>
	<g transform="matrix(1 0 0 1 0 0)" style="clip-path:url(#SVGID_00000181781951619458091970000014231711254455354769_);">
		
			<use xlink:href="#Logo-feuille-tilleul"  width="105.2" height="92.3" x="-52.6" y="-46.2" transform="matrix(-0.1046 0 0 0.1034 607.6893 6.0899)" style="overflow:visible;"/>
	</g>
</g>
<g>
	<path class="st3" d="M611.5,74.6L599,66.3c-1.6-1.1-3.8-0.6-4.8,1l2.9,1.9l2.9,1.9l11.5,7.6L611.5,74.6L611.5,74.6z"/>
	<path class="st4" d="M610.4,78L600,71.1l-2.9-1.9l-2.9-1.9c-1.1,1.6-0.6,3.8,1,4.8l15.2,10L610.4,78L610.4,78z"/>
</g>
<g>
	<path class="st3" d="M607.9,63.8l12.5-8.3c1.6-1.1,3.8-0.6,4.8,1l-2.9,1.9l-2.9,1.9l-11.5,7.6L607.9,63.8L607.9,63.8z"/>
	<path class="st4" d="M609.1,67.1l10.4-6.9l2.9-1.9l2.9-1.9c1.1,1.6,0.6,3.8-1,4.8l-15.2,10L609.1,67.1L609.1,67.1z"/>
</g>
<g>
	<path class="st4" d="M609.8,103v-1.1l0,0V46v-3.1v-3.1c-1.9,0-3.5,1.4-3.5,3.1v43.9V103c0,1.7,1.6,3.1,3.5,3.1V103z"/>
	<path class="st3" d="M613.3,42.9c0-1.7-1.6-3.1-3.5-3.1v3.1V46v53.9v3.1v3.1c1.9,0,3.5-1.4,3.5-3.1v-1.1l0,0V42.9z"/>
</g>
<g>
	<defs>
		
			<rect id="SVGID_00000095330629163904422830000002754917674037713282_" x="602.7" y="-0.8" transform="matrix(4.017235e-03 -1 1 4.017235e-03 600.1254 615.0873)" width="12.2" height="14.1"/>
	</defs>
	<clipPath id="SVGID_00000183940278399588353570000010449700526427120020_">
		<use xlink:href="#SVGID_00000095330629163904422830000002754917674037713282_"  style="overflow:visible;"/>
	</clipPath>
	
		<g transform="matrix(1 0 4.656613e-10 1 6.103516e-05 0)" style="clip-path:url(#SVGID_00000183940278399588353570000010449700526427120020_);enable-background:new    ;">
		
			<use xlink:href="#Logo-feuille-tilleul"  width="105.2" height="92.3" x="-52.6" y="-46.2" transform="matrix(-0.1338 -5.375103e-04 -5.316138e-04 0.1324 608.8443 6.2692)" style="overflow:visible;"/>
	</g>
</g>
<g>
	<defs>
		
			<rect id="SVGID_00000097465563595559051470000005166932111675061665_" x="583.5" y="5.5" transform="matrix(0.8681 -0.4965 0.4965 0.8681 72.1519 294.723)" width="14.1" height="12.2"/>
	</defs>
	<clipPath id="SVGID_00000142897989561161296250000002235429436609029276_">
		<use xlink:href="#SVGID_00000097465563595559051470000005166932111675061665_"  style="overflow:visible;"/>
	</clipPath>
	<g style="clip-path:url(#SVGID_00000142897989561161296250000002235429436609029276_);enable-background:new    ;">
		
			<use xlink:href="#Logo-feuille-tilleul"  width="105.2" height="92.3" x="-52.6" y="-46.2" transform="matrix(-0.1162 6.645692e-02 6.572788e-02 0.1149 590.5607 11.6128)" style="overflow:visible;"/>
	</g>
</g>
<g>
	<defs>
		
			<rect id="SVGID_00000154392851984240677480000017846878492796318620_" x="570.4" y="19.3" transform="matrix(0.5036 -0.8639 0.8639 0.5036 264.6818 511.433)" width="14.1" height="12.2"/>
	</defs>
	<clipPath id="SVGID_00000111150073406512808000000009023409100799638146_">
		<use xlink:href="#SVGID_00000154392851984240677480000017846878492796318620_"  style="overflow:visible;"/>
	</clipPath>
	
		<g transform="matrix(1 2.980232e-08 0 1 0 -1.335144e-05)" style="clip-path:url(#SVGID_00000111150073406512808000000009023409100799638146_);enable-background:new    ;">
		
			<use xlink:href="#Logo-feuille-tilleul"  width="105.2" height="92.3" x="-52.6" y="-46.2" transform="matrix(-6.738792e-02 0.1156 0.1144 6.664866e-02 577.3983 25.3823)" style="overflow:visible;"/>
	</g>
</g>
<g>
	<defs>
		
			<rect id="SVGID_00000137842969952652056750000005634573812765841589_" x="565.9" y="37.8" transform="matrix(4.017235e-03 -1 1 4.017235e-03 526.6987 616.5955)" width="14.1" height="12.2"/>
	</defs>
	<clipPath id="SVGID_00000046302443104436156140000009564307272335174040_">
		<use xlink:href="#SVGID_00000137842969952652056750000005634573812765841589_"  style="overflow:visible;"/>
	</clipPath>
	
		<g transform="matrix(1 -4.656613e-10 0 1 0 0)" style="clip-path:url(#SVGID_00000046302443104436156140000009564307272335174040_);enable-background:new    ;">
		
			<use xlink:href="#Logo-feuille-tilleul"  width="105.2" height="92.3" x="-52.6" y="-46.2" transform="matrix(-5.375103e-04 0.1338 0.1324 5.316138e-04 572.8842 43.8883)" style="overflow:visible;"/>
	</g>
</g>
<g>
	<defs>
		
			<rect id="SVGID_00000054965039032922279490000014222631630570922678_" x="572.1" y="55.1" transform="matrix(0.8681 -0.4965 0.4965 0.8681 45.427 295.271)" width="12.2" height="14.1"/>
	</defs>
	<clipPath id="SVGID_00000034074429796118774730000001533183757346696337_">
		<use xlink:href="#SVGID_00000054965039032922279490000014222631630570922678_"  style="overflow:visible;"/>
	</clipPath>
	
		<g transform="matrix(1 0 0 1 0 -2.288818e-05)" style="clip-path:url(#SVGID_00000034074429796118774730000001533183757346696337_);enable-background:new    ;">
		
			<use xlink:href="#Logo-feuille-tilleul"  width="105.2" height="92.3" x="-52.6" y="-46.2" transform="matrix(6.645692e-02 0.1162 0.1149 -6.572788e-02 578.2277 62.1719)" style="overflow:visible;"/>
	</g>
</g>
<g>
	<defs>
		
			<rect id="SVGID_00000163055774920428169470000011257745172612560318_" x="621.7" y="68.4" transform="matrix(0.8681 -0.4965 0.4965 0.8681 45.975 321.996)" width="14.1" height="12.2"/>
	</defs>
	<clipPath id="SVGID_00000013158479779520908620000003124029952293470855_">
		<use xlink:href="#SVGID_00000163055774920428169470000011257745172612560318_"  style="overflow:visible;"/>
	</clipPath>
	
		<g transform="matrix(1 0 0 1 0 7.629395e-06)" style="clip-path:url(#SVGID_00000013158479779520908620000003124029952293470855_);enable-background:new    ;">
		
			<use xlink:href="#Logo-feuille-tilleul"  width="105.2" height="92.3" x="-52.6" y="-46.2" transform="matrix(0.1162 -6.645692e-02 -6.572788e-02 -0.1149 628.7869 74.5048)" style="overflow:visible;"/>
	</g>
</g>
<g>
	<defs>
		
			<rect id="SVGID_00000077309735357150882380000006205413139611735194_" x="634.9" y="54.6" transform="matrix(0.5036 -0.8639 0.8639 0.5036 266.1813 584.7409)" width="14.1" height="12.2"/>
	</defs>
	<clipPath id="SVGID_00000121242775394005744910000014905661218431840190_">
		<use xlink:href="#SVGID_00000077309735357150882380000006205413139611735194_"  style="overflow:visible;"/>
	</clipPath>
	
		<g transform="matrix(1 2.980232e-08 0 1 6.103516e-05 3.051758e-05)" style="clip-path:url(#SVGID_00000121242775394005744910000014905661218431840190_);enable-background:new    ;">
		
			<use xlink:href="#Logo-feuille-tilleul"  width="105.2" height="92.3" x="-52.6" y="-46.2" transform="matrix(6.738792e-02 -0.1156 -0.1144 -6.664866e-02 641.9492 60.7353)" style="overflow:visible;"/>
	</g>
</g>
<g>
	<defs>
		
			<rect id="SVGID_00000165946779077006127070000003947105064825301123_" x="639.4" y="36.1" transform="matrix(4.017235e-03 -1 1 4.017235e-03 601.6335 688.514)" width="14.1" height="12.2"/>
	</defs>
	<clipPath id="SVGID_00000024690770603549266280000012137511219471803836_">
		<use xlink:href="#SVGID_00000165946779077006127070000003947105064825301123_"  style="overflow:visible;"/>
	</clipPath>
	
		<g transform="matrix(1 -4.656613e-10 0 1 0 3.814697e-06)" style="clip-path:url(#SVGID_00000024690770603549266280000012137511219471803836_);enable-background:new    ;">
		
			<use xlink:href="#Logo-feuille-tilleul"  width="105.2" height="92.3" x="-52.6" y="-46.2" transform="matrix(5.375103e-04 -0.1338 -0.1324 -5.316138e-04 646.4634 42.2294)" style="overflow:visible;"/>
	</g>
</g>
<g>
	<defs>
		
			<rect id="SVGID_00000166662039108795878310000003415366392039008954_" x="635" y="16.9" transform="matrix(0.8681 -0.4965 0.4965 0.8681 72.6999 321.4479)" width="12.2" height="14.1"/>
	</defs>
	<clipPath id="SVGID_00000020360240907806947190000010556758077966778267_">
		<use xlink:href="#SVGID_00000166662039108795878310000003415366392039008954_"  style="overflow:visible;"/>
	</clipPath>
	
		<g transform="matrix(1 0 0 1 6.103516e-05 -1.907349e-06)" style="clip-path:url(#SVGID_00000020360240907806947190000010556758077966778267_);enable-background:new    ;">
		
			<use xlink:href="#Logo-feuille-tilleul"  width="105.2" height="92.3" x="-52.6" y="-46.2" transform="matrix(-6.645692e-02 -0.1162 -0.1149 6.572788e-02 641.1198 23.9458)" style="overflow:visible;"/>
	</g>
</g>
<g>
	<defs>
		
			<rect id="SVGID_00000168113139406255008960000006646632168026919339_" x="621.2" y="3.7" transform="matrix(0.5036 -0.8639 0.8639 0.5036 302.0855 547.3372)" width="12.2" height="14.1"/>
	</defs>
	<clipPath id="SVGID_00000178169928467439119580000001449249152331967384_">
		<use xlink:href="#SVGID_00000168113139406255008960000006646632168026919339_"  style="overflow:visible;"/>
	</clipPath>
	
		<g transform="matrix(1 0 -2.980232e-08 1 0 -9.536743e-06)" style="clip-path:url(#SVGID_00000178169928467439119580000001449249152331967384_);enable-background:new    ;">
		
			<use xlink:href="#Logo-feuille-tilleul"  width="105.2" height="92.3" x="-52.6" y="-46.2" transform="matrix(-0.1156 -6.738792e-02 -6.664866e-02 0.1144 627.3503 10.7834)" style="overflow:visible;"/>
	</g>
</g>
<g>
	<defs>
		
			<rect id="SVGID_00000137853116661972675040000005864086423047375013_" x="599.3" y="16" transform="matrix(0.9832 -0.1826 0.1826 0.9832 6.5087 110.5858)" width="9" height="7.8"/>
	</defs>
	<clipPath id="SVGID_00000054242703254591371190000004426673222662065583_">
		<use xlink:href="#SVGID_00000137853116661972675040000005864086423047375013_"  style="overflow:visible;"/>
	</clipPath>
	
		<g transform="matrix(1 0 -1.490116e-08 1 0 3.814697e-06)" style="clip-path:url(#SVGID_00000054242703254591371190000004426673222662065583_);enable-background:new    ;">
		
			<use xlink:href="#Logo-feuille-tilleul"  width="105.2" height="92.3" x="-52.6" y="-46.2" transform="matrix(-8.409549e-02 1.561721e-02 1.544589e-02 8.317295e-02 603.8264 19.9426)" style="overflow:visible;"/>
	</g>
</g>
<g>
	<defs>
		
			<rect id="SVGID_00000164482036060978129140000013510963851013920672_" x="588.5" y="21.6" transform="matrix(0.7602 -0.6497 0.6497 0.7602 125.6592 391.3849)" width="9" height="7.8"/>
	</defs>
	<clipPath id="SVGID_00000091721087853213207060000018175149297314470034_">
		<use xlink:href="#SVGID_00000164482036060978129140000013510963851013920672_"  style="overflow:visible;"/>
	</clipPath>
	
		<g transform="matrix(1 -2.980232e-08 0 1 0 -1.907349e-05)" style="clip-path:url(#SVGID_00000091721087853213207060000018175149297314470034_);enable-background:new    ;">
		
			<use xlink:href="#Logo-feuille-tilleul"  width="105.2" height="92.3" x="-52.6" y="-46.2" transform="matrix(-6.502023e-02 5.557264e-02 5.496301e-02 6.430695e-02 592.9844 25.4769)" style="overflow:visible;"/>
	</g>
</g>
<g>
	<defs>
		
			<rect id="SVGID_00000116195493159707349030000007644668442527413421_" x="581.9" y="31.8" transform="matrix(0.3335 -0.9428 0.9428 0.3335 357.1805 576.5908)" width="9" height="7.8"/>
	</defs>
	<clipPath id="SVGID_00000070113851348335779920000001944147655339239587_">
		<use xlink:href="#SVGID_00000116195493159707349030000007644668442527413421_"  style="overflow:visible;"/>
	</clipPath>
	
		<g transform="matrix(1 0 0 1 6.103516e-05 7.629395e-06)" style="clip-path:url(#SVGID_00000070113851348335779920000001944147655339239587_);enable-background:new    ;">
		
			<use xlink:href="#Logo-feuille-tilleul"  width="105.2" height="92.3" x="-52.6" y="-46.2" transform="matrix(-2.852285e-02 8.063743e-02 7.975283e-02 2.820995e-02 586.3621 35.6908)" style="overflow:visible;"/>
	</g>
</g>
<g>
	<defs>
		
			<rect id="SVGID_00000045593941331700939400000000576212222965544624_" x="581.8" y="43.3" transform="matrix(0.9832 -0.1826 0.1826 0.9832 1.1101 107.7517)" width="7.8" height="9"/>
	</defs>
	<clipPath id="SVGID_00000173872467363442386070000002911623182613176486_">
		<use xlink:href="#SVGID_00000045593941331700939400000000576212222965544624_"  style="overflow:visible;"/>
	</clipPath>
	
		<g transform="matrix(1 1.490116e-08 0 1 0 -3.814697e-06)" style="clip-path:url(#SVGID_00000173872467363442386070000002911623182613176486_);enable-background:new    ;">
		
			<use xlink:href="#Logo-feuille-tilleul"  width="105.2" height="92.3" x="-52.6" y="-46.2" transform="matrix(1.561721e-02 8.409549e-02 8.317295e-02 -1.544589e-02 585.7339 47.8474)" style="overflow:visible;"/>
	</g>
</g>
<g>
	<defs>
		
			<rect id="SVGID_00000164507184275806075790000000997331298452094091_" x="587.4" y="54.2" transform="matrix(0.7602 -0.6497 0.6497 0.7602 103.6713 398.2344)" width="7.8" height="9"/>
	</defs>
	<clipPath id="SVGID_00000052078467584313803430000002137835694257417092_">
		<use xlink:href="#SVGID_00000164507184275806075790000000997331298452094091_"  style="overflow:visible;"/>
	</clipPath>
	
		<g transform="matrix(1 0 2.980232e-08 1 0 -1.907349e-05)" style="clip-path:url(#SVGID_00000052078467584313803430000002137835694257417092_);enable-background:new    ;">
		
			<use xlink:href="#Logo-feuille-tilleul"  width="105.2" height="92.3" x="-52.6" y="-46.2" transform="matrix(5.557264e-02 6.502023e-02 6.430695e-02 -5.496301e-02 591.2683 58.6893)" style="overflow:visible;"/>
	</g>
</g>
<g>
	<defs>
		
			<rect id="SVGID_00000064351340513327238400000009299261906108486279_" x="626.6" y="46.3" transform="matrix(0.3335 -0.9428 0.9428 0.3335 373.3293 628.4305)" width="9" height="7.8"/>
	</defs>
	<clipPath id="SVGID_00000162322617646366573280000018195951251273402043_">
		<use xlink:href="#SVGID_00000064351340513327238400000009299261906108486279_"  style="overflow:visible;"/>
	</clipPath>
	
		<g transform="matrix(1 0 0 1 0 -7.629395e-06)" style="clip-path:url(#SVGID_00000162322617646366573280000018195951251273402043_);enable-background:new    ;">
		
			<use xlink:href="#Logo-feuille-tilleul"  width="105.2" height="92.3" x="-52.6" y="-46.2" transform="matrix(2.852285e-02 -8.063743e-02 -7.975283e-02 -2.820995e-02 631.1031 50.1916)" style="overflow:visible;"/>
	</g>
</g>
<g>
	<defs>
		
			<rect id="SVGID_00000072995618483363799160000007267175656460509608_" x="627.8" y="33.5" transform="matrix(0.9832 -0.1826 0.1826 0.9832 3.6747 115.9844)" width="7.8" height="9"/>
	</defs>
	<clipPath id="SVGID_00000125594390824117764520000013338253711657256350_">
		<use xlink:href="#SVGID_00000072995618483363799160000007267175656460509608_"  style="overflow:visible;"/>
	</clipPath>
	
		<g transform="matrix(1 1.490116e-08 0 1 0 -3.814697e-06)" style="clip-path:url(#SVGID_00000125594390824117764520000013338253711657256350_);enable-background:new    ;">
		
			<use xlink:href="#Logo-feuille-tilleul"  width="105.2" height="92.3" x="-52.6" y="-46.2" transform="matrix(-1.561721e-02 -8.409549e-02 -8.317295e-02 1.544589e-02 631.7313 38.035)" style="overflow:visible;"/>
	</g>
</g>
<g>
	<defs>
		
			<rect id="SVGID_00000170997020671702831590000007867210918845995937_" x="622.3" y="22.7" transform="matrix(0.7602 -0.6497 0.6497 0.7602 132.5088 413.3729)" width="7.8" height="9"/>
	</defs>
	<clipPath id="SVGID_00000145748217179364047490000010428253735730146459_">
		<use xlink:href="#SVGID_00000170997020671702831590000007867210918845995937_"  style="overflow:visible;"/>
	</clipPath>
	
		<g transform="matrix(1 0 2.980232e-08 1 -6.103516e-05 -9.536743e-06)" style="clip-path:url(#SVGID_00000145748217179364047490000010428253735730146459_);enable-background:new    ;">
		
			<use xlink:href="#Logo-feuille-tilleul"  width="105.2" height="92.3" x="-52.6" y="-46.2" transform="matrix(-5.557264e-02 -6.502023e-02 -6.430695e-02 5.496301e-02 626.1968 27.193)" style="overflow:visible;"/>
	</g>
</g>
<g>
	<defs>
		
			<rect id="SVGID_00000026863671974499398010000011404952230423706532_" x="612.1" y="16.1" transform="matrix(0.3335 -0.9428 0.9428 0.3335 391.1748 594.4362)" width="7.8" height="9"/>
	</defs>
	<clipPath id="SVGID_00000084502735197560385650000004755335255416909999_">
		<use xlink:href="#SVGID_00000026863671974499398010000011404952230423706532_"  style="overflow:visible;"/>
	</clipPath>
	
		<g transform="matrix(1 0 0 1 0 7.629395e-06)" style="clip-path:url(#SVGID_00000084502735197560385650000004755335255416909999_);enable-background:new    ;">
		
			<use xlink:href="#Logo-feuille-tilleul"  width="105.2" height="92.3" x="-52.6" y="-46.2" transform="matrix(-8.063743e-02 -2.852285e-02 -2.820995e-02 7.975283e-02 615.983 20.5707)" style="overflow:visible;"/>
	</g>
</g>
<g>
	<path class="st2" d="M319.1-262.9c-185.7,0-349.4-19-435-38.7c15.6-0.4,31-0.9,46.1-1.6c117.8,12.7,244.2,25.1,381.9,25.1
		c123.9,0,234.9-10,339.3-30.7c10.7-2.1,34.8-9.7,55-18.1c26.9-11.3,40.2-21,39.7-28.9c-0.3-4.7-5.4-8.3-15.4-10.9
		c28.6,3,47.5,9.5,51,18.2c1.6,4-0.2,8.5-5.4,13.5c-24,23-68.6,39.9-136.3,51.9C563.6-269.8,455.7-262.9,319.1-262.9z"/>
	<path class="st2" d="M742-364c23.4,3.6,36,9.8,38.5,15.9c1.4,3.4-0.4,7.4-5.1,12c-11.3,10.8-27.7,20.4-48.7,28.7
		c-22.9,9-52.1,16.7-86.9,22.8c-76.3,13.4-184.2,20.2-320.7,20.2c-88,0-178.2-4.3-260.9-12.5c-62.8-6.2-119.5-14.5-162.7-23.7
		c11.7-0.4,23.2-0.8,34.6-1.2c117.8,12.7,244.2,25,381.9,25c124,0,235.1-10,339.6-30.7c10.8-2.1,35-9.7,55.3-18.2
		c41.6-17.3,40.9-27.1,40.6-30.3C747.3-359.1,745.5-361.7,742-364 M693.5-370c124.7,6.1-13.9,54.1-42.4,59.8
		c-115,22.7-230,30.6-339.1,30.6c-141.8,0-273.4-13.4-381.8-25.1c-18.5,0.8-37.6,1.4-57,1.9c87,21.7,257,41.3,445.9,41.3
		c290,0,413.7-30,458.2-72.5C800.8-356.5,757-370,693.5-370L693.5-370z"/>
</g>
<g>
	<defs>
		<rect id="SVGID_00000137818523641229580220000005667927474339604386_" x="643.2" y="-402" width="11" height="9.6"/>
	</defs>
	<clipPath id="SVGID_00000057849943250610939790000012618034945103977132_">
		<use xlink:href="#SVGID_00000137818523641229580220000005667927474339604386_"  style="overflow:visible;"/>
	</clipPath>
	<g transform="matrix(1 0 0 1 0 0)" style="clip-path:url(#SVGID_00000057849943250610939790000012618034945103977132_);">
		
			<use xlink:href="#Logo-feuille-tilleul"  width="105.2" height="92.3" x="-52.6" y="-46.2" transform="matrix(-0.1046 0 0 0.1034 648.7214 -397.2631)" style="overflow:visible;"/>
	</g>
</g>
<g>
	<path class="st3" d="M652.5-328.8l-12.5-8.3c-1.6-1.1-3.8-0.6-4.8,1l2.9,1.9l2.9,1.9l11.5,7.6L652.5-328.8L652.5-328.8z"/>
	<path class="st4" d="M651.4-325.4l-10.4-6.9l-2.9-1.9l-2.9-1.9c-1.1,1.6-0.6,3.8,1,4.8l15.2,10L651.4-325.4L651.4-325.4z"/>
</g>
<g>
	<path class="st3" d="M648.9-339.6l12.5-8.3c1.6-1.1,3.8-0.6,4.8,1l-2.9,1.9l-2.9,1.9l-11.5,7.6L648.9-339.6L648.9-339.6z"/>
	<path class="st4" d="M650.1-336.3l10.4-6.9l2.9-1.9l2.9-1.9c1.1,1.6,0.6,3.8-1,4.8l-15.2,10L650.1-336.3L650.1-336.3z"/>
</g>
<g>
	<path class="st4" d="M650.8-300.4v-1.1l0,0v-55.9v-3.1v-3.1c-1.9,0-3.5,1.4-3.5,3.1v43.9v16.2c0,1.7,1.6,3.1,3.5,3.1V-300.4z"/>
	<path class="st3" d="M654.3-360.5c0-1.7-1.6-3.1-3.5-3.1v3.1v3.1v53.9v3.1v3.1c1.9,0,3.5-1.4,3.5-3.1v-1.1l0,0V-360.5z"/>
</g>
<g>
	<defs>
		
			<rect id="SVGID_00000023279464825994071300000001772032300453129625_" x="643.8" y="-404.1" transform="matrix(4.017235e-03 -1 1 4.017235e-03 1044.3423 254.3865)" width="12.2" height="14.1"/>
	</defs>
	<clipPath id="SVGID_00000012439325770888406590000016978631417354428849_">
		<use xlink:href="#SVGID_00000023279464825994071300000001772032300453129625_"  style="overflow:visible;"/>
	</clipPath>
	
		<g transform="matrix(1 0 4.656613e-10 1 -6.103516e-05 0)" style="clip-path:url(#SVGID_00000012439325770888406590000016978631417354428849_);enable-background:new    ;">
		
			<use xlink:href="#Logo-feuille-tilleul"  width="105.2" height="92.3" x="-52.6" y="-46.2" transform="matrix(-0.1338 -5.375103e-04 -5.316138e-04 0.1324 649.8764 -397.0837)" style="overflow:visible;"/>
	</g>
</g>
<g>
	<defs>
		
			<rect id="SVGID_00000145059115437768293940000013111611551776290743_" x="624.6" y="-397.9" transform="matrix(0.8681 -0.4965 0.4965 0.8681 277.8141 261.8754)" width="14.1" height="12.2"/>
	</defs>
	<clipPath id="SVGID_00000160910848166198675360000002967101065339813533_">
		<use xlink:href="#SVGID_00000145059115437768293940000013111611551776290743_"  style="overflow:visible;"/>
	</clipPath>
	<g style="clip-path:url(#SVGID_00000160910848166198675360000002967101065339813533_);enable-background:new    ;">
		
			<use xlink:href="#Logo-feuille-tilleul"  width="105.2" height="92.3" x="-52.6" y="-46.2" transform="matrix(-0.1162 6.645692e-02 6.572788e-02 0.1149 631.5928 -391.7401)" style="overflow:visible;"/>
	</g>
</g>
<g>
	<defs>
		
			<rect id="SVGID_00000003097404563275139820000004506006109143583637_" x="611.4" y="-384.1" transform="matrix(0.5036 -0.8639 0.8639 0.5036 633.5167 346.6645)" width="14.1" height="12.2"/>
	</defs>
	<clipPath id="SVGID_00000153701437303191242300000005576433578641965464_">
		<use xlink:href="#SVGID_00000003097404563275139820000004506006109143583637_"  style="overflow:visible;"/>
	</clipPath>
	
		<g transform="matrix(1 2.980232e-08 0 1 -6.103516e-05 3.051758e-05)" style="clip-path:url(#SVGID_00000153701437303191242300000005576433578641965464_);enable-background:new    ;">
		
			<use xlink:href="#Logo-feuille-tilleul"  width="105.2" height="92.3" x="-52.6" y="-46.2" transform="matrix(-6.738792e-02 0.1156 0.1144 6.664866e-02 618.4305 -377.9706)" style="overflow:visible;"/>
	</g>
</g>
<g>
	<defs>
		
			<rect id="SVGID_00000003085344247549660600000004707351520354732216_" x="606.9" y="-365.6" transform="matrix(4.017235e-03 -1 1 4.017235e-03 970.9157 255.8947)" width="14.1" height="12.2"/>
	</defs>
	<clipPath id="SVGID_00000005245418569817948800000016951861012232284566_">
		<use xlink:href="#SVGID_00000003085344247549660600000004707351520354732216_"  style="overflow:visible;"/>
	</clipPath>
	
		<g transform="matrix(1 -4.656613e-10 0 1 0 0)" style="clip-path:url(#SVGID_00000005245418569817948800000016951861012232284566_);enable-background:new    ;">
		
			<use xlink:href="#Logo-feuille-tilleul"  width="105.2" height="92.3" x="-52.6" y="-46.2" transform="matrix(-5.375103e-04 0.1338 0.1324 5.316138e-04 613.9163 -359.4647)" style="overflow:visible;"/>
	</g>
</g>
<g>
	<defs>
		
			<rect id="SVGID_00000135676398919200145820000014223497559484285853_" x="613.1" y="-348.2" transform="matrix(0.8681 -0.4965 0.4965 0.8681 251.0891 262.4234)" width="12.2" height="14.1"/>
	</defs>
	<clipPath id="SVGID_00000112610170074315864200000012491977584337403018_">
		<use xlink:href="#SVGID_00000135676398919200145820000014223497559484285853_"  style="overflow:visible;"/>
	</clipPath>
	
		<g transform="matrix(1 0 0 1 6.103516e-05 0)" style="clip-path:url(#SVGID_00000112610170074315864200000012491977584337403018_);enable-background:new    ;">
		
			<use xlink:href="#Logo-feuille-tilleul"  width="105.2" height="92.3" x="-52.6" y="-46.2" transform="matrix(6.645692e-02 0.1162 0.1149 -6.572788e-02 619.2599 -341.181)" style="overflow:visible;"/>
	</g>
</g>
<g>
	<defs>
		
			<rect id="SVGID_00000160155833919427369050000005480698744661488791_" x="662.8" y="-335" transform="matrix(0.8681 -0.4965 0.4965 0.8681 251.6372 289.1483)" width="14.1" height="12.2"/>
	</defs>
	<clipPath id="SVGID_00000038391210030883771930000006042573944646780828_">
		<use xlink:href="#SVGID_00000160155833919427369050000005480698744661488791_"  style="overflow:visible;"/>
	</clipPath>
	<g style="clip-path:url(#SVGID_00000038391210030883771930000006042573944646780828_);enable-background:new    ;">
		
			<use xlink:href="#Logo-feuille-tilleul"  width="105.2" height="92.3" x="-52.6" y="-46.2" transform="matrix(0.1162 -6.645692e-02 -6.572788e-02 -0.1149 669.8191 -328.8482)" style="overflow:visible;"/>
	</g>
</g>
<g>
	<defs>
		
			<rect id="SVGID_00000114771433239112810960000003479086396936066214_" x="675.9" y="-348.7" transform="matrix(0.5036 -0.8639 0.8639 0.5036 635.0163 419.9725)" width="14.1" height="12.2"/>
	</defs>
	<clipPath id="SVGID_00000007426555074548319680000003011744409155966621_">
		<use xlink:href="#SVGID_00000114771433239112810960000003479086396936066214_"  style="overflow:visible;"/>
	</clipPath>
	
		<g transform="matrix(1 2.980232e-08 0 1 0 -3.051758e-05)" style="clip-path:url(#SVGID_00000007426555074548319680000003011744409155966621_);enable-background:new    ;">
		
			<use xlink:href="#Logo-feuille-tilleul"  width="105.2" height="92.3" x="-52.6" y="-46.2" transform="matrix(6.738792e-02 -0.1156 -0.1144 -6.664866e-02 682.9813 -342.6177)" style="overflow:visible;"/>
	</g>
</g>
<g>
	<defs>
		
			<rect id="SVGID_00000009576237343151104510000017502739081492028830_" x="680.5" y="-367.2" transform="matrix(4.017235e-03 -1 1 4.017235e-03 1045.8505 327.8133)" width="14.1" height="12.2"/>
	</defs>
	<clipPath id="SVGID_00000179621927386326289360000007765724229089081249_">
		<use xlink:href="#SVGID_00000009576237343151104510000017502739081492028830_"  style="overflow:visible;"/>
	</clipPath>
	
		<g transform="matrix(1 -4.656613e-10 0 1 0 0)" style="clip-path:url(#SVGID_00000179621927386326289360000007765724229089081249_);enable-background:new    ;">
		
			<use xlink:href="#Logo-feuille-tilleul"  width="105.2" height="92.3" x="-52.6" y="-46.2" transform="matrix(5.375103e-04 -0.1338 -0.1324 -5.316138e-04 687.4955 -361.1235)" style="overflow:visible;"/>
	</g>
</g>
<g>
	<defs>
		
			<rect id="SVGID_00000031200027363603566860000006896464670016114829_" x="676" y="-386.4" transform="matrix(0.8681 -0.4965 0.4965 0.8681 278.3621 288.6003)" width="12.2" height="14.1"/>
	</defs>
	<clipPath id="SVGID_00000154408338508284569180000013781565883550069377_">
		<use xlink:href="#SVGID_00000031200027363603566860000006896464670016114829_"  style="overflow:visible;"/>
	</clipPath>
	<g style="clip-path:url(#SVGID_00000154408338508284569180000013781565883550069377_);enable-background:new    ;">
		
			<use xlink:href="#Logo-feuille-tilleul"  width="105.2" height="92.3" x="-52.6" y="-46.2" transform="matrix(-6.645692e-02 -0.1162 -0.1149 6.572788e-02 682.1519 -379.4072)" style="overflow:visible;"/>
	</g>
</g>
<g>
	<defs>
		
			<rect id="SVGID_00000137820631999406774610000000755912160627761282_" x="662.3" y="-399.6" transform="matrix(0.5036 -0.8639 0.8639 0.5036 670.9205 382.5688)" width="12.2" height="14.1"/>
	</defs>
	<clipPath id="SVGID_00000034775696494503888660000013673112968530903454_">
		<use xlink:href="#SVGID_00000137820631999406774610000000755912160627761282_"  style="overflow:visible;"/>
	</clipPath>
	
		<g transform="matrix(1 0 -2.980232e-08 1 0 -3.051758e-05)" style="clip-path:url(#SVGID_00000034775696494503888660000013673112968530903454_);enable-background:new    ;">
		
			<use xlink:href="#Logo-feuille-tilleul"  width="105.2" height="92.3" x="-52.6" y="-46.2" transform="matrix(-0.1156 -6.738792e-02 -6.664866e-02 0.1144 668.3824 -392.5695)" style="overflow:visible;"/>
	</g>
</g>
<g>
	<defs>
		
			<rect id="SVGID_00000006670699576094975500000006445460296206040244_" x="640.4" y="-387.3" transform="matrix(0.9832 -0.1826 0.1826 0.9832 80.8452 111.2972)" width="9" height="7.8"/>
	</defs>
	<clipPath id="SVGID_00000081640415498626494100000017207761750095840418_">
		<use xlink:href="#SVGID_00000006670699576094975500000006445460296206040244_"  style="overflow:visible;"/>
	</clipPath>
	
		<g transform="matrix(1 0 -1.490116e-08 1 0 0)" style="clip-path:url(#SVGID_00000081640415498626494100000017207761750095840418_);enable-background:new    ;">
		
			<use xlink:href="#Logo-feuille-tilleul"  width="105.2" height="92.3" x="-52.6" y="-46.2" transform="matrix(-8.409549e-02 1.561721e-02 1.544589e-02 8.317295e-02 644.8585 -383.4104)" style="overflow:visible;"/>
	</g>
</g>
<g>
	<defs>
		
			<rect id="SVGID_00000013906394967105830670000001369606941807184054_" x="629.5" y="-381.8" transform="matrix(0.7602 -0.6497 0.6497 0.7602 397.5659 321.3098)" width="9" height="7.8"/>
	</defs>
	<clipPath id="SVGID_00000152955957947272443400000001406170570701115563_">
		<use xlink:href="#SVGID_00000013906394967105830670000001369606941807184054_"  style="overflow:visible;"/>
	</clipPath>
	
		<g transform="matrix(1 -2.980232e-08 0 1 0 0)" style="clip-path:url(#SVGID_00000152955957947272443400000001406170570701115563_);enable-background:new    ;">
		
			<use xlink:href="#Logo-feuille-tilleul"  width="105.2" height="92.3" x="-52.6" y="-46.2" transform="matrix(-6.502023e-02 5.557264e-02 5.496301e-02 6.430695e-02 634.0165 -377.876)" style="overflow:visible;"/>
	</g>
</g>
<g>
	<defs>
		
			<rect id="SVGID_00000013873563257706101960000017581467041317251997_" x="622.9" y="-371.6" transform="matrix(0.3335 -0.9428 0.9428 0.3335 764.7949 346.4276)" width="9" height="7.8"/>
	</defs>
	<clipPath id="SVGID_00000163072226755888339360000018068776520682741134_">
		<use xlink:href="#SVGID_00000013873563257706101960000017581467041317251997_"  style="overflow:visible;"/>
	</clipPath>
	
		<g transform="matrix(1 0 0 1 0 3.051758e-05)" style="clip-path:url(#SVGID_00000163072226755888339360000018068776520682741134_);enable-background:new    ;">
		
			<use xlink:href="#Logo-feuille-tilleul"  width="105.2" height="92.3" x="-52.6" y="-46.2" transform="matrix(-2.852285e-02 8.063743e-02 7.975283e-02 2.820995e-02 627.3942 -367.6622)" style="overflow:visible;"/>
	</g>
</g>
<g>
	<defs>
		
			<rect id="SVGID_00000150782302944814498570000015696008562187986078_" x="622.9" y="-360" transform="matrix(0.9832 -0.1826 0.1826 0.9832 75.4466 108.4632)" width="7.8" height="9"/>
	</defs>
	<clipPath id="SVGID_00000063615644213066283310000010830356367418552975_">
		<use xlink:href="#SVGID_00000150782302944814498570000015696008562187986078_"  style="overflow:visible;"/>
	</clipPath>
	
		<g transform="matrix(1 1.490116e-08 0 1 0 0)" style="clip-path:url(#SVGID_00000063615644213066283310000010830356367418552975_);enable-background:new    ;">
		
			<use xlink:href="#Logo-feuille-tilleul"  width="105.2" height="92.3" x="-52.6" y="-46.2" transform="matrix(1.561721e-02 8.409549e-02 8.317295e-02 -1.544589e-02 626.7661 -355.5056)" style="overflow:visible;"/>
	</g>
</g>
<g>
	<defs>
		
			<rect id="SVGID_00000134220528169526470730000011494477679875795857_" x="628.4" y="-349.2" transform="matrix(0.7602 -0.6497 0.6497 0.7602 375.578 328.1594)" width="7.8" height="9"/>
	</defs>
	<clipPath id="SVGID_00000005979288403917715860000015051799560099050393_">
		<use xlink:href="#SVGID_00000134220528169526470730000011494477679875795857_"  style="overflow:visible;"/>
	</clipPath>
	
		<g transform="matrix(1 0 2.980232e-08 1 0 0)" style="clip-path:url(#SVGID_00000005979288403917715860000015051799560099050393_);enable-background:new    ;">
		
			<use xlink:href="#Logo-feuille-tilleul"  width="105.2" height="92.3" x="-52.6" y="-46.2" transform="matrix(5.557264e-02 6.502023e-02 6.430695e-02 -5.496301e-02 632.3004 -344.6636)" style="overflow:visible;"/>
	</g>
</g>
<g>
	<defs>
		
			<rect id="SVGID_00000094583724293910825010000009555127378219690141_" x="667.6" y="-357.1" transform="matrix(0.3335 -0.9428 0.9428 0.3335 780.9437 398.2674)" width="9" height="7.8"/>
	</defs>
	<clipPath id="SVGID_00000155118195319836693300000009003245935147965852_">
		<use xlink:href="#SVGID_00000094583724293910825010000009555127378219690141_"  style="overflow:visible;"/>
	</clipPath>
	
		<g transform="matrix(1 0 0 1 0 -3.051758e-05)" style="clip-path:url(#SVGID_00000155118195319836693300000009003245935147965852_);enable-background:new    ;">
		
			<use xlink:href="#Logo-feuille-tilleul"  width="105.2" height="92.3" x="-52.6" y="-46.2" transform="matrix(2.852285e-02 -8.063743e-02 -7.975283e-02 -2.820995e-02 672.1353 -353.1613)" style="overflow:visible;"/>
	</g>
</g>
<g>
	<defs>
		
			<rect id="SVGID_00000130619097766099110560000014362947415983268007_" x="668.9" y="-369.8" transform="matrix(0.9832 -0.1826 0.1826 0.9832 78.0112 116.6959)" width="7.8" height="9"/>
	</defs>
	<clipPath id="SVGID_00000005233401093086030520000017513551908616940674_">
		<use xlink:href="#SVGID_00000130619097766099110560000014362947415983268007_"  style="overflow:visible;"/>
	</clipPath>
	
		<g transform="matrix(1 1.490116e-08 0 1 0 0)" style="clip-path:url(#SVGID_00000005233401093086030520000017513551908616940674_);enable-background:new    ;">
		
			<use xlink:href="#Logo-feuille-tilleul"  width="105.2" height="92.3" x="-52.6" y="-46.2" transform="matrix(-1.561721e-02 -8.409549e-02 -8.317295e-02 1.544589e-02 672.7634 -365.3179)" style="overflow:visible;"/>
	</g>
</g>
<g>
	<defs>
		
			<rect id="SVGID_00000101072040512543998690000015829134485800193185_" x="663.3" y="-380.7" transform="matrix(0.7602 -0.6497 0.6497 0.7602 404.4155 343.2978)" width="7.8" height="9"/>
	</defs>
	<clipPath id="SVGID_00000181767877463946103410000012360755836137797294_">
		<use xlink:href="#SVGID_00000101072040512543998690000015829134485800193185_"  style="overflow:visible;"/>
	</clipPath>
	
		<g transform="matrix(1 0 2.980232e-08 1 0 3.051758e-05)" style="clip-path:url(#SVGID_00000181767877463946103410000012360755836137797294_);enable-background:new    ;">
		
			<use xlink:href="#Logo-feuille-tilleul"  width="105.2" height="92.3" x="-52.6" y="-46.2" transform="matrix(-5.557264e-02 -6.502023e-02 -6.430695e-02 5.496301e-02 667.229 -376.1599)" style="overflow:visible;"/>
	</g>
</g>
<g>
	<defs>
		
			<rect id="SVGID_00000022540655589851120940000013491965140595199642_" x="653.1" y="-387.3" transform="matrix(0.3335 -0.9428 0.9428 0.3335 798.7892 364.2731)" width="7.8" height="9"/>
	</defs>
	<clipPath id="SVGID_00000147925995328396543830000017492706867674684294_">
		<use xlink:href="#SVGID_00000022540655589851120940000013491965140595199642_"  style="overflow:visible;"/>
	</clipPath>
	
		<g transform="matrix(1 0 0 1 0 3.051758e-05)" style="clip-path:url(#SVGID_00000147925995328396543830000017492706867674684294_);enable-background:new    ;">
		
			<use xlink:href="#Logo-feuille-tilleul"  width="105.2" height="92.3" x="-52.6" y="-46.2" transform="matrix(-8.063743e-02 -2.852285e-02 -2.820995e-02 7.975283e-02 657.0151 -382.7823)" style="overflow:visible;"/>
	</g>
</g>
</svg>
