<?xml version="1.0" encoding="utf-8"?>
<!-- Generator: Adobe Illustrator 27.2.0, SVG Export Plug-In . SVG Version: 6.00 Build 0)  -->
<svg version="1.1" id="Calque_2" xmlns="http://www.w3.org/2000/svg" xmlns:xlink="http://www.w3.org/1999/xlink" x="0px" y="0px"
	 viewBox="0 0 971.4 142" style="enable-background:new 0 0 971.4 142;" xml:space="preserve">
<style type="text/css">
	.st0{fill:#97C22A;}
	.st1{fill:#68B437;}
	.st2{display:none;}
	.st3{display:inline;fill:#FFFFFF;}
	.st4{display:inline;}
	.st5{fill:#4D1A5F;}
	.st6{fill:#F9B318;}
	.st7{fill:#EC661B;}
</style>
<symbol  id="Logo-feuille-tilleul" viewBox="-52.6 -46.2 105.2 92.4">
	<path class="st0" d="M-0.1,29.5c38,30.3,52.7,12.3,52.7,0.1c-0.5-28.9-31-75.8-52.7-75.8L-0.1,29.5z"/>
	<path class="st1" d="M0.1,29.5c-38,30.3-52.7,12.3-52.7,0.1c0.5-28.9,31-75.8,52.7-75.8L0.1,29.5z"/>
</symbol>
<g class="st2">
	<path class="st3" d="M341.1,463c-15.3-3.4-43.3-34.1-66.6-72.9c-15.3-25.4-49.3-89.6-36-138.4c9.1-39.9,49.7-66.6,103.4-68l0.1,0
		l0.1,0c53.8,1.5,94.4,28.1,103.4,68c13.3,48.8-20.7,113-36,138.4c-23.3,38.8-51.4,69.4-66.6,72.9l-0.9,0.2L341.1,463z"/>
	<path class="st4" d="M342,188c45.6,1.2,89.9,22.6,99.4,64.8c20,73.3-70.5,199.6-99.4,206.1c-28.9-6.5-119.4-132.8-99.4-206.1
		C252.1,210.6,296.4,189.2,342,188 M342,179.5l-0.2,0c-25,0.7-48.9,7.2-67.4,18.3c-21.2,12.7-35,31-40,53
		c-5.3,19.5-3.9,43.2,4.2,70.5c6.7,22.5,17.8,47.1,32.3,71.1c19.9,33,50,70.5,69.3,74.8l1.9,0.4l1.9-0.4
		c19.3-4.3,49.5-41.8,69.3-74.8c14.5-24,25.6-48.6,32.3-71.1c8.1-27.3,9.5-51,4.2-70.5c-5-22-18.9-40.3-40-53
		c-18.5-11.1-42.4-17.6-67.4-18.3L342,179.5L342,179.5z"/>
</g>
<path class="st5" d="M0.6,71.3c0,30.6,234,69.8,507,69.8c290,0,413.5-29.2,458-71.7c23.5-22.5-37-39.2-85-38.3
	c89,26.8-19.7,53.7-48,60.3C627.6,139.2,0.6,108.6,0.6,71.3z"/>
<g>
	<g>
		<g>
			<path class="st0" d="M837,9.1c-4,3.1-5.5,1.3-5.5,0c0.1-3,3.2-7.8,5.5-7.8L837,9.1z"/>
			<path class="st1" d="M836.9,9.1c4,3.1,5.5,1.3,5.5,0c-0.1-3-3.2-7.8-5.5-7.8L836.9,9.1z"/>
		</g>
	</g>
	
		<use xlink:href="#Logo-feuille-tilleul"  width="105.2" height="92.4" x="-52.6" y="-46.2" transform="matrix(8.385123e-02 -6.248482e-02 -6.179936e-02 -8.293137e-02 856.2205 76.032)" style="overflow:visible;"/>
	
		<use xlink:href="#Logo-feuille-tilleul"  width="105.2" height="92.4" x="-52.6" y="-46.2" transform="matrix(7.144983e-02 -7.635642e-02 -7.551878e-02 -7.066602e-02 868.188 63.9288)" style="overflow:visible;"/>
	
		<use xlink:href="#Logo-feuille-tilleul"  width="105.2" height="92.4" x="-52.6" y="-46.2" transform="matrix(1.376393e-02 -0.1037 -0.1025 -1.361294e-02 877.3777 51.615)" style="overflow:visible;"/>
	
		<use xlink:href="#Logo-feuille-tilleul"  width="105.2" height="92.4" x="-52.6" y="-46.2" transform="matrix(-7.507224e-02 -7.279794e-02 -7.199933e-02 7.424869e-02 870.9194 35.0098)" style="overflow:visible;"/>
	
		<use xlink:href="#Logo-feuille-tilleul"  width="105.2" height="92.4" x="-52.6" y="-46.2" transform="matrix(-9.901258e-02 -3.364357e-02 -3.327449e-02 9.792640e-02 863.8827 21.6346)" style="overflow:visible;"/>
	
		<use xlink:href="#Logo-feuille-tilleul"  width="105.2" height="92.4" x="-52.6" y="-46.2" transform="matrix(-0.1036 1.438817e-02 1.423033e-02 0.1024 850.3961 11.378)" style="overflow:visible;"/>
	
		<use xlink:href="#Logo-feuille-tilleul"  width="105.2" height="92.4" x="-52.6" y="-46.2" transform="matrix(-7.144983e-02 -7.635642e-02 7.551878e-02 -7.066602e-02 803.4467 66.2432)" style="overflow:visible;"/>
	<g>
		<g>
			<path class="st0" d="M799.2,51.2c2.6-4.4,0.5-5.6-0.7-5.5c-3,0.4-7.3,4.2-7,6.5L799.2,51.2z"/>
			<path class="st1" d="M799.2,51.2c3.6,3.5,2,5.3,0.7,5.5c-3,0.3-8.2-2.2-8.5-4.4L799.2,51.2z"/>
		</g>
	</g>
	<g>
		<g>
			<path class="st0" d="M804.8,37.2c5-0.5,4.8-2.9,4-3.8c-2.1-2.1-7.8-3.4-9.4-1.8L804.8,37.2z"/>
			<path class="st1" d="M804.8,37.2c-0.7,5-3.1,4.7-3.9,3.8c-2-2.2-3.1-7.9-1.5-9.5L804.8,37.2z"/>
		</g>
	</g>
	<g>
		<g>
			<path class="st1" d="M810.7,24.5c4.8,1.7,5.6-0.6,5.2-1.8c-1-2.8-5.6-6.4-7.7-5.6L810.7,24.5z"/>
			<path class="st0" d="M810.7,24.5c-2.8,4.2-4.8,3-5.2,1.8c-0.9-2.8,0.6-8.5,2.7-9.2L810.7,24.5z"/>
		</g>
	</g>
	<g>
		<g>
			<path class="st1" d="M822.7,14.4c3.5,3.7,5.3,2,5.5,0.8c0.4-3-2.1-8.2-4.4-8.5L822.7,14.4z"/>
			<path class="st0" d="M822.8,14.4c-4.4,2.6-5.6,0.5-5.5-0.7c0.5-3,4.3-7.3,6.5-7L822.8,14.4z"/>
		</g>
	</g>
	<g>
		<g>
			<path class="st0" d="M818.7,49.6c0.6-5-1.8-5.4-2.9-4.7c-2.5,1.6-5,6.9-3.8,8.8L818.7,49.6z"/>
			<path class="st1" d="M818.7,49.6c4.7,1.8,4,4,2.9,4.7c-2.6,1.5-8.4,1.3-9.6-0.6L818.7,49.6z"/>
		</g>
	</g>
	<g>
		<g>
			<path class="st0" d="M820.7,35.5c0.6,5-1.8,5.4-2.9,4.7c-2.5-1.6-5-6.9-3.8-8.8L820.7,35.5z"/>
			<path class="st1" d="M820.7,35.5c4.7-1.8,4-4,2.9-4.7c-2.6-1.5-8.4-1.3-9.6,0.6L820.7,35.5z"/>
		</g>
	</g>
	<g>
		<g>
			<path class="st1" d="M831.5,26.6c4.9,1.3,5.6-1,5.1-2.2c-1.2-2.7-6.1-5.9-8.2-5L831.5,26.6z"/>
			<path class="st0" d="M831.5,26.6c-2.4,4.5-4.5,3.4-5,2.2c-1.1-2.8-0.2-8.5,1.9-9.4L831.5,26.6z"/>
		</g>
	</g>
	<g>
		<g>
			<path class="st0" d="M857.1,49.6c-0.6-5,1.8-5.4,2.9-4.7c2.5,1.6,5,6.9,3.8,8.8L857.1,49.6z"/>
			<path class="st1" d="M857.1,49.6c-4.7,1.8-4,4-2.9,4.7c2.6,1.5,8.4,1.3,9.6-0.6L857.1,49.6z"/>
		</g>
	</g>
	<g>
		<g>
			<path class="st0" d="M855.2,35.5c-0.6,5,1.8,5.4,2.9,4.7c2.5-1.6,5-6.9,3.8-8.8L855.2,35.5z"/>
			<path class="st1" d="M855.2,35.5c-4.7-1.8-4-4-2.9-4.7c2.6-1.5,8.4-1.3,9.6,0.6L855.2,35.5z"/>
		</g>
	</g>
	<g>
		<g>
			<path class="st0" d="M827.6,60.8c0.6-5-1.8-5.4-2.9-4.7c-2.5,1.6-5,6.9-3.8,8.8L827.6,60.8z"/>
			<path class="st1" d="M827.6,60.8c4.7,1.8,4,4,2.9,4.7c-2.6,1.5-8.4,1.3-9.6-0.6L827.6,60.8z"/>
		</g>
	</g>
	<g>
		<g>
			<path class="st1" d="M844.3,26.6c-4.9,1.3-5.6-1-5.1-2.2c1.2-2.7,6.1-5.9,8.2-5L844.3,26.6z"/>
			<path class="st0" d="M844.3,26.6c2.4,4.5,4.5,3.4,5,2.2c1.1-2.8,0.2-8.5-1.9-9.4L844.3,26.6z"/>
		</g>
	</g>
	<g>
		<g>
			<path class="st6" d="M835.8,79.6l-12.5-8.3c-1.6-1.1-3.8-0.6-4.8,1l2.9,1.9l2.9,1.9l11.5,7.6V79.6z"/>
			<path class="st7" d="M834.6,83l-10.4-6.9l-2.9-1.9l-2.9-1.9c-1.1,1.6-0.6,3.8,1,4.8l15.2,10V83z"/>
		</g>
		<g>
			<path class="st6" d="M836.2,63.8l12.5-8.3c1.6-1.1,3.8-0.6,4.8,1l-2.9,1.9l-2.9,1.9l-11.5,7.6V63.8z"/>
			<path class="st7" d="M837.3,67.1l10.4-6.9l2.9-1.9l2.9-1.9c1.1,1.6,0.6,3.8-1,4.8l-15.2,10V67.1z"/>
		</g>
		<g>
			<path class="st7" d="M838.1,103.7l0-1.1h0V46.1v-3.2v-3.2c-1.9,0-3.5,1.4-3.5,3.2v44.3l0,16.4c0,1.7,1.6,3.1,3.5,3.1L838.1,103.7
				z"/>
			<path class="st6" d="M841.6,42.9c0-1.7-1.6-3.2-3.5-3.2v3.2v3.2l0,54.4l0,3.1l0,3.1c1.9,0,3.5-1.4,3.5-3.2l0-1.1h0V42.9z"/>
		</g>
	</g>
</g>
</svg>
