<?xml version="1.0" encoding="utf-8"?>
<!-- Generator: Adobe Illustrator 27.2.0, SVG Export Plug-In . SVG Version: 6.00 Build 0)  -->
<svg version="1.1" xmlns="http://www.w3.org/2000/svg" xmlns:xlink="http://www.w3.org/1999/xlink" x="0px" y="0px"
	 viewBox="0 0 910.5 142" style="enable-background:new 0 0 910.5 142;" xml:space="preserve">
<style type="text/css">
	.st0{fill:#4D1A5F;}
	.st1{clip-path:url(#SVGID_00000050626814396223496630000010232851780771239613_);}
	.st2{fill:#97C22A;}
	.st3{fill:#68B437;}
	.st4{fill:#F9B318;}
	.st5{fill:#EC661B;}
	.st6{clip-path:url(#SVGID_00000101100221193802653850000017692896344335729342_);enable-background:new    ;}
	.st7{clip-path:url(#SVGID_00000074434437529121394750000008153755193611125643_);enable-background:new    ;}
	.st8{clip-path:url(#SVGID_00000083810542712177733010000008893555598474437797_);enable-background:new    ;}
	.st9{clip-path:url(#SVGID_00000143586471787714781300000006098599854724624273_);enable-background:new    ;}
	.st10{clip-path:url(#SVGID_00000142883613395865550990000004988467071774794431_);enable-background:new    ;}
	.st11{clip-path:url(#SVGID_00000108273795601000304150000001024508281468850836_);enable-background:new    ;}
	.st12{clip-path:url(#SVGID_00000016761386403267710840000014395436505380919948_);enable-background:new    ;}
	.st13{clip-path:url(#SVGID_00000042735838289289407830000004890538911526651802_);enable-background:new    ;}
	.st14{clip-path:url(#SVGID_00000069365167547512435530000016038487631933803696_);enable-background:new    ;}
	.st15{clip-path:url(#SVGID_00000092431529900365446500000013660287341545061295_);enable-background:new    ;}
	.st16{clip-path:url(#SVGID_00000038402879844085983590000015857275265637641632_);enable-background:new    ;}
	.st17{clip-path:url(#SVGID_00000000930844761278838870000007445915634320317104_);enable-background:new    ;}
	.st18{clip-path:url(#SVGID_00000162342559471091740850000002229566247428979864_);enable-background:new    ;}
	.st19{clip-path:url(#SVGID_00000103253903481372905720000001547529009296548017_);enable-background:new    ;}
	.st20{clip-path:url(#SVGID_00000102512562920373084320000004523104442473085855_);enable-background:new    ;}
	.st21{clip-path:url(#SVGID_00000048471274343534601200000015524412635102553000_);enable-background:new    ;}
	.st22{clip-path:url(#SVGID_00000036971090963814567410000016322584026254683819_);enable-background:new    ;}
	.st23{clip-path:url(#SVGID_00000058572671457906279420000005706121378132436411_);enable-background:new    ;}
	.st24{clip-path:url(#SVGID_00000171714724490032293330000009835186131481113006_);enable-background:new    ;}
</style>
<g id="Calque_3">
</g>
<g id="Calque_2_00000049916952226113363400000003123003197317003941_">
	<g>
		<path class="st0" d="M446.6,140.5c-185.7,0-349.4-19-435-38.7c15.6-0.4,31-0.9,46.1-1.6c117.8,12.7,244.2,25.1,381.9,25.1
			c123.9,0,234.9-10,339.3-30.7c10.7-2.1,34.8-9.7,55-18.1c26.9-11.3,40.2-21,39.7-28.9c-0.3-4.7-5.4-8.3-15.4-10.9
			c28.6,3,47.5,9.5,51,18.2c1.6,4-0.2,8.5-5.4,13.5c-24,23-68.6,39.9-136.3,51.9C691.1,133.6,583.2,140.5,446.6,140.5z"/>
		<path class="st0" d="M869.5,39.4c23.4,3.6,36,9.8,38.5,15.9c1.4,3.4-0.4,7.4-5.1,12c-11.3,10.8-27.7,20.4-48.7,28.7
			c-22.9,9-52.1,16.7-86.9,22.8C691,132.2,583.1,139,446.6,139c-88,0-178.2-4.3-260.9-12.5C122.9,120.3,66.2,112,23,102.8
			c11.7-0.4,23.2-0.8,34.6-1.2c117.8,12.7,244.2,25,381.9,25c124,0,235.1-10,339.6-30.7c10.8-2.1,35-9.7,55.3-18.2
			C876,60.4,875.3,50.6,875,47.4C874.8,44.3,873,41.7,869.5,39.4 M821,33.4c124.7,6.1-13.9,54.1-42.4,59.8
			c-115,22.7-230,30.6-339.1,30.6c-141.8,0-273.4-13.4-381.8-25.1c-18.5,0.8-37.6,1.4-57,1.9c87,21.7,257,41.3,445.9,41.3
			c290,0,413.7-30,458.2-72.5C928.3,46.9,884.5,33.4,821,33.4L821,33.4z"/>
	</g>
</g>
</svg>
