<?xml version="1.0" encoding="utf-8"?>
<!-- Generator: Adobe Illustrator 27.2.0, SVG Export Plug-In . SVG Version: 6.00 Build 0)  -->
<svg version="1.1" id="Calque_2" xmlns="http://www.w3.org/2000/svg" xmlns:xlink="http://www.w3.org/1999/xlink" x="0px" y="0px"
	 viewBox="0 0 910.5 142" style="enable-background:new 0 0 910.5 142;" xml:space="preserve">
<style type="text/css">
	.st0{fill:#97C22A;}
	.st1{fill:#68B437;}
	.st2{fill:#4D1A5F;}
	.st3{display:none;}
	.st4{display:inline;fill:#FFFFFF;}
	.st5{display:inline;}
	.st6{fill:#F9B318;}
	.st7{fill:#EC661B;}
</style>
<symbol  id="Logo-feuille-tilleul" viewBox="-52.6 -46.2 105.2 92.4">
	<path class="st0" d="M-0.1,29.5c38,30.3,52.7,12.3,52.7,0.1c-0.5-28.9-31-75.8-52.7-75.8L-0.1,29.5z"/>
	<path class="st1" d="M0.1,29.5c-38,30.3-52.7,12.3-52.7,0.1c0.5-28.9,31-75.8,52.7-75.8L0.1,29.5z"/>
</symbol>
<g>
	<path class="st2" d="M445.6,140.5c-185.7,0-349.4-19-435-38.7c15.6-0.4,31-0.9,46.1-1.6c117.8,12.7,244.2,25.1,381.9,25.1
		c123.9,0,234.9-10,339.3-30.7c10.7-2.1,34.8-9.7,55-18.1c26.9-11.3,40.2-21,39.7-28.9c-0.3-4.7-5.4-8.3-15.4-10.9
		c28.6,3,47.5,9.5,51,18.2c1.6,4-0.2,8.5-5.4,13.5c-24,23-68.6,39.9-136.3,51.9C690.1,133.6,582.2,140.5,445.6,140.5z"/>
	<path class="st2" d="M868.5,39.4c23.4,3.6,36,9.8,38.5,15.9c1.4,3.4-0.4,7.4-5.1,12c-11.3,10.8-27.7,20.4-48.7,28.7
		c-22.9,9-52.1,16.7-86.9,22.8C690,132.2,582.1,139,445.6,139c-88,0-178.2-4.3-260.9-12.5c-62.8-6.2-119.5-14.5-162.7-23.7
		c11.7-0.4,23.2-0.8,34.6-1.2c117.8,12.7,244.2,25,381.9,25c124,0,235.1-10,339.6-30.7c10.8-2.1,35-9.7,55.3-18.2
		C875,60.4,874.3,50.6,874,47.4C873.8,44.3,872,41.7,868.5,39.4 M820,33.4c124.7,6.1-13.9,54.1-42.4,59.8
		c-115,22.7-230,30.6-339.1,30.6c-141.8,0-273.4-13.4-381.8-25.1c-18.5,0.8-37.6,1.4-57,1.9c87,21.7,257,41.3,445.9,41.3
		c290,0,413.7-30,458.2-72.5C927.3,46.9,883.5,33.4,820,33.4L820,33.4z"/>
</g>
<g class="st3">
	<path class="st4" d="M279.3,463c-15.3-3.4-43.3-34.1-66.6-72.9c-15.3-25.4-49.3-89.6-36-138.4c9.1-39.9,49.7-66.6,103.4-68l0.1,0
		l0.1,0c53.8,1.5,94.4,28.1,103.4,68c13.3,48.8-20.7,113-36,138.4c-23.3,38.8-51.4,69.4-66.6,72.9l-0.9,0.2L279.3,463z"/>
	<path class="st5" d="M280.2,188c45.6,1.2,89.9,22.6,99.4,64.8c20,73.3-70.5,199.6-99.4,206.1c-28.9-6.5-119.4-132.8-99.4-206.1
		C190.4,210.6,234.6,189.2,280.2,188 M280.2,179.5l-0.2,0c-25,0.7-48.9,7.2-67.4,18.3c-21.2,12.7-35,31-40,53
		c-5.3,19.5-3.9,43.2,4.2,70.5c6.7,22.5,17.8,47.1,32.3,71.1c19.9,33,50,70.5,69.3,74.8l1.9,0.4l1.9-0.4
		c19.3-4.3,49.5-41.8,69.3-74.8c14.5-24,25.6-48.6,32.3-71.1c8.1-27.3,9.5-51,4.2-70.5c-5-22-18.9-40.3-40-53
		c-18.5-11.1-42.4-17.6-67.4-18.3L280.2,179.5L280.2,179.5z"/>
</g>
<use xlink:href="#Logo-feuille-tilleul"  width="105.2" height="92.4" x="-52.6" y="-46.2" transform="matrix(-0.1046 0 0 0.1034 775.192 6.0929)" style="overflow:visible;"/>
<g>
	<path class="st6" d="M779,74.6l-12.5-8.3c-1.6-1.1-3.8-0.6-4.8,1l2.9,1.9l2.9,1.9l11.5,7.6V74.6z"/>
	<path class="st7" d="M777.9,78l-10.4-6.9l-2.9-1.9l-2.9-1.9c-1.1,1.6-0.6,3.8,1,4.8l15.2,10V78z"/>
</g>
<g>
	<path class="st6" d="M775.4,63.8l12.5-8.3c1.6-1.1,3.8-0.6,4.8,1l-2.9,1.9l-2.9,1.9l-11.5,7.6V63.8z"/>
	<path class="st7" d="M776.6,67.1l10.4-6.9l2.9-1.9l2.9-1.9c1.1,1.6,0.6,3.8-1,4.8l-15.2,10V67.1z"/>
</g>
<g>
	<path class="st7" d="M777.3,103l0-1.1h0V46v-3.1v-3.1c-1.9,0-3.5,1.4-3.5,3.1v43.9l0,16.2c0,1.7,1.6,3.1,3.5,3.1L777.3,103z"/>
	<path class="st6" d="M780.8,42.9c0-1.7-1.6-3.1-3.5-3.1v3.1V46l0,53.9l0,3.1l0,3.1c1.9,0,3.5-1.4,3.5-3.1l0-1.1h0V42.9z"/>
</g>
<use xlink:href="#Logo-feuille-tilleul"  width="105.2" height="92.4" x="-52.6" y="-46.2" transform="matrix(-0.1338 -5.375103e-04 -5.316138e-04 0.1324 776.347 6.2731)" style="overflow:visible;"/>
<use xlink:href="#Logo-feuille-tilleul"  width="105.2" height="92.4" x="-52.6" y="-46.2" transform="matrix(-0.1162 6.645692e-02 6.572788e-02 0.1149 758.0653 11.6162)" style="overflow:visible;"/>
<use xlink:href="#Logo-feuille-tilleul"  width="105.2" height="92.4" x="-52.6" y="-46.2" transform="matrix(-6.738792e-02 0.1156 0.1144 6.664866e-02 744.9044 25.3843)" style="overflow:visible;"/>
<use xlink:href="#Logo-feuille-tilleul"  width="105.2" height="92.4" x="-52.6" y="-46.2" transform="matrix(-5.375103e-04 0.1338 0.1324 5.316138e-04 740.3908 43.8883)" style="overflow:visible;"/>
<use xlink:href="#Logo-feuille-tilleul"  width="105.2" height="92.4" x="-52.6" y="-46.2" transform="matrix(6.645692e-02 0.1162 0.1149 -6.572788e-02 745.7338 62.17)" style="overflow:visible;"/>
<use xlink:href="#Logo-feuille-tilleul"  width="105.2" height="92.4" x="-52.6" y="-46.2" transform="matrix(0.1162 -6.645692e-02 -6.572788e-02 -0.1149 796.2877 74.5014)" style="overflow:visible;"/>
<use xlink:href="#Logo-feuille-tilleul"  width="105.2" height="92.4" x="-52.6" y="-46.2" transform="matrix(6.738792e-02 -0.1156 -0.1144 -6.664866e-02 809.4485 60.7333)" style="overflow:visible;"/>
<use xlink:href="#Logo-feuille-tilleul"  width="105.2" height="92.4" x="-52.6" y="-46.2" transform="matrix(5.375103e-04 -0.1338 -0.1324 -5.316138e-04 813.9622 42.2294)" style="overflow:visible;"/>
<use xlink:href="#Logo-feuille-tilleul"  width="105.2" height="92.4" x="-52.6" y="-46.2" transform="matrix(-6.645692e-02 -0.1162 -0.1149 6.572788e-02 808.6191 23.9477)" style="overflow:visible;"/>
<use xlink:href="#Logo-feuille-tilleul"  width="105.2" height="92.4" x="-52.6" y="-46.2" transform="matrix(-0.1156 -6.738792e-02 -6.664866e-02 0.1144 794.851 10.7868)" style="overflow:visible;"/>
<use xlink:href="#Logo-feuille-tilleul"  width="105.2" height="92.4" x="-52.6" y="-46.2" transform="matrix(-8.409549e-02 1.561721e-02 1.544589e-02 8.317295e-02 771.3296 19.945)" style="overflow:visible;"/>
<use xlink:href="#Logo-feuille-tilleul"  width="105.2" height="92.4" x="-52.6" y="-46.2" transform="matrix(-6.502023e-02 5.557264e-02 5.496301e-02 6.430695e-02 760.4887 25.4788)" style="overflow:visible;"/>
<use xlink:href="#Logo-feuille-tilleul"  width="105.2" height="92.4" x="-52.6" y="-46.2" transform="matrix(-2.852285e-02 8.063743e-02 7.975283e-02 2.820995e-02 753.8672 35.6916)" style="overflow:visible;"/>
<use xlink:href="#Logo-feuille-tilleul"  width="105.2" height="92.4" x="-52.6" y="-46.2" transform="matrix(1.561721e-02 8.409549e-02 8.317295e-02 -1.544589e-02 753.2391 47.8469)" style="overflow:visible;"/>
<use xlink:href="#Logo-feuille-tilleul"  width="105.2" height="92.4" x="-52.6" y="-46.2" transform="matrix(5.557264e-02 6.502023e-02 6.430695e-02 -5.496301e-02 758.7729 58.6877)" style="overflow:visible;"/>
<use xlink:href="#Logo-feuille-tilleul"  width="105.2" height="92.4" x="-52.6" y="-46.2" transform="matrix(2.852285e-02 -8.063743e-02 -7.975283e-02 -2.820995e-02 798.6035 50.1908)" style="overflow:visible;"/>
<use xlink:href="#Logo-feuille-tilleul"  width="105.2" height="92.4" x="-52.6" y="-46.2" transform="matrix(-1.561721e-02 -8.409549e-02 -8.317295e-02 1.544589e-02 799.2315 38.0355)" style="overflow:visible;"/>
<use xlink:href="#Logo-feuille-tilleul"  width="105.2" height="92.4" x="-52.6" y="-46.2" transform="matrix(-5.557264e-02 -6.502023e-02 -6.430695e-02 5.496301e-02 793.6977 27.1946)" style="overflow:visible;"/>
<use xlink:href="#Logo-feuille-tilleul"  width="105.2" height="92.4" x="-52.6" y="-46.2" transform="matrix(-8.063743e-02 -2.852285e-02 -2.820995e-02 7.975283e-02 783.4849 20.573)" style="overflow:visible;"/>
</svg>
