<?xml version="1.0" encoding="utf-8"?>
<!-- Generator: Adobe Illustrator 27.2.0, SVG Export Plug-In . SVG Version: 6.00 Build 0)  -->
<svg version="1.1" xmlns="http://www.w3.org/2000/svg" xmlns:xlink="http://www.w3.org/1999/xlink" x="0px" y="0px"
	 viewBox="0 0 910.5 142" style="enable-background:new 0 0 910.5 142;" xml:space="preserve">
<style type="text/css">
	.st0{fill:#EFFEE7;}
	.st1{fill:#4D1A5F;}
	.st2{clip-path:url(#SVGID_00000079455249208137117520000012179815405399649458_);}
	.st3{fill:#97C22A;}
	.st4{fill:#68B437;}
	.st5{fill:#F9B318;}
	.st6{fill:#EC661B;}
	.st7{clip-path:url(#SVGID_00000089539181354431900480000014127219237892105601_);enable-background:new    ;}
	.st8{clip-path:url(#SVGID_00000086684483310483459940000004395063835180020902_);enable-background:new    ;}
	.st9{clip-path:url(#SVGID_00000120532298767197166020000001227349935629188996_);enable-background:new    ;}
	.st10{clip-path:url(#SVGID_00000143611961974531045540000014741952953514990511_);enable-background:new    ;}
	.st11{clip-path:url(#SVGID_00000026880007312953318260000009307801673816101545_);enable-background:new    ;}
	.st12{clip-path:url(#SVGID_00000183225431914949045230000010775464967357684915_);enable-background:new    ;}
	.st13{clip-path:url(#SVGID_00000114790737414740976500000001526397626328575649_);enable-background:new    ;}
	.st14{clip-path:url(#SVGID_00000018214747281624865180000012469213574099240071_);enable-background:new    ;}
	.st15{clip-path:url(#SVGID_00000071519781552545566460000012624123574968983716_);enable-background:new    ;}
	.st16{clip-path:url(#SVGID_00000135663652458464985110000005496407451062317484_);enable-background:new    ;}
	.st17{clip-path:url(#SVGID_00000085237008102708127880000011900635882634601098_);enable-background:new    ;}
	.st18{clip-path:url(#SVGID_00000007412273672511399430000011185116316028722101_);enable-background:new    ;}
	.st19{clip-path:url(#SVGID_00000031898645625725130480000013526984337521825439_);enable-background:new    ;}
	.st20{clip-path:url(#SVGID_00000118356519464270574250000004176279715825020076_);enable-background:new    ;}
	.st21{clip-path:url(#SVGID_00000085935155701101943640000004081435820513444243_);enable-background:new    ;}
	.st22{clip-path:url(#SVGID_00000122703247710965233330000003894639730148446136_);enable-background:new    ;}
	.st23{clip-path:url(#SVGID_00000019674980671385058940000017645099167810058383_);enable-background:new    ;}
	.st24{clip-path:url(#SVGID_00000183224845127949681920000010072408145467955841_);enable-background:new    ;}
	.st25{clip-path:url(#SVGID_00000036937908621286509380000004557840357961338006_);enable-background:new    ;}
</style>
<g id="Calque_3">
</g>
<g id="Calque_2_00000049916952226113363400000003123003197317003941_">
	<g>
		<path class="st0" d="M446.6,140.5c-185.7,0-349.4-19-435-38.7c15.6-0.4,31-0.9,46.1-1.6c117.8,12.7,244.2,25.1,381.9,25.1
			c123.9,0,234.9-10,339.3-30.7c10.7-2.1,34.8-9.7,55-18.1c26.9-11.3,40.2-21,39.7-28.9c-0.3-4.7-5.4-8.3-15.4-10.9
			c28.6,3,47.5,9.5,51,18.2c1.6,4-0.2,8.5-5.4,13.5c-24,23-68.6,39.9-136.3,51.9C691.1,133.6,583.2,140.5,446.6,140.5z"/>
		<path class="st0" d="M869.5,39.4c23.4,3.6,36,9.8,38.5,15.9c1.4,3.4-0.4,7.4-5.1,12c-11.3,10.8-27.7,20.4-48.7,28.7
			c-22.9,9-52.1,16.7-86.9,22.8C691,132.2,583.1,139,446.6,139c-88,0-178.2-4.3-260.9-12.5C122.9,120.3,66.2,112,23,102.8
			c11.7-0.4,23.2-0.8,34.6-1.2c117.8,12.7,244.2,25,381.9,25c124,0,235.1-10,339.6-30.7c10.8-2.1,35-9.7,55.3-18.2
			C876,60.4,875.3,50.6,875,47.4C874.8,44.3,873,41.7,869.5,39.4 M821,33.4c124.7,6.1-13.9,54.1-42.4,59.8
			c-115,22.7-230,30.6-339.1,30.6c-141.8,0-273.4-13.4-381.8-25.1c-18.5,0.8-37.6,1.4-57,1.9c87,21.7,257,41.3,445.9,41.3
			c290,0,413.7-30,458.2-72.5C928.3,46.9,884.5,33.4,821,33.4L821,33.4z"/>
	</g>
</g>
</svg>
