<?xml version="1.0" encoding="utf-8"?>
<!-- Generator: Adobe Illustrator 27.2.0, SVG Export Plug-In . SVG Version: 6.00 Build 0)  -->
<svg version="1.1" id="Calque_2_00000049916952226113363400000003123003197317003941_"
	 xmlns="http://www.w3.org/2000/svg" xmlns:xlink="http://www.w3.org/1999/xlink" x="0px" y="0px" viewBox="0 0 713.8 142"
	 style="enable-background:new 0 0 713.8 142;" xml:space="preserve">
<style type="text/css">
	.st0{fill:#97C22A;}
	.st1{fill:#68B437;}
	.st2{fill:#EFFEE7;}
	.st3{fill:#F9B318;}
	.st4{fill:#EC661B;}
	.st5{fill:#4D1A5F;}
</style>
<symbol  id="Logo-feuille-tilleul" viewBox="-52.6 -46.2 105.2 92.3">
	<path class="st0" d="M-0.1,29.5c38,30.3,52.7,12.3,52.7,0.1c-0.5-28.9-31-75.8-52.7-75.8L-0.1,29.5z"/>
	<path class="st1" d="M0.1,29.5c-38,30.3-52.7,12.3-52.7,0.1c0.5-28.9,31-75.8,52.7-75.8L0.1,29.5z"/>
</symbol>
<g>
	<path class="st2" d="M343.5,142.1c-146.6,0-288-15.5-343.4-38.1c12.3-0.4,24.6-3,36.5-3.7c92.7,16.7,192.7,25,301.4,25
		c97.8,0,185.4-10,267.8-30.6c8.4-2.1,28.9-8.8,45.5-16.2c14.5-6,40.5-19.4,29.2-30.7c-4.4-4.4-14.3-10.5-22.2-13.1
		c22.6,3,44.3,18.2,49.4,23.3c6.8,6.8,7.4,15.9,0.7,23.6c-14.1,14.8-56.5,30.7-111.7,38.6C536.9,132.6,451.3,142.1,343.5,142.1z"/>
</g>
<g>
	<defs>
		<rect id="SVGID_1_" x="602.2" y="1.3" width="11" height="9.6"/>
	</defs>
	<clipPath id="SVGID_00000019657332388305729910000011412418173692726436_">
		<use xlink:href="#SVGID_1_"  style="overflow:visible;"/>
	</clipPath>
	<g transform="matrix(1 0 0 1 0 0)" style="clip-path:url(#SVGID_00000019657332388305729910000011412418173692726436_);">
		
			<use xlink:href="#Logo-feuille-tilleul"  width="105.2" height="92.3" x="-52.6" y="-46.2" transform="matrix(-0.1046 0 0 0.1034 607.6893 6.0899)" style="overflow:visible;"/>
	</g>
</g>
<g>
	<path class="st3" d="M611.5,74.6L599,66.3c-1.6-1.1-3.8-0.6-4.8,1l2.9,1.9l2.9,1.9l11.5,7.6L611.5,74.6L611.5,74.6z"/>
	<path class="st4" d="M610.4,78L600,71.1l-2.9-1.9l-2.9-1.9c-1.1,1.6-0.6,3.8,1,4.8l15.2,10L610.4,78L610.4,78z"/>
</g>
<g>
	<path class="st3" d="M607.9,63.8l12.5-8.3c1.6-1.1,3.8-0.6,4.8,1l-2.9,1.9l-2.9,1.9l-11.5,7.6L607.9,63.8L607.9,63.8z"/>
	<path class="st4" d="M609.1,67.1l10.4-6.9l2.9-1.9l2.9-1.9c1.1,1.6,0.6,3.8-1,4.8l-15.2,10L609.1,67.1L609.1,67.1z"/>
</g>
<g>
	<path class="st4" d="M609.8,103v-1.1l0,0V46v-3.1v-3.1c-1.9,0-3.5,1.4-3.5,3.1v43.9V103c0,1.7,1.6,3.1,3.5,3.1V103z"/>
	<path class="st3" d="M613.3,42.9c0-1.7-1.6-3.1-3.5-3.1v3.1V46v53.9v3.1v3.1c1.9,0,3.5-1.4,3.5-3.1v-1.1l0,0V42.9z"/>
</g>
<g>
	<defs>
		
			<rect id="SVGID_00000150811243338492298660000016486174898326927746_" x="602.7" y="-0.8" transform="matrix(4.017235e-03 -1 1 4.017235e-03 600.1254 615.0873)" width="12.2" height="14.1"/>
	</defs>
	<clipPath id="SVGID_00000042703332152250469040000006828382190086244011_">
		<use xlink:href="#SVGID_00000150811243338492298660000016486174898326927746_"  style="overflow:visible;"/>
	</clipPath>
	
		<g transform="matrix(1 0 4.656613e-10 1 6.103516e-05 0)" style="clip-path:url(#SVGID_00000042703332152250469040000006828382190086244011_);enable-background:new    ;">
		
			<use xlink:href="#Logo-feuille-tilleul"  width="105.2" height="92.3" x="-52.6" y="-46.2" transform="matrix(-0.1338 -5.375103e-04 -5.316138e-04 0.1324 608.8443 6.2692)" style="overflow:visible;"/>
	</g>
</g>
<g>
	<defs>
		
			<rect id="SVGID_00000163784604497801458430000010139796461670035329_" x="583.5" y="5.5" transform="matrix(0.8681 -0.4965 0.4965 0.8681 72.1519 294.723)" width="14.1" height="12.2"/>
	</defs>
	<clipPath id="SVGID_00000153698675043855873810000008955879404749362367_">
		<use xlink:href="#SVGID_00000163784604497801458430000010139796461670035329_"  style="overflow:visible;"/>
	</clipPath>
	<g style="clip-path:url(#SVGID_00000153698675043855873810000008955879404749362367_);enable-background:new    ;">
		
			<use xlink:href="#Logo-feuille-tilleul"  width="105.2" height="92.3" x="-52.6" y="-46.2" transform="matrix(-0.1162 6.645692e-02 6.572788e-02 0.1149 590.5607 11.6128)" style="overflow:visible;"/>
	</g>
</g>
<g>
	<defs>
		
			<rect id="SVGID_00000119112347892801073900000007386360583175915405_" x="570.4" y="19.3" transform="matrix(0.5036 -0.8639 0.8639 0.5036 264.6818 511.433)" width="14.1" height="12.2"/>
	</defs>
	<clipPath id="SVGID_00000076599372331754121820000018090037283470889345_">
		<use xlink:href="#SVGID_00000119112347892801073900000007386360583175915405_"  style="overflow:visible;"/>
	</clipPath>
	
		<g transform="matrix(1 2.980232e-08 0 1 0 -1.335144e-05)" style="clip-path:url(#SVGID_00000076599372331754121820000018090037283470889345_);enable-background:new    ;">
		
			<use xlink:href="#Logo-feuille-tilleul"  width="105.2" height="92.3" x="-52.6" y="-46.2" transform="matrix(-6.738792e-02 0.1156 0.1144 6.664866e-02 577.3983 25.3823)" style="overflow:visible;"/>
	</g>
</g>
<g>
	<defs>
		
			<rect id="SVGID_00000103241070845461031880000001556735111176371593_" x="565.9" y="37.8" transform="matrix(4.017235e-03 -1 1 4.017235e-03 526.6987 616.5955)" width="14.1" height="12.2"/>
	</defs>
	<clipPath id="SVGID_00000063597179543375789400000001441037346753667507_">
		<use xlink:href="#SVGID_00000103241070845461031880000001556735111176371593_"  style="overflow:visible;"/>
	</clipPath>
	
		<g transform="matrix(1 -4.656613e-10 0 1 0 0)" style="clip-path:url(#SVGID_00000063597179543375789400000001441037346753667507_);enable-background:new    ;">
		
			<use xlink:href="#Logo-feuille-tilleul"  width="105.2" height="92.3" x="-52.6" y="-46.2" transform="matrix(-5.375103e-04 0.1338 0.1324 5.316138e-04 572.8842 43.8883)" style="overflow:visible;"/>
	</g>
</g>
<g>
	<defs>
		
			<rect id="SVGID_00000070108052845134351830000013629016507737182090_" x="572.1" y="55.1" transform="matrix(0.8681 -0.4965 0.4965 0.8681 45.427 295.271)" width="12.2" height="14.1"/>
	</defs>
	<clipPath id="SVGID_00000165209140865253603510000017093361143509916325_">
		<use xlink:href="#SVGID_00000070108052845134351830000013629016507737182090_"  style="overflow:visible;"/>
	</clipPath>
	
		<g transform="matrix(1 0 0 1 0 -2.288818e-05)" style="clip-path:url(#SVGID_00000165209140865253603510000017093361143509916325_);enable-background:new    ;">
		
			<use xlink:href="#Logo-feuille-tilleul"  width="105.2" height="92.3" x="-52.6" y="-46.2" transform="matrix(6.645692e-02 0.1162 0.1149 -6.572788e-02 578.2277 62.1719)" style="overflow:visible;"/>
	</g>
</g>
<g>
	<defs>
		
			<rect id="SVGID_00000124866363254136480810000017749287712639999641_" x="621.7" y="68.4" transform="matrix(0.8681 -0.4965 0.4965 0.8681 45.975 321.996)" width="14.1" height="12.2"/>
	</defs>
	<clipPath id="SVGID_00000090272964931170317180000005847445975984131730_">
		<use xlink:href="#SVGID_00000124866363254136480810000017749287712639999641_"  style="overflow:visible;"/>
	</clipPath>
	
		<g transform="matrix(1 0 0 1 0 7.629395e-06)" style="clip-path:url(#SVGID_00000090272964931170317180000005847445975984131730_);enable-background:new    ;">
		
			<use xlink:href="#Logo-feuille-tilleul"  width="105.2" height="92.3" x="-52.6" y="-46.2" transform="matrix(0.1162 -6.645692e-02 -6.572788e-02 -0.1149 628.7869 74.5048)" style="overflow:visible;"/>
	</g>
</g>
<g>
	<defs>
		
			<rect id="SVGID_00000023256271120928108670000007139320120798502583_" x="634.9" y="54.6" transform="matrix(0.5036 -0.8639 0.8639 0.5036 266.1813 584.7409)" width="14.1" height="12.2"/>
	</defs>
	<clipPath id="SVGID_00000116932126281123159600000012745323495899056055_">
		<use xlink:href="#SVGID_00000023256271120928108670000007139320120798502583_"  style="overflow:visible;"/>
	</clipPath>
	
		<g transform="matrix(1 2.980232e-08 0 1 6.103516e-05 3.051758e-05)" style="clip-path:url(#SVGID_00000116932126281123159600000012745323495899056055_);enable-background:new    ;">
		
			<use xlink:href="#Logo-feuille-tilleul"  width="105.2" height="92.3" x="-52.6" y="-46.2" transform="matrix(6.738792e-02 -0.1156 -0.1144 -6.664866e-02 641.9492 60.7353)" style="overflow:visible;"/>
	</g>
</g>
<g>
	<defs>
		
			<rect id="SVGID_00000053513078303282967540000013553204216464172171_" x="639.4" y="36.1" transform="matrix(4.017235e-03 -1 1 4.017235e-03 601.6335 688.514)" width="14.1" height="12.2"/>
	</defs>
	<clipPath id="SVGID_00000040536347979670529650000015257099402988326565_">
		<use xlink:href="#SVGID_00000053513078303282967540000013553204216464172171_"  style="overflow:visible;"/>
	</clipPath>
	
		<g transform="matrix(1 -4.656613e-10 0 1 0 3.814697e-06)" style="clip-path:url(#SVGID_00000040536347979670529650000015257099402988326565_);enable-background:new    ;">
		
			<use xlink:href="#Logo-feuille-tilleul"  width="105.2" height="92.3" x="-52.6" y="-46.2" transform="matrix(5.375103e-04 -0.1338 -0.1324 -5.316138e-04 646.4634 42.2294)" style="overflow:visible;"/>
	</g>
</g>
<g>
	<defs>
		
			<rect id="SVGID_00000170260540527817350180000001741625431472334736_" x="635" y="16.9" transform="matrix(0.8681 -0.4965 0.4965 0.8681 72.6999 321.4479)" width="12.2" height="14.1"/>
	</defs>
	<clipPath id="SVGID_00000048477853910296413450000006335515587623753395_">
		<use xlink:href="#SVGID_00000170260540527817350180000001741625431472334736_"  style="overflow:visible;"/>
	</clipPath>
	
		<g transform="matrix(1 0 0 1 6.103516e-05 -1.907349e-06)" style="clip-path:url(#SVGID_00000048477853910296413450000006335515587623753395_);enable-background:new    ;">
		
			<use xlink:href="#Logo-feuille-tilleul"  width="105.2" height="92.3" x="-52.6" y="-46.2" transform="matrix(-6.645692e-02 -0.1162 -0.1149 6.572788e-02 641.1198 23.9458)" style="overflow:visible;"/>
	</g>
</g>
<g>
	<defs>
		
			<rect id="SVGID_00000183221284439073640110000001625222427688198784_" x="621.2" y="3.7" transform="matrix(0.5036 -0.8639 0.8639 0.5036 302.0855 547.3372)" width="12.2" height="14.1"/>
	</defs>
	<clipPath id="SVGID_00000013896008767880170330000003599714327415813526_">
		<use xlink:href="#SVGID_00000183221284439073640110000001625222427688198784_"  style="overflow:visible;"/>
	</clipPath>
	
		<g transform="matrix(1 0 -2.980232e-08 1 0 -9.536743e-06)" style="clip-path:url(#SVGID_00000013896008767880170330000003599714327415813526_);enable-background:new    ;">
		
			<use xlink:href="#Logo-feuille-tilleul"  width="105.2" height="92.3" x="-52.6" y="-46.2" transform="matrix(-0.1156 -6.738792e-02 -6.664866e-02 0.1144 627.3503 10.7834)" style="overflow:visible;"/>
	</g>
</g>
<g>
	<defs>
		
			<rect id="SVGID_00000094593380044667909780000012354112385552653714_" x="599.3" y="16" transform="matrix(0.9832 -0.1826 0.1826 0.9832 6.5087 110.5858)" width="9" height="7.8"/>
	</defs>
	<clipPath id="SVGID_00000126314683500908912400000015597100038122083995_">
		<use xlink:href="#SVGID_00000094593380044667909780000012354112385552653714_"  style="overflow:visible;"/>
	</clipPath>
	
		<g transform="matrix(1 0 -1.490116e-08 1 0 3.814697e-06)" style="clip-path:url(#SVGID_00000126314683500908912400000015597100038122083995_);enable-background:new    ;">
		
			<use xlink:href="#Logo-feuille-tilleul"  width="105.2" height="92.3" x="-52.6" y="-46.2" transform="matrix(-8.409549e-02 1.561721e-02 1.544589e-02 8.317295e-02 603.8264 19.9426)" style="overflow:visible;"/>
	</g>
</g>
<g>
	<defs>
		
			<rect id="SVGID_00000141456945234115059340000014905330679549085330_" x="588.5" y="21.6" transform="matrix(0.7602 -0.6497 0.6497 0.7602 125.6592 391.3849)" width="9" height="7.8"/>
	</defs>
	<clipPath id="SVGID_00000016782919967109002300000003707633533811479223_">
		<use xlink:href="#SVGID_00000141456945234115059340000014905330679549085330_"  style="overflow:visible;"/>
	</clipPath>
	
		<g transform="matrix(1 -2.980232e-08 0 1 0 -1.907349e-05)" style="clip-path:url(#SVGID_00000016782919967109002300000003707633533811479223_);enable-background:new    ;">
		
			<use xlink:href="#Logo-feuille-tilleul"  width="105.2" height="92.3" x="-52.6" y="-46.2" transform="matrix(-6.502023e-02 5.557264e-02 5.496301e-02 6.430695e-02 592.9844 25.4769)" style="overflow:visible;"/>
	</g>
</g>
<g>
	<defs>
		
			<rect id="SVGID_00000151530919529282805770000007136030098655563690_" x="581.9" y="31.8" transform="matrix(0.3335 -0.9428 0.9428 0.3335 357.1805 576.5908)" width="9" height="7.8"/>
	</defs>
	<clipPath id="SVGID_00000125602921978019988860000016244269000815742092_">
		<use xlink:href="#SVGID_00000151530919529282805770000007136030098655563690_"  style="overflow:visible;"/>
	</clipPath>
	
		<g transform="matrix(1 0 0 1 6.103516e-05 7.629395e-06)" style="clip-path:url(#SVGID_00000125602921978019988860000016244269000815742092_);enable-background:new    ;">
		
			<use xlink:href="#Logo-feuille-tilleul"  width="105.2" height="92.3" x="-52.6" y="-46.2" transform="matrix(-2.852285e-02 8.063743e-02 7.975283e-02 2.820995e-02 586.3621 35.6908)" style="overflow:visible;"/>
	</g>
</g>
<g>
	<defs>
		
			<rect id="SVGID_00000057119335626514015890000014950381182237443218_" x="581.8" y="43.3" transform="matrix(0.9832 -0.1826 0.1826 0.9832 1.1101 107.7517)" width="7.8" height="9"/>
	</defs>
	<clipPath id="SVGID_00000065065282169901548340000011041754732779871361_">
		<use xlink:href="#SVGID_00000057119335626514015890000014950381182237443218_"  style="overflow:visible;"/>
	</clipPath>
	
		<g transform="matrix(1 1.490116e-08 0 1 0 -3.814697e-06)" style="clip-path:url(#SVGID_00000065065282169901548340000011041754732779871361_);enable-background:new    ;">
		
			<use xlink:href="#Logo-feuille-tilleul"  width="105.2" height="92.3" x="-52.6" y="-46.2" transform="matrix(1.561721e-02 8.409549e-02 8.317295e-02 -1.544589e-02 585.7339 47.8474)" style="overflow:visible;"/>
	</g>
</g>
<g>
	<defs>
		
			<rect id="SVGID_00000096753799026178858860000007063436553215946127_" x="587.4" y="54.2" transform="matrix(0.7602 -0.6497 0.6497 0.7602 103.6713 398.2344)" width="7.8" height="9"/>
	</defs>
	<clipPath id="SVGID_00000076573838281634312380000013695205400741672612_">
		<use xlink:href="#SVGID_00000096753799026178858860000007063436553215946127_"  style="overflow:visible;"/>
	</clipPath>
	
		<g transform="matrix(1 0 2.980232e-08 1 0 -1.907349e-05)" style="clip-path:url(#SVGID_00000076573838281634312380000013695205400741672612_);enable-background:new    ;">
		
			<use xlink:href="#Logo-feuille-tilleul"  width="105.2" height="92.3" x="-52.6" y="-46.2" transform="matrix(5.557264e-02 6.502023e-02 6.430695e-02 -5.496301e-02 591.2683 58.6893)" style="overflow:visible;"/>
	</g>
</g>
<g>
	<defs>
		
			<rect id="SVGID_00000098930494197232404780000018146509283599272381_" x="626.6" y="46.3" transform="matrix(0.3335 -0.9428 0.9428 0.3335 373.3293 628.4305)" width="9" height="7.8"/>
	</defs>
	<clipPath id="SVGID_00000138552648993603051880000015841389884073280679_">
		<use xlink:href="#SVGID_00000098930494197232404780000018146509283599272381_"  style="overflow:visible;"/>
	</clipPath>
	
		<g transform="matrix(1 0 0 1 0 -7.629395e-06)" style="clip-path:url(#SVGID_00000138552648993603051880000015841389884073280679_);enable-background:new    ;">
		
			<use xlink:href="#Logo-feuille-tilleul"  width="105.2" height="92.3" x="-52.6" y="-46.2" transform="matrix(2.852285e-02 -8.063743e-02 -7.975283e-02 -2.820995e-02 631.1031 50.1916)" style="overflow:visible;"/>
	</g>
</g>
<g>
	<defs>
		
			<rect id="SVGID_00000019653277070067517430000007759127790760884415_" x="627.8" y="33.5" transform="matrix(0.9832 -0.1826 0.1826 0.9832 3.6747 115.9844)" width="7.8" height="9"/>
	</defs>
	<clipPath id="SVGID_00000000923807118056880200000001720896221608234120_">
		<use xlink:href="#SVGID_00000019653277070067517430000007759127790760884415_"  style="overflow:visible;"/>
	</clipPath>
	
		<g transform="matrix(1 1.490116e-08 0 1 0 -3.814697e-06)" style="clip-path:url(#SVGID_00000000923807118056880200000001720896221608234120_);enable-background:new    ;">
		
			<use xlink:href="#Logo-feuille-tilleul"  width="105.2" height="92.3" x="-52.6" y="-46.2" transform="matrix(-1.561721e-02 -8.409549e-02 -8.317295e-02 1.544589e-02 631.7313 38.035)" style="overflow:visible;"/>
	</g>
</g>
<g>
	<defs>
		
			<rect id="SVGID_00000172401627601272164060000011674514049167221918_" x="622.3" y="22.7" transform="matrix(0.7602 -0.6497 0.6497 0.7602 132.5088 413.3729)" width="7.8" height="9"/>
	</defs>
	<clipPath id="SVGID_00000109031119838914221620000010159614297012661403_">
		<use xlink:href="#SVGID_00000172401627601272164060000011674514049167221918_"  style="overflow:visible;"/>
	</clipPath>
	
		<g transform="matrix(1 0 2.980232e-08 1 -6.103516e-05 -9.536743e-06)" style="clip-path:url(#SVGID_00000109031119838914221620000010159614297012661403_);enable-background:new    ;">
		
			<use xlink:href="#Logo-feuille-tilleul"  width="105.2" height="92.3" x="-52.6" y="-46.2" transform="matrix(-5.557264e-02 -6.502023e-02 -6.430695e-02 5.496301e-02 626.1968 27.193)" style="overflow:visible;"/>
	</g>
</g>
<g>
	<defs>
		
			<rect id="SVGID_00000157285648942289707410000006591331166910861448_" x="612.1" y="16.1" transform="matrix(0.3335 -0.9428 0.9428 0.3335 391.1748 594.4362)" width="7.8" height="9"/>
	</defs>
	<clipPath id="SVGID_00000150094584636287401940000005503070926087001519_">
		<use xlink:href="#SVGID_00000157285648942289707410000006591331166910861448_"  style="overflow:visible;"/>
	</clipPath>
	
		<g transform="matrix(1 0 0 1 0 7.629395e-06)" style="clip-path:url(#SVGID_00000150094584636287401940000005503070926087001519_);enable-background:new    ;">
		
			<use xlink:href="#Logo-feuille-tilleul"  width="105.2" height="92.3" x="-52.6" y="-46.2" transform="matrix(-8.063743e-02 -2.852285e-02 -2.820995e-02 7.975283e-02 615.983 20.5707)" style="overflow:visible;"/>
	</g>
</g>
<g>
	<path class="st5" d="M319.1-262.9c-185.7,0-349.4-19-435-38.7c15.6-0.4,31-0.9,46.1-1.6c117.8,12.7,244.2,25.1,381.9,25.1
		c123.9,0,234.9-10,339.3-30.7c10.7-2.1,34.8-9.7,55-18.1c26.9-11.3,40.2-21,39.7-28.9c-0.3-4.7-5.4-8.3-15.4-10.9
		c28.6,3,47.5,9.5,51,18.2c1.6,4-0.2,8.5-5.4,13.5c-24,23-68.6,39.9-136.3,51.9C563.6-269.8,455.7-262.9,319.1-262.9z"/>
	<path class="st5" d="M742-364c23.4,3.6,36,9.8,38.5,15.9c1.4,3.4-0.4,7.4-5.1,12c-11.3,10.8-27.7,20.4-48.7,28.7
		c-22.9,9-52.1,16.7-86.9,22.8c-76.3,13.4-184.2,20.2-320.7,20.2c-88,0-178.2-4.3-260.9-12.5c-62.8-6.2-119.5-14.5-162.7-23.7
		c11.7-0.4,23.2-0.8,34.6-1.2c117.8,12.7,244.2,25,381.9,25c124,0,235.1-10,339.6-30.7c10.8-2.1,35-9.7,55.3-18.2
		c41.6-17.3,40.9-27.1,40.6-30.3C747.3-359.1,745.5-361.7,742-364 M693.5-370c124.7,6.1-13.9,54.1-42.4,59.8
		c-115,22.7-230,30.6-339.1,30.6c-141.8,0-273.4-13.4-381.8-25.1c-18.5,0.8-37.6,1.4-57,1.9c87,21.7,257,41.3,445.9,41.3
		c290,0,413.7-30,458.2-72.5C800.8-356.5,757-370,693.5-370L693.5-370z"/>
</g>
<g>
	<defs>
		<rect id="SVGID_00000131352287859209339320000007287800446979928204_" x="643.2" y="-402" width="11" height="9.6"/>
	</defs>
	<clipPath id="SVGID_00000173865709932434493620000004438966570587925170_">
		<use xlink:href="#SVGID_00000131352287859209339320000007287800446979928204_"  style="overflow:visible;"/>
	</clipPath>
	<g transform="matrix(1 0 0 1 0 0)" style="clip-path:url(#SVGID_00000173865709932434493620000004438966570587925170_);">
		
			<use xlink:href="#Logo-feuille-tilleul"  width="105.2" height="92.3" x="-52.6" y="-46.2" transform="matrix(-0.1046 0 0 0.1034 648.7214 -397.2631)" style="overflow:visible;"/>
	</g>
</g>
<g>
	<path class="st3" d="M652.5-328.8l-12.5-8.3c-1.6-1.1-3.8-0.6-4.8,1l2.9,1.9l2.9,1.9l11.5,7.6L652.5-328.8L652.5-328.8z"/>
	<path class="st4" d="M651.4-325.4l-10.4-6.9l-2.9-1.9l-2.9-1.9c-1.1,1.6-0.6,3.8,1,4.8l15.2,10L651.4-325.4L651.4-325.4z"/>
</g>
<g>
	<path class="st3" d="M648.9-339.6l12.5-8.3c1.6-1.1,3.8-0.6,4.8,1l-2.9,1.9l-2.9,1.9l-11.5,7.6L648.9-339.6L648.9-339.6z"/>
	<path class="st4" d="M650.1-336.3l10.4-6.9l2.9-1.9l2.9-1.9c1.1,1.6,0.6,3.8-1,4.8l-15.2,10L650.1-336.3L650.1-336.3z"/>
</g>
<g>
	<path class="st4" d="M650.8-300.4v-1.1l0,0v-55.9v-3.1v-3.1c-1.9,0-3.5,1.4-3.5,3.1v43.9v16.2c0,1.7,1.6,3.1,3.5,3.1V-300.4z"/>
	<path class="st3" d="M654.3-360.5c0-1.7-1.6-3.1-3.5-3.1v3.1v3.1v53.9v3.1v3.1c1.9,0,3.5-1.4,3.5-3.1v-1.1l0,0V-360.5z"/>
</g>
<g>
	<defs>
		
			<rect id="SVGID_00000095329230744948386160000001234259724005629630_" x="643.8" y="-404.1" transform="matrix(4.017235e-03 -1 1 4.017235e-03 1044.3423 254.3865)" width="12.2" height="14.1"/>
	</defs>
	<clipPath id="SVGID_00000183961270074771778820000006851565809809940367_">
		<use xlink:href="#SVGID_00000095329230744948386160000001234259724005629630_"  style="overflow:visible;"/>
	</clipPath>
	
		<g transform="matrix(1 0 4.656613e-10 1 -6.103516e-05 0)" style="clip-path:url(#SVGID_00000183961270074771778820000006851565809809940367_);enable-background:new    ;">
		
			<use xlink:href="#Logo-feuille-tilleul"  width="105.2" height="92.3" x="-52.6" y="-46.2" transform="matrix(-0.1338 -5.375103e-04 -5.316138e-04 0.1324 649.8764 -397.0837)" style="overflow:visible;"/>
	</g>
</g>
<g>
	<defs>
		
			<rect id="SVGID_00000047742080859791512070000012669324176728424602_" x="624.6" y="-397.9" transform="matrix(0.8681 -0.4965 0.4965 0.8681 277.8141 261.8754)" width="14.1" height="12.2"/>
	</defs>
	<clipPath id="SVGID_00000137107447061602083730000012303461473214850207_">
		<use xlink:href="#SVGID_00000047742080859791512070000012669324176728424602_"  style="overflow:visible;"/>
	</clipPath>
	<g style="clip-path:url(#SVGID_00000137107447061602083730000012303461473214850207_);enable-background:new    ;">
		
			<use xlink:href="#Logo-feuille-tilleul"  width="105.2" height="92.3" x="-52.6" y="-46.2" transform="matrix(-0.1162 6.645692e-02 6.572788e-02 0.1149 631.5928 -391.7401)" style="overflow:visible;"/>
	</g>
</g>
<g>
	<defs>
		
			<rect id="SVGID_00000070800992608403908070000002602677697677525386_" x="611.4" y="-384.1" transform="matrix(0.5036 -0.8639 0.8639 0.5036 633.5167 346.6645)" width="14.1" height="12.2"/>
	</defs>
	<clipPath id="SVGID_00000128456123447780191550000013769875148340215734_">
		<use xlink:href="#SVGID_00000070800992608403908070000002602677697677525386_"  style="overflow:visible;"/>
	</clipPath>
	
		<g transform="matrix(1 2.980232e-08 0 1 -6.103516e-05 3.051758e-05)" style="clip-path:url(#SVGID_00000128456123447780191550000013769875148340215734_);enable-background:new    ;">
		
			<use xlink:href="#Logo-feuille-tilleul"  width="105.2" height="92.3" x="-52.6" y="-46.2" transform="matrix(-6.738792e-02 0.1156 0.1144 6.664866e-02 618.4305 -377.9706)" style="overflow:visible;"/>
	</g>
</g>
<g>
	<defs>
		
			<rect id="SVGID_00000074433365213444508260000004158495972366371220_" x="606.9" y="-365.6" transform="matrix(4.017235e-03 -1 1 4.017235e-03 970.9157 255.8947)" width="14.1" height="12.2"/>
	</defs>
	<clipPath id="SVGID_00000046316948875521093060000012704086158235255462_">
		<use xlink:href="#SVGID_00000074433365213444508260000004158495972366371220_"  style="overflow:visible;"/>
	</clipPath>
	
		<g transform="matrix(1 -4.656613e-10 0 1 0 0)" style="clip-path:url(#SVGID_00000046316948875521093060000012704086158235255462_);enable-background:new    ;">
		
			<use xlink:href="#Logo-feuille-tilleul"  width="105.2" height="92.3" x="-52.6" y="-46.2" transform="matrix(-5.375103e-04 0.1338 0.1324 5.316138e-04 613.9163 -359.4647)" style="overflow:visible;"/>
	</g>
</g>
<g>
	<defs>
		
			<rect id="SVGID_00000142859537142187033880000008448085426628943796_" x="613.1" y="-348.2" transform="matrix(0.8681 -0.4965 0.4965 0.8681 251.0891 262.4234)" width="12.2" height="14.1"/>
	</defs>
	<clipPath id="SVGID_00000076571350654273842030000013479720939157429434_">
		<use xlink:href="#SVGID_00000142859537142187033880000008448085426628943796_"  style="overflow:visible;"/>
	</clipPath>
	
		<g transform="matrix(1 0 0 1 6.103516e-05 0)" style="clip-path:url(#SVGID_00000076571350654273842030000013479720939157429434_);enable-background:new    ;">
		
			<use xlink:href="#Logo-feuille-tilleul"  width="105.2" height="92.3" x="-52.6" y="-46.2" transform="matrix(6.645692e-02 0.1162 0.1149 -6.572788e-02 619.2599 -341.181)" style="overflow:visible;"/>
	</g>
</g>
<g>
	<defs>
		
			<rect id="SVGID_00000170278836553957336390000008465111133948864703_" x="662.8" y="-335" transform="matrix(0.8681 -0.4965 0.4965 0.8681 251.6372 289.1483)" width="14.1" height="12.2"/>
	</defs>
	<clipPath id="SVGID_00000172416798126286326320000018164418579063964319_">
		<use xlink:href="#SVGID_00000170278836553957336390000008465111133948864703_"  style="overflow:visible;"/>
	</clipPath>
	<g style="clip-path:url(#SVGID_00000172416798126286326320000018164418579063964319_);enable-background:new    ;">
		
			<use xlink:href="#Logo-feuille-tilleul"  width="105.2" height="92.3" x="-52.6" y="-46.2" transform="matrix(0.1162 -6.645692e-02 -6.572788e-02 -0.1149 669.8191 -328.8482)" style="overflow:visible;"/>
	</g>
</g>
<g>
	<defs>
		
			<rect id="SVGID_00000111881175429672424430000001812535116236547969_" x="675.9" y="-348.7" transform="matrix(0.5036 -0.8639 0.8639 0.5036 635.0163 419.9725)" width="14.1" height="12.2"/>
	</defs>
	<clipPath id="SVGID_00000011739579535340461090000013346065124677116800_">
		<use xlink:href="#SVGID_00000111881175429672424430000001812535116236547969_"  style="overflow:visible;"/>
	</clipPath>
	
		<g transform="matrix(1 2.980232e-08 0 1 0 -3.051758e-05)" style="clip-path:url(#SVGID_00000011739579535340461090000013346065124677116800_);enable-background:new    ;">
		
			<use xlink:href="#Logo-feuille-tilleul"  width="105.2" height="92.3" x="-52.6" y="-46.2" transform="matrix(6.738792e-02 -0.1156 -0.1144 -6.664866e-02 682.9813 -342.6177)" style="overflow:visible;"/>
	</g>
</g>
<g>
	<defs>
		
			<rect id="SVGID_00000147909649450092411280000008144051043435626407_" x="680.5" y="-367.2" transform="matrix(4.017235e-03 -1 1 4.017235e-03 1045.8505 327.8133)" width="14.1" height="12.2"/>
	</defs>
	<clipPath id="SVGID_00000060752415117591156450000011482270682736775331_">
		<use xlink:href="#SVGID_00000147909649450092411280000008144051043435626407_"  style="overflow:visible;"/>
	</clipPath>
	
		<g transform="matrix(1 -4.656613e-10 0 1 0 0)" style="clip-path:url(#SVGID_00000060752415117591156450000011482270682736775331_);enable-background:new    ;">
		
			<use xlink:href="#Logo-feuille-tilleul"  width="105.2" height="92.3" x="-52.6" y="-46.2" transform="matrix(5.375103e-04 -0.1338 -0.1324 -5.316138e-04 687.4955 -361.1235)" style="overflow:visible;"/>
	</g>
</g>
<g>
	<defs>
		
			<rect id="SVGID_00000079474268538280225070000009095833751614269830_" x="676" y="-386.4" transform="matrix(0.8681 -0.4965 0.4965 0.8681 278.3621 288.6003)" width="12.2" height="14.1"/>
	</defs>
	<clipPath id="SVGID_00000129900945626039559120000008787975561924438411_">
		<use xlink:href="#SVGID_00000079474268538280225070000009095833751614269830_"  style="overflow:visible;"/>
	</clipPath>
	<g style="clip-path:url(#SVGID_00000129900945626039559120000008787975561924438411_);enable-background:new    ;">
		
			<use xlink:href="#Logo-feuille-tilleul"  width="105.2" height="92.3" x="-52.6" y="-46.2" transform="matrix(-6.645692e-02 -0.1162 -0.1149 6.572788e-02 682.1519 -379.4072)" style="overflow:visible;"/>
	</g>
</g>
<g>
	<defs>
		
			<rect id="SVGID_00000029732550183080301070000017199854504190254523_" x="662.3" y="-399.6" transform="matrix(0.5036 -0.8639 0.8639 0.5036 670.9205 382.5688)" width="12.2" height="14.1"/>
	</defs>
	<clipPath id="SVGID_00000165933520708779892750000001675332975978077372_">
		<use xlink:href="#SVGID_00000029732550183080301070000017199854504190254523_"  style="overflow:visible;"/>
	</clipPath>
	
		<g transform="matrix(1 0 -2.980232e-08 1 0 -3.051758e-05)" style="clip-path:url(#SVGID_00000165933520708779892750000001675332975978077372_);enable-background:new    ;">
		
			<use xlink:href="#Logo-feuille-tilleul"  width="105.2" height="92.3" x="-52.6" y="-46.2" transform="matrix(-0.1156 -6.738792e-02 -6.664866e-02 0.1144 668.3824 -392.5695)" style="overflow:visible;"/>
	</g>
</g>
<g>
	<defs>
		
			<rect id="SVGID_00000047035145592391600230000011845173750616058025_" x="640.4" y="-387.3" transform="matrix(0.9832 -0.1826 0.1826 0.9832 80.8452 111.2972)" width="9" height="7.8"/>
	</defs>
	<clipPath id="SVGID_00000103230749688101148710000009518540824829935002_">
		<use xlink:href="#SVGID_00000047035145592391600230000011845173750616058025_"  style="overflow:visible;"/>
	</clipPath>
	
		<g transform="matrix(1 0 -1.490116e-08 1 0 0)" style="clip-path:url(#SVGID_00000103230749688101148710000009518540824829935002_);enable-background:new    ;">
		
			<use xlink:href="#Logo-feuille-tilleul"  width="105.2" height="92.3" x="-52.6" y="-46.2" transform="matrix(-8.409549e-02 1.561721e-02 1.544589e-02 8.317295e-02 644.8585 -383.4104)" style="overflow:visible;"/>
	</g>
</g>
<g>
	<defs>
		
			<rect id="SVGID_00000057108438932280233550000000769677672110909603_" x="629.5" y="-381.8" transform="matrix(0.7602 -0.6497 0.6497 0.7602 397.5659 321.3098)" width="9" height="7.8"/>
	</defs>
	<clipPath id="SVGID_00000160167521882339178160000011788000891443938181_">
		<use xlink:href="#SVGID_00000057108438932280233550000000769677672110909603_"  style="overflow:visible;"/>
	</clipPath>
	
		<g transform="matrix(1 -2.980232e-08 0 1 0 0)" style="clip-path:url(#SVGID_00000160167521882339178160000011788000891443938181_);enable-background:new    ;">
		
			<use xlink:href="#Logo-feuille-tilleul"  width="105.2" height="92.3" x="-52.6" y="-46.2" transform="matrix(-6.502023e-02 5.557264e-02 5.496301e-02 6.430695e-02 634.0165 -377.876)" style="overflow:visible;"/>
	</g>
</g>
<g>
	<defs>
		
			<rect id="SVGID_00000152227772612311581750000008535532880508447379_" x="622.9" y="-371.6" transform="matrix(0.3335 -0.9428 0.9428 0.3335 764.7949 346.4276)" width="9" height="7.8"/>
	</defs>
	<clipPath id="SVGID_00000032635268321496084310000006594231450075584148_">
		<use xlink:href="#SVGID_00000152227772612311581750000008535532880508447379_"  style="overflow:visible;"/>
	</clipPath>
	
		<g transform="matrix(1 0 0 1 0 3.051758e-05)" style="clip-path:url(#SVGID_00000032635268321496084310000006594231450075584148_);enable-background:new    ;">
		
			<use xlink:href="#Logo-feuille-tilleul"  width="105.2" height="92.3" x="-52.6" y="-46.2" transform="matrix(-2.852285e-02 8.063743e-02 7.975283e-02 2.820995e-02 627.3942 -367.6622)" style="overflow:visible;"/>
	</g>
</g>
<g>
	<defs>
		
			<rect id="SVGID_00000170265904787092787670000000460036469401984650_" x="622.9" y="-360" transform="matrix(0.9832 -0.1826 0.1826 0.9832 75.4466 108.4632)" width="7.8" height="9"/>
	</defs>
	<clipPath id="SVGID_00000140734229370601404360000017375007105108093837_">
		<use xlink:href="#SVGID_00000170265904787092787670000000460036469401984650_"  style="overflow:visible;"/>
	</clipPath>
	
		<g transform="matrix(1 1.490116e-08 0 1 0 0)" style="clip-path:url(#SVGID_00000140734229370601404360000017375007105108093837_);enable-background:new    ;">
		
			<use xlink:href="#Logo-feuille-tilleul"  width="105.2" height="92.3" x="-52.6" y="-46.2" transform="matrix(1.561721e-02 8.409549e-02 8.317295e-02 -1.544589e-02 626.7661 -355.5056)" style="overflow:visible;"/>
	</g>
</g>
<g>
	<defs>
		
			<rect id="SVGID_00000138563403523337354600000011485543029256204703_" x="628.4" y="-349.2" transform="matrix(0.7602 -0.6497 0.6497 0.7602 375.578 328.1594)" width="7.8" height="9"/>
	</defs>
	<clipPath id="SVGID_00000138557417797468639590000010782498319984704654_">
		<use xlink:href="#SVGID_00000138563403523337354600000011485543029256204703_"  style="overflow:visible;"/>
	</clipPath>
	
		<g transform="matrix(1 0 2.980232e-08 1 0 0)" style="clip-path:url(#SVGID_00000138557417797468639590000010782498319984704654_);enable-background:new    ;">
		
			<use xlink:href="#Logo-feuille-tilleul"  width="105.2" height="92.3" x="-52.6" y="-46.2" transform="matrix(5.557264e-02 6.502023e-02 6.430695e-02 -5.496301e-02 632.3004 -344.6636)" style="overflow:visible;"/>
	</g>
</g>
<g>
	<defs>
		
			<rect id="SVGID_00000162324306021522047840000008053065285859841441_" x="667.6" y="-357.1" transform="matrix(0.3335 -0.9428 0.9428 0.3335 780.9437 398.2674)" width="9" height="7.8"/>
	</defs>
	<clipPath id="SVGID_00000108280854276434088140000007256230897415552416_">
		<use xlink:href="#SVGID_00000162324306021522047840000008053065285859841441_"  style="overflow:visible;"/>
	</clipPath>
	
		<g transform="matrix(1 0 0 1 0 -3.051758e-05)" style="clip-path:url(#SVGID_00000108280854276434088140000007256230897415552416_);enable-background:new    ;">
		
			<use xlink:href="#Logo-feuille-tilleul"  width="105.2" height="92.3" x="-52.6" y="-46.2" transform="matrix(2.852285e-02 -8.063743e-02 -7.975283e-02 -2.820995e-02 672.1353 -353.1613)" style="overflow:visible;"/>
	</g>
</g>
<g>
	<defs>
		
			<rect id="SVGID_00000110458453215209137300000006349093173975916720_" x="668.9" y="-369.8" transform="matrix(0.9832 -0.1826 0.1826 0.9832 78.0112 116.6959)" width="7.8" height="9"/>
	</defs>
	<clipPath id="SVGID_00000028310587369359314690000011333703590755422376_">
		<use xlink:href="#SVGID_00000110458453215209137300000006349093173975916720_"  style="overflow:visible;"/>
	</clipPath>
	
		<g transform="matrix(1 1.490116e-08 0 1 0 0)" style="clip-path:url(#SVGID_00000028310587369359314690000011333703590755422376_);enable-background:new    ;">
		
			<use xlink:href="#Logo-feuille-tilleul"  width="105.2" height="92.3" x="-52.6" y="-46.2" transform="matrix(-1.561721e-02 -8.409549e-02 -8.317295e-02 1.544589e-02 672.7634 -365.3179)" style="overflow:visible;"/>
	</g>
</g>
<g>
	<defs>
		
			<rect id="SVGID_00000060711611809633195930000016726352580275364770_" x="663.3" y="-380.7" transform="matrix(0.7602 -0.6497 0.6497 0.7602 404.4155 343.2978)" width="7.8" height="9"/>
	</defs>
	<clipPath id="SVGID_00000059999305885464905000000011092068321417368219_">
		<use xlink:href="#SVGID_00000060711611809633195930000016726352580275364770_"  style="overflow:visible;"/>
	</clipPath>
	
		<g transform="matrix(1 0 2.980232e-08 1 0 3.051758e-05)" style="clip-path:url(#SVGID_00000059999305885464905000000011092068321417368219_);enable-background:new    ;">
		
			<use xlink:href="#Logo-feuille-tilleul"  width="105.2" height="92.3" x="-52.6" y="-46.2" transform="matrix(-5.557264e-02 -6.502023e-02 -6.430695e-02 5.496301e-02 667.229 -376.1599)" style="overflow:visible;"/>
	</g>
</g>
<g>
	<defs>
		
			<rect id="SVGID_00000150088889768018836910000010333258405174587809_" x="653.1" y="-387.3" transform="matrix(0.3335 -0.9428 0.9428 0.3335 798.7892 364.2731)" width="7.8" height="9"/>
	</defs>
	<clipPath id="SVGID_00000083072385463906243160000000959107441599960245_">
		<use xlink:href="#SVGID_00000150088889768018836910000010333258405174587809_"  style="overflow:visible;"/>
	</clipPath>
	
		<g transform="matrix(1 0 0 1 0 3.051758e-05)" style="clip-path:url(#SVGID_00000083072385463906243160000000959107441599960245_);enable-background:new    ;">
		
			<use xlink:href="#Logo-feuille-tilleul"  width="105.2" height="92.3" x="-52.6" y="-46.2" transform="matrix(-8.063743e-02 -2.852285e-02 -2.820995e-02 7.975283e-02 657.0151 -382.7823)" style="overflow:visible;"/>
	</g>
</g>
</svg>
