<?xml version="1.0" encoding="utf-8"?>
<!-- Generator: Adobe Illustrator 27.2.0, SVG Export Plug-In . SVG Version: 6.00 Build 0)  -->
<svg version="1.1" id="Calque_1" xmlns="http://www.w3.org/2000/svg" xmlns:xlink="http://www.w3.org/1999/xlink" x="0px" y="0px"
	 viewBox="0 0 531.3 189.8" style="enable-background:new 0 0 531.3 189.8;" xml:space="preserve">
<style type="text/css">
	.st0{fill:#FFFFFF;}
	.st1{stroke:#000000;stroke-width:2.8346;stroke-miterlimit:10;}
	.st2{display:none;}
	.st3{display:inline;}
	.st4{fill:#F9B31F;}
	.st5{fill:#EC661B;}
	.st6{display:inline;fill:#F9B31F;}
	.st7{display:none;fill:#69B53B;}
	.st8{display:inline;fill:#69B53B;}
	.st9{display:none;fill:#B03860;}
	.st10{display:none;fill:none;}
	.st11{fill:#F9B318;}
	.st12{fill:#97C22A;}
	.st13{fill:#69B53B;}
	.st14{fill:#EB661B;}
	.st15{opacity:0.9694;fill:#EC661B;enable-background:new    ;}
	.st16{enable-background:new    ;}
	.st17{fill:#100B07;}
</style>
<g>
	<g>
		<g>
			<g>
				<path class="st0" d="M25.5,186.5c-11.9,0-21.6-9.7-21.6-21.6V25.5c0-5.8,2.2-11.2,6.3-15.3c4.1-4.1,9.6-6.4,15.4-6.4h479.6
					c11.9,0,21.6,9.7,21.6,21.6v139.4c0,12-9.7,21.7-21.6,21.7H25.5z"/>
				<path d="M505.2,5.2c11.1,0,20.2,9,20.2,20.2v139.4c0,11.2-9,20.3-20.2,20.3H25.5c-11.1,0-20.2-9-20.2-20.2V25.5
					c0-5.4,2.1-10.5,5.9-14.3c3.8-3.8,9-6,14.4-6H505.2 M505.2,2.4H25.6c-6.2,0-12,2.4-16.4,6.8c-4.4,4.4-6.7,10.2-6.7,16.3v139.4
					c0,12.7,10.3,23,23,23h479.7c12.7,0,23-10.4,23-23.1V25.4C528.2,12.7,517.9,2.4,505.2,2.4L505.2,2.4z"/>
			</g>
			<path class="st1" d="M505.1,2.9c12.4,0,22.5,10.1,22.5,22.5v139.4c0,12.5-10.1,22.6-22.5,22.6H25.5C13.1,187.4,3,177.3,3,164.9
				V25.5c0-6,2.3-11.7,6.5-15.9c4.3-4.3,10-6.7,16-6.7L505.1,2.9 M505.1,1.9H25.5C12.5,1.9,1.9,12.5,2,25.5v139.4
				c0,13,10.5,23.5,23.5,23.5h479.6c13,0,23.5-10.6,23.5-23.6V25.4C528.6,12.4,518.1,1.9,505.1,1.9L505.1,1.9z"/>
		</g>
	</g>
</g>
<g>
	<g id="lettrage_00000052095626338285168430000011883428286781217953_">
		<g class="st2">
			<g class="st3">
				<g>
					<path class="st4" d="M1766.5,1178.5L1766.5,1178.5c11.7,1.7,64.2-41,63.8-73.7c1.3-38.3-69.8-55.8-87.3-22
						C1726,1111.3,1755.4,1175.9,1766.5,1178.5z"/>
				</g>
				<path class="st4" d="M1676.2,1240.9l0.1-108.1l0,0v-39.7c14.9,0.3,29.3,7.6,38.1,21c1.7,2.6,4.2,10,4.2,10
					c6.6,40.3,29.6,80.9,40.3,83.4l0,0c11.3,1.6,45.6-21,69.3-53.1l4-4.1c0-0.1,0.1-0.1,0.1-0.1l0,0c2.3-1.9,4.8-3.6,7.5-5.1
					c14-7.7,30.2-7.5,43.5-0.8l-18.6,35.1l0,0l-50.4,95.6c-4.4,8.4-8.4,16.1-11.1,21.2c-0.4,0.8-0.9,1.5-1.3,2.3l-4.3,8.1l-0.2-0.3
					c-14.1,23.4-28.1,36.5-40.5,43.4c-3.3,2.3-7.1,4.2-11.1,5.6c-8.3,2.8-16.9,2.8-24.7,0.6v0.2c-8.1-1.7-15.7-5.8-21.9-12.2
					c-3-3.1-5.4-6.5-7.2-10.1c-7.7-12-14-30.1-15.5-57.3l-0.3,0.2v-9.1c0-0.9,0-1.7-0.1-2.6
					C1676.1,1259,1676.1,1250.4,1676.2,1240.9z"/>
			</g>
			<g class="st3">
				<g>
					<path class="st5" d="M1923.1,1260.9L1923.1,1260.9c9.6,6.9,75.9-6.5,90.8-35.6c18.9-33.3-35.8-81.9-67.1-60.1
						C1918.6,1182.7,1914.5,1253.5,1923.1,1260.9z"/>
				</g>
				<path class="st5" d="M1814.2,1274.2l50.4-95.6l0,0l18.5-35.2c13,7.1,22.4,20.4,23.9,36.3c0.3,3.1-0.9,10.9-0.9,10.9
					c-12.9,38.8-11.5,85.4-3.1,92.6l0,0c9.3,6.7,50.1,2.6,86.1-14.8l5.4-1.8c0.1,0,0.1-0.1,0.2-0.1l0,0c2.9-0.6,5.9-1,9-1.1
					c16-0.3,30.2,7.4,38.9,19.6l-32.8,22.4l0,0l-89.1,61.2c-7.8,5.4-14.9,10.3-19.7,13.6c-0.7,0.5-1.5,1-2.2,1.4l-7.5,5.2v-0.4
					c-23.4,14.1-41.8,19.2-56.1,19.6c-4,0.5-8.2,0.5-12.4-0.2c-8.6-1.4-16.2-5.4-22.2-11l-0.1,0.1c-6.3-5.3-11.2-12.4-13.7-21
					c-1.2-4.1-1.7-8.3-1.7-12.3c-1.3-14.2,1.6-33.1,13-58h-0.4l4.3-8.1c0.4-0.8,0.8-1.6,1.2-2.4
					C1805.7,1290.2,1809.7,1282.6,1814.2,1274.2z"/>
			</g>
			<path class="st6" d="M1848.9,1445.8c7-22.6,16.1-35.2,42.8-56.9l-0.4-0.1c19.3-13.3,97.6-66.8,118.7-81.3l0,0l32.7-22.5
				c45.7,81-114.7,57.9-126.8,248c-9.6,17.8-13.6,35.8-15,33.2C1897.4,1560.3,1827.4,1577.5,1848.9,1445.8z"/>
		</g>
		<path class="st7" d="M1679.6,1532c-176.3-140.6-244.5-57.1-244.5-0.4c2.4,134.1,144,351.6,244.7,351.6L1679.6,1532z"/>
		<g class="st2">
			<path class="st8" d="M1489.1,1631c-1-0.3-2.1-0.4-3.1-0.4c-4.6,0-9,2.4-11.4,6.7c-0.3,0.5-0.6,1-0.8,1.5c-1.7,3.9-1.4,8.4,0.8,12
				c2.2,3.6,6,6,10.3,6.3c0.4,0,1.8,0.1,4,0.1c7.1,0,22.7-0.8,41.9-6.8c-1.5,15.6-4.7,31-9.4,46.2c-4.9,15.6-10.7,28.4-15.8,38
				c5.2,8.4,10.5,16.7,16,24.8c12.1-19.2,33.9-61.7,36.3-120.3c18.6-9.9,38.3-25.2,55.8-48.7c2.5-3.3,3.2-7.6,2.1-11.5v-0.1
				c-1.7-5.7-6.9-9.3-12.5-9.3c-1.2,0-2.5,0.2-3.8,0.5c-3.1,0.9-5.6,2.9-7.3,5.4c-11.1,14.7-23,25.5-34.8,33.4
				c-1.6-21.8-6.1-45.4-14.5-70.4c-1.5-4.5-5.4-7.9-10.2-8.7h-0.2c-0.8-0.1-1.5-0.2-2.3-0.2c-6.3,0-11.8,4.5-12.9,10.9
				c-0.5,3.1,0,6,1.4,8.6c8.1,24.7,12.5,49.2,13,73.4c-19.7,7.8-36,8.7-42.4,8.7C1489.4,1631,1489.2,1631,1489.1,1631z"/>
			<path class="st8" d="M1501.1,1690.2c1.3-4.2,2.5-8.4,3.5-12.6c-6.6,0.7-12,0.9-15.7,0.9c-2.8,0-4.6-0.1-5.5-0.2
				c-3.1-0.2-6.1-0.9-9-1.9c5.6,12.1,11.8,24.1,18.3,35.9C1495.6,1705.9,1498.5,1698.5,1501.1,1690.2z"/>
			<path class="st8" d="M1679.6,1532c-176.3-140.6-244.5-57.1-244.5-0.4c0.5,29.4,7.8,62.9,19.8,97.2c0.4-0.8,0.8-1.6,1.1-2.1
				c6.1-10.7,17.6-17.4,29.9-17.4c1.7,0,3.3,0.1,5,0.4c3.4-0.1,10.1-0.6,18.7-2.6c-1.6-16.6-5.2-33.4-10.6-50.1
				c-2.9-6.3-3.8-13.4-2.6-20.3c2.9-16.5,17.1-28.5,33.9-28.5l0,0c2,0,4,0.2,5.9,0.5h0.2c12.4,2.2,22.7,10.9,26.7,22.9
				c3.8,11.4,7,22.8,9.5,34.3c0.8-0.9,1.5-1.9,2.3-2.9c4.5-6.5,11-11.3,18.6-13.5c3.2-0.9,6.5-1.4,9.8-1.4c15.1,0,28.7,10.1,33,24.6
				v0.1c3.1,10.4,1,21.7-5.4,30.4c-14.9,19.9-32.5,36.3-52.3,48.6c-5.5,65.4-32.4,110.1-43.6,126.2c45.6,61,99.4,105.3,144.9,105.3
				L1679.6,1532z"/>
		</g>
		<g>
			<path class="st7" d="M1489.6,1631c-1-0.3-2.1-0.4-3.1-0.4c-4.6,0-9,2.4-11.4,6.7c-0.3,0.5-0.6,1-0.8,1.5c-1.7,3.9-1.4,8.4,0.8,12
				c2.2,3.6,6,6,10.3,6.3c0.4,0,1.8,0.1,4,0.1c7.1,0,22.7-0.8,41.9-6.8c-1.5,15.6-4.7,31-9.4,46.2c-4.9,15.6-10.7,28.4-15.8,38
				c5.2,8.4,10.5,16.7,16,24.8c12.1-19.2,33.9-61.7,36.3-120.3c18.6-9.9,38.3-25.2,55.8-48.7c2.5-3.3,3.2-7.6,2.1-11.5v-0.1
				c-1.7-5.7-6.9-9.3-12.5-9.3c-1.2,0-2.5,0.2-3.8,0.5c-3.1,0.9-5.6,2.9-7.3,5.4c-11.1,14.7-23,25.5-34.8,33.4
				c-1.6-21.8-6.1-45.4-14.5-70.4c-1.5-4.5-5.4-7.9-10.2-8.7h-0.2c-0.8-0.1-1.5-0.2-2.3-0.2c-6.3,0-11.8,4.5-12.9,10.9
				c-0.5,3.1,0,6,1.4,8.6c8.1,24.7,12.5,49.2,13,73.4c-19.7,7.8-36,8.7-42.4,8.7C1489.9,1631,1489.7,1631,1489.6,1631z"/>
		</g>
		<path class="st9" d="M1679.1,1534.3c-176.3-140.6-243.4-58.8-243.4-2.1c0.5,29.4,7.8,62.9,19.8,97.2c0.4-0.8,0.8-1.6,1.1-2.1
			c6.1-10.7,17.6-17.4,29.9-17.4c1.7,0,15.1-0.2,23.6-2.3c-1.6-16.6-5.2-33.3-10.6-50.1c-2.9-6.3-3.8-13.4-2.6-20.3
			c2.9-16.5,17.1-28.5,33.9-28.5l0,0c2,0,4,0.2,5.9,0.5h0.2c12.4,2.2,22.7,10.9,26.7,22.9c3.8,11.4,7,22.8,9.5,34.3
			c0.8-0.9,1.5-1.9,2.3-2.9c4.5-6.5,11-11.3,18.6-13.5c3.2-0.9,6.5-1.4,9.8-1.4c15.1,0,28.7,10.1,33,24.6v0.1
			c3.1,10.4,1,21.7-5.4,30.4c-7.5,10.1-15.8,19.2-24.6,27.4c0.2,1.8,7.3,40.9,17.7,60.7c17.2,36.5,43.1,57.7,54.5,66.5
			C1679.8,1757.5,1679.1,1534.3,1679.1,1534.3z"/>
	</g>
	<rect x="902.6" y="559.3" class="st10" width="1294.1" height="1294.1"/>
</g>
<g>
	<path class="st5" d="M84.7,18.8c-3-5.8-15.1-2.8-14.8,3.7c-0.1,5.6,8.8,12.8,10.8,12.5l0,0C82.6,34.6,87.6,23.7,84.7,18.8z"/>
</g>
<g>
	<g>
		<path class="st5" d="M84.7,18.8c-3-5.8-15.1-2.8-14.8,3.7c-0.1,5.6,8.8,12.8,10.8,12.5l0,0C82.6,34.6,87.6,23.7,84.7,18.8z"/>
	</g>
	<path class="st5" d="M96.1,45.7V27.3l0,0v-6.8c-2.5,0-5,1.3-6.5,3.6c-0.3,0.4-0.7,1.7-0.7,1.7c-1.1,6.9-5,13.8-6.9,14.2l0,0
		c-1.9,0.3-7.8-3.6-11.8-9l-0.7-0.7l0,0l0,0c-0.4-0.3-0.8-0.6-1.3-0.9c-2.4-1.3-5.1-1.3-7.4-0.1l3.2,6l0,0l8.6,16.3
		c0.7,1.4,1.4,2.7,1.9,3.6c0.1,0.1,0.1,0.3,0.2,0.4l0.7,1.4v-0.1c2.4,4,4.8,6.2,6.9,7.4c0.6,0.4,1.2,0.7,1.9,0.9
		c1.4,0.5,2.9,0.5,4.2,0.1l0,0c1.4-0.3,2.7-1,3.7-2.1c0.5-0.5,0.9-1.1,1.2-1.7c1.3-2,2.4-5.1,2.6-9.8H96v-1.6c0-0.1,0-0.3,0-0.4
		C96.1,48.8,96.1,47.3,96.1,45.7z"/>
</g>
<g>
	<path class="st11" d="M50.2,33c-5.3-3.7-14.6,4.6-11.4,10.2c2.5,5,13.8,7.2,15.4,6l0,0C55.7,48,55,35.9,50.2,33z"/>
</g>
<path class="st11" d="M72.7,51.5l-8.6-16.3l0,0l-3.1-6c-2.2,1.2-3.8,3.5-4.1,6.2c0,0.5,0.1,1.9,0.1,1.9c2.2,6.6,1.9,14.5,0.5,15.8
	l0,0c-1.6,1.1-8.5,0.4-14.6-2.5L42,50.3l0,0l0,0c-0.5-0.1-1-0.2-1.5-0.2c-2.7-0.1-5.1,1.3-6.6,3.3l5.6,3.8l0,0l15.1,10.4
	c1.3,0.9,2.5,1.8,3.3,2.3c0.1,0.1,0.3,0.2,0.4,0.3l1.3,0.9v-0.2c4,2.4,7.1,3.3,9.5,3.3c0.7,0.1,1.4,0.1,2.1,0
	c1.5-0.2,2.8-0.9,3.8-1.9l0,0c1.1-0.9,1.9-2.1,2.3-3.6c0.2-0.7,0.3-1.4,0.3-2.1c0.2-2.4-0.3-5.6-2.2-9.9h0.1l-0.7-1.4
	c-0.1-0.1-0.1-0.3-0.2-0.4C74.2,54.2,73.5,52.9,72.7,51.5z"/>
<g>
	<path class="st5" d="M111.2,35.1L111.2,35.1c2,0.3,10.9-7,10.8-12.5c0.2-6.5-11.9-9.5-14.8-3.7C104.3,23.7,109.3,34.6,111.2,35.1z"
		/>
</g>
<g>
	<g>
		<path class="st11" d="M111.2,35.1L111.2,35.1c2,0.3,10.9-7,10.8-12.5c0.2-6.5-11.9-9.5-14.8-3.7C104.3,23.7,109.3,34.6,111.2,35.1
			z"/>
	</g>
	<path class="st11" d="M95.9,45.7V27.3l0,0v-6.8c2.5,0,5,1.3,6.5,3.6c0.3,0.4,0.7,1.7,0.7,1.7c1.1,6.9,5,13.8,6.9,14.2l0,0
		c1.9,0.3,7.8-3.6,11.8-9l0.7-0.7l0,0l0,0c0.4-0.3,0.8-0.6,1.3-0.9c2.4-1.3,5.1-1.3,7.4-0.1l-3.2,6l0,0l-8.6,16.3
		c-0.7,1.4-1.4,2.7-1.9,3.6c-0.1,0.1-0.1,0.3-0.2,0.4l-0.7,1.4v-0.1c-2.4,4-4.8,6.2-6.9,7.4c-0.6,0.4-1.2,0.7-1.9,0.9
		c-1.4,0.5-2.9,0.5-4.2,0.1l0,0c-1.4-0.3-2.7-1-3.7-2.1c-0.5-0.5-0.9-1.1-1.2-1.7c-1.3-2-2.4-5.1-2.6-9.8H96v-1.6c0-0.1,0-0.3,0-0.4
		C95.8,48.8,95.8,47.3,95.9,45.7z"/>
</g>
<g>
	<g>
		<path class="st5" d="M137.8,49.1L137.8,49.1c1.6,1.2,12.9-1.1,15.4-6c3.2-5.7-6.1-13.9-11.4-10.2C137,35.8,136.4,47.8,137.8,49.1z
			"/>
	</g>
	<path class="st5" d="M119.3,51.4l8.6-16.3l0,0l3.1-6c2.2,1.2,3.8,3.5,4.1,6.2c0,0.5-0.1,1.9-0.1,1.9c-2.2,6.6-1.9,14.5-0.5,15.8
		l0,0c1.6,1.1,8.5,0.4,14.6-2.5l0.9-0.3l0,0l0,0c0.5-0.1,1-0.2,1.5-0.2c2.7-0.1,5.1,1.3,6.6,3.3l-5.6,3.8l0,0l-15.1,10.4
		c-1.3,0.9-2.5,1.8-3.3,2.3c-0.1,0.1-0.3,0.2-0.4,0.3l-1.3,0.9v-0.1c-4,2.4-7.1,3.3-9.5,3.3c-0.7,0.1-1.4,0.1-2.1,0
		c-1.5-0.2-2.8-0.9-3.8-1.9l0,0c-1.1-0.9-1.9-2.1-2.3-3.6c-0.2-0.7-0.3-1.4-0.3-2.1c-0.2-2.4,0.3-5.6,2.2-9.9h-0.1l0.7-1.4
		c0.1-0.1,0.1-0.3,0.2-0.4C117.8,54.1,118.5,52.8,119.3,51.4z"/>
</g>
<g>
	<path class="st12" d="M96.3,95.2c30-23.9,41.6-9.7,41.6-0.1c-0.4,22.8-24.5,59.8-41.6,59.8V95.2z"/>
	<path class="st11" d="M158.2,53.2l-5.6,3.8l0,0c-3.6,2.5-16.9,11.5-20.2,13.8h0.1c-4.5,3.7-6.1,5.8-7.3,9.7c-0.1,0.5-0.1,1-0.2,1.5
		c6.7,0.3,10.6,4.3,12.1,8.6C141.3,63.4,165.5,66.3,158.2,53.2z"/>
	<path class="st13" d="M96.4,95.2c-30-23.9-41.5-9.7-41.5-0.1c0.4,22.8,24.4,59.8,41.6,59.8L96.4,95.2z"/>
	<path class="st5" d="M67.1,82.1c-0.1-0.5-0.1-0.9-0.2-1.5c-1.2-3.8-2.7-6-7.3-9.7h0.1c-3.3-2.3-16.6-11.4-20.2-13.8l0,0l-5.6-3.8
		c-7.5,13.3,17.6,10.1,21.2,39C56.2,87.5,60,82.7,67.1,82.1z"/>
</g>
<path class="st5" d="M67,81"/>
<path class="st13" d="M480,18.8L480,18.8c-0.6-2.1-2.4-3.6-4.5-3.6c-1.7,0-3.2,0.8-4,2.1c-24.8,23.6-51.9,32.1-70.4,35.2
	c-16.6,2.7-29.3,1.6-33.5,1.1c-1.7-0.8-3.8-0.6-5.3,0.7c-0.3,0.3-0.5,0.5-0.7,0.8c-1.1,1.3-1.3,3.1-0.7,4.7c0.6,1.6,2,2.7,3.6,3
	c0.4,0.1,6.1,1,15.4,1c6.1,0,13.8-0.4,22.4-1.8c3-0.5,6.2-1.1,9.6-1.9c-16.3,20.2-22.3,40.7-24.4,55.2c-2.6,17.9,0,30.4,0.1,30.9
	c0.4,1.7,1.6,3.1,3.3,3.6c0.4,0.1,0.9,0.2,1.3,0.2c1.2,0,2.4-0.5,3.3-1.3c0.1-0.1,0.3-0.3,0.5-0.5c1.3-1.5,1.4-3.6,0.6-5.2
	c-0.5-3.5-1.7-13.5,0.3-26.6c3.2-21.5,12.1-40.9,27.8-57.4c0.5-0.7,2.1-2.4,2.7-3.3c16.1-5.8,34.2-15.5,51.3-31.9
	C480,22.4,480.5,20.5,480,18.8z"/>
<path class="st13" d="M464.6,133.4c-0.5,0-1.1-0.1-1.6-0.3c-1.6-0.6-2.8-2-3.1-3.6c-0.3-1.7,0.3-3.5,1.7-4.7l0,0
	c1.8-2.1,9-11.2,6.2-25.8c-0.2-0.6-0.2-1.2-0.1-1.9c0.3-2.6,2.7-4.5,5.3-4.1l0,0c2,0.3,3.7,1.8,4.1,3.8c4.4,21.8-8.6,34.7-9.2,35.2
	C467.1,132.9,465.9,133.4,464.6,133.4z"/>
<path class="st13" d="M475.3,151c-0.2,0-0.5,0-0.7-0.1c-1.7-0.3-3.1-1.4-3.7-2.9c0,0,0-0.1-0.1-0.1c-0.9-2-0.2-4.4,1.6-5.7
	c2-2.7,7.2-10.7,11.1-22.5c6.4-19.5,6.4-39.9-0.2-60.8c-0.5-0.9-0.7-2-0.5-3.1c0.4-2.6,2.9-4.3,5.5-3.9h0.1c1.7,0.3,3.2,1.6,3.7,3.2
	c9.3,28.9,5.2,52.9,0.2,67.9c-5.5,16.3-13.1,25.8-13.5,26.2C478.1,150.3,476.7,151,475.3,151z M471.1,148.4L471.1,148.4L471.1,148.4
	z M471.1,148.4L471.1,148.4L471.1,148.4z"/>
<g>
	<path class="st14" d="M366.1,74.7l-0.1-0.1c-2.3-1.3-5.2-0.5-6.5,1.8c-0.6,1.1-0.7,2.2-0.5,3.3c-0.6,18-6.1,34-16.3,47.4
		c-6.8,9-17.9,16.8-18.6,16.8c-0.6,0-14.4-9.9-21.8-21.7c-1.2,4.2-2.5,7.9-4,11.2c8.9,11.8,17.9,17.5,18.7,18
		c0.3,0.2,0.7,0.4,1.1,0.5c1.8,1,3.9,1.5,6,1.6c3,0,5.9-1.1,8.1-3c3.4-2.2,35.3-23.9,36.4-71.5C368.6,77.2,367.7,75.5,366.1,74.7z"
		/>
</g>
<circle id="circle5652-8_00000118365188968234139300000018369237311316370819_" class="st13" cx="467.2" cy="80.7" r="6.2"/>
<path class="st14" d="M301.7,69.9L301.7,69.9c-0.8-2.6-3.4-4-5.9-3.2c-1.1,0.3-2,1.1-2.6,2c-4,5.3-8.4,9.3-12.7,12.2
	c-0.6-7.9-2.2-16.5-5.3-25.6c-0.6-1.7-2-2.9-3.7-3.2h-0.1c-2.6-0.4-5.1,1.3-5.5,3.9c-0.2,1.1,0,2.2,0.5,3.1c3,9,4.5,17.9,4.7,26.7
	c-7.3,2.9-13.4,3.2-15.6,3.2c-2-0.5-4.2,0.4-5.3,2.3c-0.1,0.2-0.2,0.4-0.3,0.5c-0.6,1.4-0.5,3.1,0.3,4.4s2.2,2.2,3.7,2.3
	c0.1,0,0.7,0,1.5,0c2.6,0,8.3-0.3,15.3-2.5c-0.6,5.7-1.7,11.3-3.4,16.8c-3.3,10.5-7.8,17.6-9.5,20.1c-1.6,1.3-2.3,3.5-1.5,5.5
	c0,0.1,0.1,0.4,0.3,0.6c0.7,1.5,2.1,2.5,3.8,2.6c0.2,0,0.3,0,0.5,0c1.4,0,2.8-0.7,3.7-1.8c0.8-1,14.9-19.1,16.1-47.9
	c6.8-3.6,13.9-9.2,20.3-17.7C301.8,72.9,302.1,71.3,301.7,69.9z"/>
<circle id="circle1100-4-9_00000049203305824053492520000009056488675067846545_" class="st5" cx="380.9" cy="86.6" r="6.2"/>
<path class="st5" d="M218.7,52.8c-0.9-3.9-3.1-6.7-6.3-7.9c-2.3-0.8-4.8-0.7-7.2,0.4c-0.4,0.1-0.9,0.2-1.3,0.4
	c-1.7,0.9-42,22.5-69.7,95.2c-0.4,1.1-0.4,2.4,0,3.5v0.1c1,2.4,3.7,3.6,6.2,2.7c0.5-0.2,0.9-0.5,1.3-0.8c0.8-0.5,1.5-1.3,1.8-2.2
	c10.3-16.4,24-28.2,40.8-35.1c10.2-4.2,18.5-5.2,21.5-5.5c1.7-0.4,4.2-0.5,5.2-2.4c0.1-0.1,0.1-0.2,0.2-0.3c0.7-1.5,0.6-3.3-0.3-4.7
	s-2.4-2.3-4.1-2.2c-1.4,0-26.6,0.8-50.6,20.9c21.4-40.3,45.1-56.6,50.7-60c0.5-0.1,1-0.3,1.5-0.7c0.2-0.1,0.4-0.2,0.5-0.3
	c0.1,0.2,0.3,0.6,0.4,1.2c0.1,0.5,0.3,1,0.5,1.4c1,2.9,4.9,15.7,5.4,34.9c1.2-1,2.5-2,4-3c1.7-1.1,3.5-2.1,5.3-3
	C223.5,66.4,219.3,54.4,218.7,52.8z"/>
<path class="st14" d="M241.1,148.1c-6.7,0-13.1-2.3-18.3-6.7c-5.9-4.9-9.5-11.8-10.2-19.4s1.6-15.1,6.6-20.9
	c4.9-5.9,11.8-9.5,19.4-10.2h0.1c0.3,0,0.6,0,0.9-0.1c0.6-0.1,1.3-0.1,1.9,0.1c2.5,0.7,4,3.3,3.3,5.8c-0.5,2-2.4,3.5-4.4,3.5
	c-0.3,0-0.7,0-1,0.1c-5.1,0.5-9.7,2.9-12.9,6.8c-3.3,3.9-4.8,8.9-4.4,14c0.5,5.1,2.9,9.7,6.8,13c3.9,3.3,8.8,4.8,13.9,4.4
	c0.1,0,0.2,0,0.3,0c1.7-0.3,3.5,0.3,4.6,1.7l0.1,0.1c1.6,2.1,1.3,5.1-0.8,6.7c-0.9,0.7-2.1,1.1-3.2,1h-0.1
	C242.8,148,242,148.1,241.1,148.1z"/>
<path class="st5" d="M355.3,147c-0.8,0-1.6-0.2-2.3-0.6c-1.5-0.9-2.4-2.5-2.4-4.2c0-1.8,1-3.4,2.5-4.2c2.5-2.1,12.6-11.9,17.9-32.3
	c0.1-0.4,0.2-0.8,0.4-1.2c1.1-2.4,3.9-3.5,6.3-2.3l0,0c2.1,1,3.2,3.3,2.6,5.5c-6.9,27-21.5,38-22.1,38.4
	C357.3,146.6,356.3,147,355.3,147z M350.6,143L350.6,143L350.6,143z M350.6,143L350.6,143L350.6,143z M350.5,141.8L350.5,141.8
	L350.5,141.8z"/>
<path class="st13" d="M455.3,132.8L455.3,132.8c-1.7-0.2-3.2,0.4-4.2,1.6c-10.7,5.7-25.2,8.9-32,3.6c-2.2-1.7-3.7-3.9-4.6-6.4
	c1.4,0.2,3.2,0.4,5.4,0.4c7.4,0,18.6-2,29.4-11.5c0.2-0.1,0.3-0.3,0.5-0.5l0,0c4.4-4.1,7-9.7,7.3-15.8c0.2-6.1-1.9-11.9-6-16.3
	s-9.7-7-15.8-7.3c-6.1-0.2-11.9,1.9-16.3,6.1c-0.1,0.1-0.3,0.3-0.4,0.4s-0.2,0.2-0.3,0.3c-6.5,6.3-10,13-11.9,18.9
	c-0.2,0.4-0.4,0.9-0.5,1.4c-0.1,0.4-0.2,0.9-0.2,1.3c-0.6,2.5-0.9,4.8-1.1,6.8c-1.4,11.1-0.7,22.4,8.8,29.8
	c4.3,3.4,9.8,4.8,15.8,4.8c9.1,0,19.3-3.3,27.6-8c0.6-0.3,1.1-0.7,1.5-1.3c0.7-0.7,1.3-1.7,1.4-2.8
	C459.8,135.5,457.9,133.1,455.3,132.8z M424.3,94.4c0.2-0.1,0.4-0.3,0.5-0.5c0.2-0.2,0.3-0.3,0.4-0.4c5.3-4.9,13.7-4.6,18.6,0.7l0,0
	c2.4,2.6,3.6,5.9,3.5,9.5c-0.1,3.5-1.6,6.7-4.2,9.1c-0.1,0.1-0.2,0.1-0.3,0.2c-0.2,0.2-0.4,0.4-0.6,0.6
	c-12.9,11.1-26.1,8.6-28.2,8.1c-0.1,0-0.2-0.1-0.3-0.1c0,0,0,0,0-0.1c-0.1-0.8-0.2-2.4-0.1-4.5c0.2-2,0.6-4.1,1-6.4
	C416.1,105.8,418.8,100,424.3,94.4z"/>
<circle id="circle5642-3_00000060719602759435733750000004586606411698733226_" class="st14" cx="291.9" cy="97.2" r="6.2"/>
<path class="st14" d="M290.4,132c0.2-0.5,0.5-1.1,0.7-1.6c0.5-1.2,1.1-2.6,1.6-4c0.3-0.9,0.7-1.9,1-2.8c0.3-0.8,0.5-1.7,0.8-2.5
	c0.2-0.7,0.4-1.4,0.6-2.1c1-3.6,1.8-7.5,2.4-11.9c0-0.3,0-0.5,0-0.8c-1.8,1.3-3.9,2-6.3,2c-1.2,0-2.4-0.2-3.5-0.6l0,0
	c-0.1,0.6-0.2,1.2-0.3,1.8l0,0c-0.1,0.6-0.2,1.2-0.3,1.7l0,0c-0.1,0.6-0.2,1.1-0.4,1.7c0,0,0,0,0,0.1c-0.1,0.5-0.3,1.1-0.4,1.6
	c0,0,0,0,0,0.1c-0.1,0.5-0.3,1.1-0.4,1.6c0,0,0,0,0,0.1c-0.1,0.5-0.3,1-0.4,1.5c0,0,0,0,0,0.1c-0.1,0.5-0.3,1-0.4,1.4c0,0,0,0,0,0.1
	c-0.1,0.5-0.3,0.9-0.4,1.4c0,0,0,0,0,0.1c-0.1,0.5-0.3,0.9-0.5,1.3c0,0,0,0,0,0.1c-0.2,0.4-0.3,0.9-0.5,1.3c0,0,0,0,0,0.1
	c-0.2,0.4-0.3,0.8-0.5,1.2l0,0c-0.2,0.4-0.3,0.8-0.5,1.2c0,0,0,0,0,0.1c-0.2,0.4-0.3,0.8-0.5,1.1c0,0,0,0,0,0.1
	c-0.2,0.4-0.3,0.7-0.5,1.1c0,0,0,0,0,0.1c-0.2,0.4-0.3,0.7-0.5,1c0,0,0,0,0,0.1c-0.2,0.3-0.3,0.7-0.5,1c0,0,0,0,0,0.1
	c-0.2,0.3-0.3,0.6-0.5,0.9l0,0c-0.2,0.3-0.3,0.6-0.5,0.9l0,0c-0.2,0.3-0.3,0.6-0.5,0.8c0,0,0,0,0,0.1c-0.2,0.3-0.3,0.5-0.5,0.8
	c0,0,0,0,0,0.1c-0.1,0.3-0.3,0.5-0.5,0.7c0,0,0,0,0,0.1c-0.1,0.2-0.3,0.5-0.4,0.7c0,0,0,0,0,0.1c-0.1,0.2-0.3,0.4-0.4,0.6
	c0,0,0,0,0,0.1c-0.1,0.2-0.3,0.4-0.4,0.6c0,0,0,0-0.1,0.1c-0.1,0.2-0.3,0.3-0.4,0.5c0,0,0,0-0.1,0.1c-0.1,0.2-0.2,0.3-0.3,0.5
	c0,0,0,0,0,0.1c-0.1,0.1-0.2,0.3-0.3,0.4c0,0,0,0.1-0.1,0.1c-0.1,0.1-0.2,0.2-0.3,0.3l-0.1,0.1c-0.1,0.1-0.1,0.2-0.2,0.3L275,140
	c-0.1,0.1-0.1,0.1-0.2,0.2l-0.1,0.1c0,0.1-0.1,0.1-0.1,0.2c-0.1,0.1-0.1,0.2-0.2,0.2c-1.3,0.9-2.1,2.5-2,4.2c0,0,0,0,0,0.1
	c0.1,1.9,1.3,3.5,3,4.2c0.6,0.2,1.2,0.3,1.8,0.3c0.6,0,1.2-0.1,1.7-0.3s1.1-0.5,1.5-0.9c0.2-0.2,1.6-1.5,3.6-4.1
	c0.4-0.5,0.8-1.1,1.2-1.7s0.9-1.3,1.3-2c0.9-1.5,1.9-3.1,2.9-5C289.5,134.1,290,133.1,290.4,132z"/>
<path class="st15" d="M210.2,133c0,0-8.9,17.2,0.5,20C215.5,154.5,223.4,147.6,210.2,133z"/>
<g class="st16">
	<path class="st17" d="M122.2,156.3h10.5v1.8h-8.6v5.8h8.6v1.8h-8.6v7.2h8.6v1.8h-10.5V156.3z"/>
	<path class="st17" d="M137.4,163.5c1.4-1.8,3.1-2.8,5.1-2.8c3,0,5,2,5,6.3v7.6h-1.7v-7.4c0-3.2-1-5-3.6-5c-1.5,0-2.7,0.6-3.6,1.8
		c-1,1.3-1.2,2.7-1.2,4.8v5.7h-1.7v-13.6h1.7V163.5z"/>
	<path class="st17" d="M152.8,156h1.7v5.1h2.8v1.5h-2.8v12h-1.7v-12h-2.4v-1.5h2.4V156z"/>
	<path class="st17" d="M161,163c1-1.5,2.1-2.3,3.5-2.3c0.8,0,1.2,0.3,1.6,0.5l-0.9,1.5c-0.2-0.1-0.5-0.3-0.9-0.3
		c-1.3,0-2.4,1.1-2.9,3c-0.2,0.9-0.3,2.3-0.3,4.1v5.2h-1.8v-13.6h1.8v1.9L161,163L161,163z"/>
	<path class="st17" d="M168.6,168c0.1,3.1,2.2,5.4,5.1,5.4c2.8,0,4.2-1.6,5.2-3.2l1.5,0.8c-1.4,2.7-3.5,4.1-6.5,4.1
		c-4.5,0-7.1-3.5-7.1-7.1c0-3.7,2.7-7.2,7-7.2c3.9,0,7,2.8,7,7.3h-12.2V168z M178.9,166.4c-0.7-2.8-2.7-4.1-5.1-4.1
		c-2.4,0-4.2,1.3-5,4.1H178.9z"/>
	<path class="st17" d="M185.8,163.5c1.4-1.9,3.2-2.8,5.4-2.8c4,0,7,3.2,7,7.1s-3,7.2-7,7.2c-2.1,0-4-0.9-5.4-2.7v7.3h-1.7v-18.5h1.7
		V163.5z M185.7,167.9c0,3.4,2.6,5.5,5.4,5.5c3,0,5.4-2.6,5.4-5.5s-2.2-5.5-5.4-5.5C188.1,162.4,185.7,164.8,185.7,167.9z"/>
	<path class="st17" d="M202.6,163c1-1.5,2.1-2.3,3.5-2.3c0.8,0,1.2,0.3,1.6,0.5l-0.9,1.5c-0.2-0.1-0.5-0.3-0.9-0.3
		c-1.3,0-2.4,1.1-2.9,3c-0.2,0.9-0.3,2.3-0.3,4.1v5.2h-1.8v-13.6h1.8v1.9L202.6,163L202.6,163z"/>
	<path class="st17" d="M211.3,156.9c0,0.8-0.7,1.5-1.5,1.5s-1.4-0.7-1.4-1.5s0.7-1.4,1.4-1.4C210.6,155.5,211.3,156.1,211.3,156.9z
		 M209,161.1h1.7v13.6H209V161.1z"/>
	<path class="st17" d="M214.1,171.8c0.9,1,1.8,1.5,2.8,1.5c1.3,0,2.5-1,2.5-2.2c0-0.8-0.5-1.5-1.1-1.9c-3.1-1.7-4.7-2.5-4.7-4.9
		c0-2.1,1.7-3.6,3.7-3.6c1.5,0,2.6,0.7,3.8,1.8l-1.1,1.2c-0.8-0.8-1.6-1.3-2.7-1.3c-1.1,0-2,0.8-2,1.8c0,0.7,0.4,1.5,1,1.8
		c3.1,1.8,4.9,2.5,4.9,5c0,2.1-1.6,4-4.1,4c-1.5,0-3-0.7-4-1.9L214.1,171.8z"/>
	<path class="st17" d="M225.4,168c0.1,3.1,2.2,5.4,5.1,5.4c2.8,0,4.2-1.6,5.2-3.2l1.5,0.8c-1.4,2.7-3.5,4.1-6.5,4.1
		c-4.5,0-7.1-3.5-7.1-7.1c0-3.7,2.7-7.2,7-7.2c3.9,0,7,2.8,7,7.3h-12.2V168z M235.7,166.4c-0.7-2.8-2.7-4.1-5.1-4.1
		c-2.4,0-4.2,1.3-5,4.1H235.7z"/>
	<path class="st17" d="M259.7,161.1h1.7v13.6h-1.7v-2.3c-1.5,1.8-3.3,2.7-5.5,2.7c-4,0-7-3.3-7-7.2s3.1-7.1,7-7.1
		c2.2,0,4.1,0.9,5.4,2.8v-2.5H259.7z M249.1,167.9c0,2.9,2.3,5.5,5.3,5.5c2.8,0,5.4-2.1,5.4-5.5c0-3.1-2.4-5.5-5.4-5.5
		C251.3,162.4,249.1,164.9,249.1,167.9z M253.9,154.7l2.7,3.9h-1.7l-3.7-3.9H253.9z"/>
	<path class="st17" d="M272.8,174.6v-18.3h3.9c3.9,0,5.6,1.9,5.6,4.5c0,1.6-0.8,3-2.4,3.9c2.6,0.9,3.9,2.5,3.9,4.8
		c0,2.7-2.1,5.3-6,5.3h-5V174.6z M274.6,164h1.2c1.4,0,2.5-0.2,3.2-0.7c0.8-0.5,1.3-1.5,1.3-2.5c0-1.6-1.2-2.7-3.3-2.7h-2.4
		L274.6,164L274.6,164z M274.6,172.8h2.2c0.8,0,1.6-0.1,2.2-0.2c1.2-0.1,2.8-1.4,2.8-3.3c0-1.2-0.7-2.3-1.8-2.9
		c-1.1-0.6-2.5-0.7-4.2-0.7h-1.3L274.6,172.8L274.6,172.8z"/>
	<path class="st17" d="M297,161.1h1.8v7c0,4.6-2.1,6.9-6,6.9s-6-2.3-6-6.9v-7h1.8v6.6c0,1.4,0,2.6,0.4,3.4c0.6,1.4,2,2.2,3.8,2.2
		c1.3,0,2.4-0.5,3.1-1.2c1.1-1.2,1-2.5,1-4.4v-6.6H297z"/>
	<path class="st17" d="M304.2,156h1.7v5.1h2.8v1.5h-2.8v12h-1.7v-12h-2.4v-1.5h2.4V156z"/>
	<path class="st17" d="M330.2,172.3c-1.5,1.8-3.3,2.7-5.5,2.7c-4,0-7-3.3-7-7.2s3.1-7.1,7-7.1c2.2,0,4.1,0.9,5.4,2.8v-7.7h1.7v18.8
		h-1.7v-2.3H330.2z M319.6,167.9c0,2.9,2.3,5.5,5.3,5.5c2.8,0,5.4-2.1,5.4-5.5c0-3.1-2.3-5.5-5.4-5.5S319.6,164.9,319.6,167.9z"/>
	<path class="st17" d="M339.3,158.2c0,1.9-0.3,3-1,4.4l-1-0.6c0.4-0.8,0.7-1.4,0.9-2.9h-1.1v-3.4h2.2V158.2z"/>
	<path class="st17" d="M345.2,156.3h10.5v1.8h-8.6v5.8h8.6v1.8h-8.6v7.2h8.6v1.8h-10.5V156.3z"/>
	<path class="st17" d="M369.5,174.6h-1.7v-7c0-1-0.1-1.9-0.1-2.5c-0.1-1.5-1.3-2.8-3.1-2.8c-1.2,0-2.4,0.6-3.2,1.6
		c-1,1.3-1.2,2.9-1.2,4.9v5.8h-1.7V161h1.7v2.3c1.2-1.7,2.7-2.7,4.7-2.7c2.1,0,3.6,1.1,4.3,3.3c1.2-2.2,3-3.3,5-3.3
		c2.8,0,4.6,2,4.6,5.9v8.1h-1.7v-7.4c0-1-0.1-1.8-0.2-2.3c-0.1-1.2-1.2-2.5-3.1-2.5c-1.7,0-3.2,1-3.9,2.8c-0.4,1.1-0.5,2.3-0.5,3.6
		v5.8L369.5,174.6L369.5,174.6z"/>
	<path class="st17" d="M384.3,163.5c1.4-1.9,3.2-2.8,5.4-2.8c4,0,7,3.2,7,7.1s-3,7.2-7,7.2c-2.1,0-4-0.9-5.4-2.7v7.3h-1.7v-18.5h1.7
		V163.5z M384.2,167.9c0,3.4,2.6,5.5,5.4,5.5c3,0,5.4-2.6,5.4-5.5s-2.2-5.5-5.4-5.5C386.5,162.4,384.2,164.8,384.2,167.9z"/>
	<path class="st17" d="M399.7,155.8h1.7v18.8h-1.7V155.8z"/>
	<path class="st17" d="M418.6,167.9c0,3.9-3,7.1-7.1,7.1s-7.1-3.2-7.1-7.1c0-3.9,3-7.2,7.1-7.2S418.6,164,418.6,167.9z M406.2,167.9
		c0,3,2.2,5.4,5.3,5.4c3,0,5.3-2.4,5.3-5.4s-2.4-5.5-5.3-5.5C408.6,162.4,406.2,164.9,406.2,167.9z"/>
	<path class="st17" d="M423.9,156.9c0,0.8-0.7,1.5-1.5,1.5s-1.4-0.7-1.4-1.5s0.7-1.4,1.4-1.4C423.2,155.5,423.9,156.1,423.9,156.9z
		 M421.6,161.1h1.7v13.6h-1.7V161.1z"/>
</g>
</svg>
