<?xml version="1.0" encoding="utf-8"?>
<!-- Generator: Adobe Illustrator 27.2.0, SVG Export Plug-In . SVG Version: 6.00 Build 0)  -->
<svg version="1.1" id="Calque_1" xmlns="http://www.w3.org/2000/svg" xmlns:xlink="http://www.w3.org/1999/xlink" x="0px" y="0px"
	 viewBox="0 0 1417.3 1417.3" style="enable-background:new 0 0 1417.3 1417.3;" xml:space="preserve">
<style type="text/css">
	.st0{fill:#0D0021;}
	.st1{fill:#FFFFFF;}
	.st2{fill:#EB651A;}
	.st3{fill:#EB661B;}
	.st4{fill:#F9B318;}
	.st5{fill:#EC661B;}
	.st6{fill:#F9B41F;}
	.st7{fill:#68B437;}
	.st8{fill:#1D1E1C;}
	.st9{display:none;}
	.st10{display:inline;}
	.st11{display:inline;fill:#F9B318;}
	.st12{display:none;fill:#68B437;}
	.st13{display:inline;fill:#68B437;}
	.st14{display:none;fill:#B13860;}
	.st15{fill:#97C22A;}
	.st16{fill:none;}
</style>
<g id="Calque_2_00000058560731783810646470000003848767716705979287_">
	<circle class="st0" cx="709.2" cy="710.8" r="703.6"/>
</g>
<g id="Calque_1_00000130648067889443030740000009464200916057719188_">
	<g>
		<path class="st1" d="M733.5,1182.3c1-0.9,1.5-2.2,1.4-3.7c-0.1-1.4-0.6-2.6-1.6-3.4s-2.5-1.2-4.6-1.1l-2.3,0.1l0.4,9.7l1.9-0.1
			C730.9,1183.8,732.5,1183.3,733.5,1182.3z"/>
		<path class="st1" d="M736.6,1193.1c-1.5-1.1-4-1.5-7.5-1.4l-1.8,0.1l0.5,11.8l2.2-0.1c3.6-0.2,6.1-0.7,7.3-1.7s1.8-2.3,1.7-4.1
			C738.9,1195.8,738.1,1194.2,736.6,1193.1z"/>
		<path class="st1" d="M669.7,1183.6c-2.6-0.2-4.9,0.5-6.8,2.3c-1.9,1.7-3,4.1-3.2,7s0.5,5.4,2.1,7.5c1.6,2,3.7,3.2,6.3,3.4
			c2.7,0.2,5-0.5,6.9-2.3s3-4.1,3.2-7.1s-0.4-5.4-2.1-7.4C674.6,1184.9,672.4,1183.8,669.7,1183.6z"/>
		<path class="st1" d="M608.5,1173.9c-2.3-0.5-4.5-0.3-6.6,0.6c-1.3,0.6-2.6,1.8-4,3.7l18.2,3.9c-0.1-2-0.9-3.7-2.3-5.3
			C612.4,1175.3,610.6,1174.3,608.5,1173.9z"/>
		<path class="st1" d="M468.4,1121.2c-0.8-1.9-2.2-3.4-4-4.5c-2-1.2-4.2-1.7-6.4-1.5c-1.4,0.1-3.1,0.9-5,2.2l15.9,9.6
			C469.4,1125,469.2,1123.1,468.4,1121.2z"/>
		<path class="st1" d="M502.1,1137.9c-2.4-1.2-4.8-1.3-7.3-0.4c-2.4,0.9-4.3,2.7-5.6,5.3c-1.3,2.7-1.6,5.3-0.8,7.8
			c0.8,2.5,2.4,4.3,4.8,5.5c2.4,1.1,4.8,1.2,7.2,0.3c2.4-0.9,4.3-2.7,5.6-5.4c1.3-2.6,1.5-5.2,0.8-7.6
			C506.1,1140.9,504.5,1139.1,502.1,1137.9z"/>
		<path class="st1" d="M858.2,1164.4c-2.2-1.2-4.7-1.4-7.3-0.6c-2.5,0.8-4.3,2.3-5.5,4.7c-1.1,2.3-1.2,4.9-0.4,7.7
			c0.9,2.8,2.5,4.9,4.7,6.1c2.3,1.3,4.6,1.5,7.1,0.8c2.6-0.8,4.4-2.4,5.6-4.7c1.1-2.3,1.2-4.9,0.3-7.8
			C862,1167.7,860.4,1165.6,858.2,1164.4z"/>
		<path class="st1" d="M1000.4,1089.3c-2.5-0.4-4.9,0.1-7,1.7c-2.2,1.6-3.4,3.7-3.7,6.2s0.4,5,2.2,7.4s4,3.9,6.5,4.3
			s4.9-0.1,7.1-1.8c2.1-1.6,3.3-3.6,3.6-6.2s-0.4-5.1-2.2-7.4S1002.9,1089.8,1000.4,1089.3z"/>
		<path class="st1" d="M1045.8,1049.7c-2.5-0.1-4.8,0.8-6.7,2.7c-1.9,1.9-2.9,4.1-2.9,6.6s1,4.9,3,7c2.1,2.1,4.4,3.3,6.9,3.4
			s4.8-0.8,6.7-2.6s2.9-4.1,2.9-6.7s-1-4.9-3.1-7C1050.7,1051,1048.4,1049.9,1045.8,1049.7z"/>
		<path class="st1" d="M709.2,19.6c-381.1,0-690.1,309-690.1,690.1s309,690.1,690.1,690.1s690.1-309,690.1-690.1
			S1090.4,19.6,709.2,19.6z M670.9,1158l6.5,12.9l-6.1-0.5l-10.5-13.2L670.9,1158z M550.6,1141.6c0.5-1.4,1.4-2.5,2.8-3.1
			c1.4-0.7,2.7-0.7,4.2-0.2c1.4,0.5,2.4,1.4,3.1,2.8c0.7,1.4,0.7,2.8,0.2,4.3c-0.5,1.4-1.4,2.5-2.8,3.2c-1.4,0.7-2.7,0.7-4.1,0.3
			c-1.4-0.5-2.5-1.5-3.1-2.9C550.1,1144.5,550.1,1143,550.6,1141.6z M358.5,1070l-17.6-18.1l33.1-32.2l17.6,18.1l-6.2,6l-11.5-11.8
			l-6,5.8l11.5,11.8l-6.1,5.9l-11.5-11.8l-8.7,8.5l11.5,11.8L358.5,1070z M382.6,1091.9l9.9-11.2c2.7-3.1,4.3-5.2,5-6.5
			c0.6-1.2,0.8-2.4,0.6-3.6c-0.2-1.1-0.8-2.1-1.8-3c-1.3-1.1-2.8-1.7-4.5-1.6c-1.7,0-3.4,0.7-5.1,1.9c-0.9,0.6-2.5,2.3-4.9,5
			l-9.1,10.3l-6.4-5.7l22.6-25.7l6.4,5.7l-2.3,2.6c2.5,0,4.6,0.4,6.2,0.9c1.6,0.6,3,1.4,4.3,2.5c2.5,2.2,3.9,5,4.1,8.4
			c0.2,2.8-1.1,5.7-3.7,8.7l-14.9,17L382.6,1091.9z M399.1,1105.3l16.4-21.2l-3.5-2.7l4.5-5.8l3.5,2.7l7.7-10l6.8,5.2l-7.7,10l4,3.1
			l-4.5,5.8l-4-3.1l-16.4,21.2L399.1,1105.3z M437,1102.2c-1.7,0.8-3.9,3.2-6.6,7.1l-0.9,1.4l-7.9,11.3l-7-4.9l19.6-28l6,4.2
			l-2.5,3.5c1.6-0.9,3.2-1.4,4.8-1.3c1.6,0,3,0.5,4.3,1.4c0.9,0.6,1.7,1.5,2.3,2.7l-6.4,4.5c-0.5-1-1.1-1.7-1.6-2
			C440.1,1101.3,438.7,1101.4,437,1102.2z M458.2,1144.3c-2.8-0.3-5.7-1.3-8.6-3.1c-4.6-2.8-7.5-6.5-8.6-11.1s-0.4-9.1,2.2-13.5
			c2.7-4.5,6.4-7.3,11-8.5s9.2-0.5,13.5,2.1c4.6,2.8,7.5,6.5,8.6,11.2s0.2,9.5-2.7,14.3l-0.9,1.4l-23.6-14.2c-0.9,2.3-1,4.5-0.3,6.6
			s2.3,3.9,4.6,5.3c2.7,1.7,5.7,2.1,8.8,1.4l4.4,6.6C463.8,1144.1,461,1144.6,458.2,1144.3z M503.8,1164.2
			c-4.4,1.7-8.6,1.5-12.6-0.4c-1.8-0.9-3.3-2-4.5-3.4s-2.2-3.1-3-5.3l-7,14.5l-7.7-3.7l20.4-42l7.7,3.7l-1.6,3.4
			c2.1-0.7,4.1-1,6-0.9c2,0.1,3.9,0.6,5.7,1.5c4,1.9,6.7,5.1,8,9.5s0.8,9-1.5,13.7C511.5,1159.4,508.2,1162.5,503.8,1164.2z
			 M532.7,1153.6c-1.5,1.2-3.1,4-4.9,8.4l-0.6,1.6l-5.2,12.8l-7.9-3.2l12.8-31.7l6.8,2.7l-1.6,4c1.4-1.3,2.8-2.1,4.4-2.4
			c1.5-0.3,3.1-0.2,4.5,0.4c1,0.4,2,1.1,2.9,2.1l-5.2,5.8c-0.7-0.8-1.4-1.4-2-1.6C535.5,1152.1,534.2,1152.4,532.7,1153.6z
			 M537.4,1182.3l11.4-32.2l8.1,2.9l-11.4,32.2L537.4,1182.3z M569.7,1167.8c0.2,0.5,0.9,1.2,2,2.3l2.6,2.4c2.7,2.5,4.4,4.8,5.1,6.7
			c0.7,2,0.7,4.1,0.1,6.2c-0.9,2.9-2.7,5-5.4,6.3s-5.9,1.4-9.5,0.4c-4.8-1.4-8-4.4-9.8-9l6.7-4c0.6,1.4,1.5,2.7,2.6,3.7
			c1.1,1.1,2.1,1.8,3.1,2.1c1.1,0.3,2,0.3,2.9,0c0.8-0.3,1.3-0.8,1.5-1.5c0.4-1.3-0.4-2.9-2.5-4.8l-2.4-2.2c-4.5-4.2-6.2-8.4-5-12.4
			c0.8-2.6,2.4-4.5,5-5.7s5.4-1.4,8.5-0.5c2.1,0.6,4,1.7,5.6,3.2s2.8,3.3,3.6,5.4l-6.6,3.6c-1.5-2.7-3-4.2-4.7-4.7
			c-0.9-0.3-1.7-0.3-2.3-0.1c-0.6,0.2-1,0.6-1.2,1.2C569.4,1166.9,569.5,1167.4,569.7,1167.8z M623.4,1188.9l-0.4,1.6l-26.9-5.8
			c-0.1,2.5,0.5,4.6,1.9,6.3c1.4,1.8,3.4,2.9,6,3.5c3.1,0.7,6.1,0.2,8.8-1.5l6.3,4.8c-2.3,2.1-4.8,3.5-7.5,4.2s-5.8,0.6-9.1-0.1
			c-5.2-1.1-9.2-3.7-11.7-7.7c-2.6-4-3.3-8.5-2.3-13.5c1.1-5.1,3.7-9,7.7-11.6s8.5-3.5,13.4-2.4c5.3,1.1,9.2,3.7,11.7,7.8
			C623.9,1178.6,624.6,1183.4,623.4,1188.9z M685.1,1212.1l-8.5-0.7l0.3-3.6c-1.8,1.5-3.6,2.5-5.3,3c-1.7,0.6-3.6,0.8-5.5,0.6
			c-4.4-0.4-8.1-2.4-11-6c-2.9-3.7-4.2-8-3.8-13.1c0.4-5.3,2.3-9.4,5.7-12.6c3.4-3.1,7.3-4.5,11.7-4.1c2,0.2,3.9,0.7,5.7,1.6
			c1.7,0.9,3.3,2.2,4.7,3.9l0.3-3.8l8.5,0.7L685.1,1212.1z M1044.4,1016.6c1-1.1,2.3-1.7,3.8-1.7c1.5-0.1,2.9,0.4,4,1.5
			c1.1,1,1.7,2.3,1.8,3.8c0.1,1.5-0.4,2.8-1.4,3.9c-1,1.1-2.3,1.7-3.8,1.8c-1.5,0-2.9-0.5-4-1.5c-1.1-1-1.7-2.3-1.8-3.8
			C1042.9,1019,1043.3,1017.7,1044.4,1016.6z M746,1204.8c-1.2,2.2-2.9,3.9-5,5c-2.1,1.2-5,1.8-8.7,2l-12.9,0.6l-2.1-46.2l7.3-0.3
			c4.2-0.2,7.3-0.1,9.3,0.4c2.8,0.6,5.1,1.9,6.8,3.8s2.7,4.2,2.8,6.9c0.1,1.8-0.2,3.4-0.9,4.8c-0.7,1.5-1.8,2.9-3.4,4.2
			c2.9,1.2,5,2.7,6.4,4.7s2.1,4.2,2.3,6.9C747.8,1200.3,747.2,1202.7,746,1204.8z M786.6,1199.1c-0.8,2.8-2.2,5.1-4.3,6.8
			c-2,1.7-4.8,2.8-8.2,3.2c-3.7,0.5-6.8,0-9.3-1.3c-2.5-1.4-4.4-3.5-5.7-6.3c-0.9-2-1.7-5.7-2.4-11.1l-1.8-14.1l8.6-1.1l2.1,16.3
			c0.4,3.2,0.9,5.4,1.5,6.5s1.4,2,2.5,2.6s2.3,0.8,3.7,0.6s2.6-0.7,3.5-1.5s1.5-1.9,1.8-3.3c0.2-1,0.1-3.1-0.3-6.3l-2.1-16.6
			l8.5-1.1l1.9,14.4C787.2,1192.7,787.2,1196.8,786.6,1199.1z M801.7,1203.9l-5.1-26.3l-4.3,0.8l-1.4-7.2l4.3-0.8l-2.4-12.4l8.4-1.6
			l2.4,12.4l5-1l1.4,7.2l-5,1l5.1,26.3L801.7,1203.9z M867.7,1187l-1.1-3.5c-1.1,2-2.4,3.6-3.8,4.8s-3,2.1-4.9,2.6
			c-4.2,1.3-8.4,0.8-12.5-1.5s-6.9-5.9-8.4-10.7c-1.6-5-1.4-9.6,0.6-13.8c2-4.2,5.1-6.9,9.3-8.2c2-0.6,3.9-0.8,5.9-0.6
			c1.9,0.2,3.9,0.8,5.8,1.8l-5.1-16.2l8.2-2.6l14.2,45.2L867.7,1187z M880,1150.8l-3.7-1.1c0.3-1.3,0.5-2.4,0.5-3.3s0-2-0.2-3.4
			l-3,1.2l-3.3-8.4l7.4-2.9l1.6,4c1,2.6,1.5,4.9,1.6,7C881.1,1145.9,880.8,1148.3,880,1150.8z M907.8,1171.8l-19.2-42l22.9-10.5
			l3.6,7.8l-15,6.9l3.5,7.6l15-6.9l3.5,7.7l-15,6.9l5.1,11.1l15-6.9l3.6,7.9L907.8,1171.8z M978.4,1134.7l-8.8-15
			c-2-3.3-3.7-5.4-5.2-6.1s-3.1-0.6-4.8,0.4c-1.3,0.7-2.2,1.8-2.8,3.1c-0.6,1.3-0.7,2.7-0.5,4.3c0.3,1.6,1.2,3.8,2.9,6.6l7.8,13.3
			l-7.5,4.4l-8.4-14.3c-1.5-2.6-2.9-4.4-3.9-5.4s-2.2-1.5-3.3-1.6s-2.2,0.1-3.3,0.8c-1.2,0.7-2.1,1.7-2.7,3.1
			c-0.6,1.3-0.7,2.8-0.4,4.4s1.2,3.8,2.9,6.7l7.7,13.1l-7.4,4.3l-17.3-29.5l7.4-4.3l2,3.4c0.4-2.1,1.2-4,2.4-5.6s2.6-2.9,4.5-4
			c1.8-1.1,3.8-1.6,5.8-1.6s4,0.7,5.9,1.9c0.2-2.4,0.8-4.6,2-6.5s2.8-3.5,4.8-4.6c2.1-1.2,4.2-1.8,6.4-1.8s4.1,0.6,5.7,1.8
			c1.6,1.2,3.5,3.5,5.5,7.1l10.1,17.3L978.4,1134.7z M1017.5,1101.6c-0.5,4.7-2.6,8.3-6.1,11c-1.6,1.2-3.3,2-5,2.4s-3.8,0.5-6.1,0.3
			l9.6,12.9l-6.8,5.1l-27.9-37.4l6.8-5.1l2.3,3c0.3-2.2,1-4.1,1.9-5.8s2.3-3.2,3.9-4.4c3.6-2.7,7.6-3.6,12.1-2.7
			c4.5,0.8,8.4,3.4,11.5,7.6C1016.8,1092.6,1018,1096.9,1017.5,1101.6z M1031.1,1095.9l-30.7-36.1l6.5-5.5l30.7,36.1L1031.1,1095.9z
			 M1063.3,1064.5c-0.9,3.1-2.5,5.7-4.9,8.1c-3.5,3.4-7.7,5-12.7,4.9c-4.9-0.1-9.1-2-12.6-5.5c-3.7-3.8-5.4-8.4-5-13.7
			c0.3-4.6,2.1-8.5,5.3-11.6c2.3-2.2,5.1-3.8,8.2-4.6c3.2-0.8,6.3-0.8,9.3,0.1c3.1,0.9,5.7,2.5,7.9,4.8c2.2,2.3,3.8,5,4.5,8.2
			C1064.2,1058.4,1064.2,1061.5,1063.3,1064.5z M1077,1052.3l-25.2-23.1l5.8-6.3l25.2,23.1L1077,1052.3z"/>
	</g>
	<g>
		<g>
			<path class="st2" d="M983.2,342.7L983.2,342.7c10.7,7.7,84.8-7.2,101.4-39.8c21.1-37.2-40-91.5-74.9-67.1
				C978,255.2,973.5,334.3,983.2,342.7z"/>
		</g>
		<g>
			<g>
				<g>
					<path class="st3" d="M633.7,142.7c-19.5-37.8-99-18.2-97.5,24.6c-0.4,36.5,58.2,84.3,71.3,82.4l0,0
						C619.8,246.8,652.6,174.6,633.7,142.7z"/>
				</g>
				<path class="st3" d="M708.3,319.4l-0.1-120.8l0,0v-44.4c-16.6,0.3-32.8,8.5-42.6,23.5c-1.9,2.9-4.7,11.2-4.7,11.2
					c-7.4,45.1-33.1,90.4-45.1,93.2l0,0c-12.7,1.8-50.9-23.4-77.5-59.4l-4.4-4.6c0-0.1-0.1-0.1-0.1-0.1l0,0
					c-2.5-2.1-5.3-4.1-8.3-5.8c-15.6-8.6-33.8-8.4-48.6-0.9l20.8,39.2l0,0l56.4,106.8c4.9,9.4,9.4,18,12.4,23.7
					c0.5,0.9,1,1.7,1.4,2.6l4.8,9l0.2-0.4c15.8,26.1,31.4,40.7,45.3,48.5c3.7,2.6,7.9,4.7,12.4,6.2c9.3,3.1,18.8,3.1,27.6,0.7v0.2
					c9-1.9,17.6-6.4,24.4-13.6c3.3-3.5,6-7.3,8.1-11.3c8.6-13.4,15.6-33.6,17.3-64.1l0.4,0.2v-10.2c0-1,0-1.9,0.1-2.9
					C708.4,339.7,708.4,330,708.3,319.4z"/>
			</g>
			<g>
				<g>
					<g>
						<path class="st4" d="M406.7,235.8c-34.9-24.4-96.1,29.9-74.9,67.1c16.6,32.5,90.7,47.5,101.4,39.8l0,0
							C442.9,334.3,438.4,255.2,406.7,235.8z"/>
					</g>
					<path class="st4" d="M554.3,357.5L498,250.7l0,0l-20.6-39.3c-14.6,8-25.1,22.8-26.8,40.6c-0.3,3.4,1,12.1,1,12.1
						c14.4,43.3,12.8,95.4,3.5,103.5l0,0c-10.4,7.5-56,3-96.2-16.5l-6.1-2c-0.1,0-0.1-0.1-0.2-0.1l0,0c-3.2-0.7-6.6-1.1-10-1.2
						c-17.9-0.4-33.8,8.3-43.4,21.8l36.6,25.1l0,0l99.6,68.4c8.7,6.1,16.6,11.6,22,15.2c0.8,0.6,1.6,1.1,2.5,1.6l8.4,5.8v-0.4
						c26.1,15.8,46.7,21.5,62.7,21.9c4.5,0.6,9.2,0.5,13.9-0.2c9.7-1.6,18.1-6,24.8-12.2l0.1,0.2c7.1-5.9,12.6-13.9,15.3-23.4
						c1.3-4.6,1.9-9.2,1.9-13.8c1.4-15.9-1.8-37-14.5-64.8h0.4l-4.8-9c-0.4-0.9-0.9-1.7-1.3-2.6
						C563.9,375.4,559.4,366.9,554.3,357.5z"/>
				</g>
				<g>
					<path class="st5" d="M517.3,558.8c-0.4-3.1-0.9-6.2-1.4-9.5c-7.8-25.3-18-39.3-47.8-63.6l0.4-0.2
						c-21.6-14.9-109.1-74.6-132.6-90.8l0,0l-36.6-25.1c-49.2,87.3,117.1,65.2,140.8,254.9C447.1,593.3,470.6,562.6,517.3,558.8z"/>
				</g>
			</g>
		</g>
		<g>
			<g>
				<path class="st6" d="M809,249.7L809,249.7c13.1,1.9,71.7-45.9,71.3-82.4c1.4-42.8-78-62.4-97.5-24.6
					C763.8,174.6,796.6,246.8,809,249.7z"/>
			</g>
			<path class="st6" d="M708.1,319.4l0.1-120.8l0,0v-44.4c16.6,0.3,32.8,8.5,42.6,23.5c1.9,2.9,4.7,11.2,4.7,11.2
				c7.4,45.1,33.1,90.4,45.1,93.2l0,0c12.7,1.8,50.9-23.4,77.5-59.4l4.4-4.6c0-0.1,0.1-0.1,0.1-0.1l0,0c2.5-2.1,5.3-4.1,8.3-5.8
				c15.6-8.6,33.8-8.4,48.6-0.9l-20.8,39.2l0,0l-56.4,106.8c-4.9,9.4-9.4,18-12.4,23.7c-0.5,0.9-1,1.7-1.4,2.6l-4.8,9l-0.2-0.4
				c-15.8,26.1-31.4,40.7-45.3,48.5c-3.7,2.6-7.9,4.7-12.4,6.2c-9.3,3.1-18.8,3.1-27.6,0.7v0.2c-9-1.9-17.6-6.4-24.4-13.6
				c-3.3-3.5-6-7.3-8.1-11.3c-8.6-13.4-15.6-33.6-17.3-64.1L708,359v-10.2c0-1,0-1.9-0.1-2.9C708,339.7,708,330,708.1,319.4z"/>
		</g>
		<path class="st2" d="M862.1,357.5l56.3-106.9l0,0l20.6-39.3c14.6,8,25.1,22.8,26.8,40.6c0.3,3.4-1,12.1-1,12.1
			c-14.4,43.3-12.8,95.4-3.5,103.5l0,0c10.4,7.5,56,3,96.2-16.5l6.1-2c0.1,0,0.1-0.1,0.2-0.1l0,0c3.2-0.7,6.6-1.1,10-1.2
			c17.9-0.4,33.8,8.3,43.4,21.8l-36.6,25.1l0,0L981,463c-8.7,6.1-16.6,11.6-22,15.2c-0.8,0.6-1.6,1.1-2.5,1.6l-8.4,5.8v-0.4
			c-26.1,15.8-46.7,21.5-62.7,21.9c-4.5,0.6-9.2,0.5-13.9-0.2c-9.7-1.6-18.1-6-24.8-12.2l-0.1,0.2c-7.1-5.9-12.6-13.9-15.3-23.4
			c-1.3-4.6-1.9-9.2-1.9-13.8c-1.4-15.9,1.8-37,14.5-64.8h-0.4l4.8-9c0.4-0.9,0.9-1.7,1.3-2.6C852.5,375.4,857,366.9,862.1,357.5z"
			/>
		<path class="st7" d="M1185.3,540L1185.3,540c-1.8-6.3-7.4-10.9-13.8-10.9c-5.4,0-9.7,2.6-12.3,6.3
			c-76.1,72.3-159.3,98.6-215.9,107.8c-50.9,8.3-90,4.9-102.9,3.3c-5.2-2.5-11.6-1.9-16.2,2.2c-0.8,0.8-1.6,1.6-2.3,2.4
			c-3.2,4-4.1,9.5-2.3,14.3s6.1,8.4,11.1,9.2c1.2,0.2,18.8,3.2,47.1,3.2c18.7,0,42.2-1.3,68.8-5.6c9.2-1.5,19-3.4,29.4-5.8
			c-49.9,61.9-68.3,124.9-74.8,169.2c-8,54.9-0.1,93.3,0.3,94.9c1.1,5.3,5,9.5,10.2,11c1.4,0.4,2.7,0.6,4.1,0.6
			c3.7,0,7.4-1.4,10.1-4.1c0.5-0.4,1-1,1.6-1.7c3.8-4.6,4.4-10.9,1.9-15.9c-1.6-10.7-5.1-41.5,0.9-81.8
			c9.9-65.9,37.1-125.5,85.3-176.2c1.7-2.3,6.4-7.4,8.3-10.1c49.4-17.6,105-47.5,157.3-97.8C1185.3,550.9,1186.8,545.2,1185.3,540z"
			/>
		<path class="st7" d="M1138.2,891.5c-1.7,0-3.4-0.3-5-0.9c-4.9-1.8-8.4-6-9.4-11.1c-1-5.2,0.8-10.8,5.3-14.3l0.1-0.1
			c5.6-6.3,27.5-34.4,18.9-79.1c-0.5-1.8-0.7-3.8-0.4-5.8c1-8,8.3-13.7,16.3-12.7h0.1c6.2,0.8,11.2,5.5,12.5,11.6
			c13.4,66.7-26.5,106.5-28.2,108.1C1145.6,890.1,1142,891.5,1138.2,891.5z"/>
		<path class="st7" d="M1170.9,945.3c-0.7,0-1.5-0.1-2.2-0.2c-5.1-0.8-9.4-4.2-11.3-8.9c-0.1-0.1-0.1-0.3-0.2-0.4
			c-2.7-6.2-0.7-13.6,4.8-17.6c6.1-8.4,22.2-32.7,34.2-69.1c19.7-59.8,19.5-122.5-0.5-186.4c-1.5-2.8-2.1-6-1.5-9.4
			c1.4-8,8.9-13.3,16.9-11.9h0.3c5.4,0.9,9.8,4.8,11.4,10c28.4,88.8,16.1,162.2,0.7,208.2c-16.7,50.1-40.3,79.1-41.3,80.4
			C1179.4,943.4,1175.3,945.3,1170.9,945.3z M1158.1,937.5C1158.1,937.6,1158.1,937.6,1158.1,937.5
			C1158.1,937.6,1158.1,937.5,1158.1,937.5z M1158.1,937.5L1158.1,937.5L1158.1,937.5z"/>
		<g>
			<path class="st3" d="M836,711.4l-0.4-0.2c-7-4-16-1.4-19.9,5.6c-1.8,3.2-2.3,6.9-1.5,10.2c-1.8,55.2-18.6,104.2-50,145.5
				c-20.9,27.5-54.8,51.4-57.1,51.4c-1.9,0-44.1-30.3-66.8-66.6c-3.6,12.8-7.8,24.3-12.1,34.4c27.3,36.3,55,53.7,57.2,55.1
				c1.1,0.7,2.2,1.2,3.4,1.5c5.6,3.1,11.9,4.7,18.4,4.8c9.2,0,18-3.3,24.9-9.2c10.6-6.8,108.3-73.2,111.5-219.5
				C843.6,719.1,840.7,714,836,711.4z"/>
		</g>
		<circle id="circle5652-8_00000072271976352278693210000011283319261018575746_" class="st7" cx="1146.1" cy="729.9" r="19.1"/>
		<path class="st3" d="M638.2,696.6L638.2,696.6c-2.3-7.8-10.4-12.2-18.1-9.9c-3.5,1-6.3,3.2-8.1,6.1
			c-12.3,16.4-25.7,28.4-38.9,37.3c-1.8-24.3-6.8-50.7-16.2-78.6c-1.7-5.1-6.1-8.8-11.3-9.7h-0.3c-8-1.4-15.5,3.9-16.9,11.9
			c-0.6,3.4,0,6.8,1.6,9.6c9.1,27.6,13.9,55,14.6,82c-22.5,8.9-41.1,9.8-47.8,9.7c-6.3-1.5-13,1.2-16.2,7c-0.3,0.5-0.6,1.2-0.9,1.7
			c-1.9,4.4-1.6,9.4,0.9,13.4c2.5,4.1,6.8,6.7,11.5,7c0.4,0,2,0.1,4.5,0.1c7.9,0,25.4-0.9,46.8-7.6c-1.7,17.4-5.2,34.6-10.5,51.6
			c-10.1,32.3-24,54-29.3,61.6c-5,3.9-6.9,10.7-4.6,16.7c0.1,0.4,0.4,1.1,0.8,1.8c2.2,4.5,6.6,7.5,11.5,8.1c0.5,0.1,1,0.1,1.6,0.1
			c4.4,0,8.6-2,11.4-5.5c2.5-3.1,45.7-58.6,49.3-147.1c20.8-11.1,42.8-28.1,62.3-54.3C638.7,705.8,639.5,701,638.2,696.6z"/>
		<circle id="circle1100-4-9_00000039129695766659799250000017879593013396522937_" class="st5" cx="881.5" cy="747.9" r="19.1"/>
		<path class="st5" d="M383.8,644.3c-2.7-11.9-9.6-20.6-19.3-24.2c-7-2.5-14.7-2.1-22.1,1.2c-1.4,0.3-2.7,0.7-4,1.4
			c-5.2,2.7-128.7,68.9-213.7,292.1c-1.3,3.4-1.3,7.2,0.1,10.6l0.1,0.2c3,7.5,11.5,11.1,19,8.1c1.5-0.6,2.8-1.4,3.9-2.4
			c2.5-1.6,4.5-4,5.6-6.7c31.6-50.3,73.7-86.5,125.3-107.7c31.2-12.8,56.8-16,66.1-16.8c5.3-1.3,12.9-1.6,16-7.3
			c0.2-0.4,0.4-0.7,0.6-1c2.3-4.6,2-10-0.8-14.3s-7.5-6.9-12.6-6.8c-4.2,0.1-81.5,2.4-155.3,64.3
			c65.7-123.8,138.4-173.7,155.5-184.2c1.6-0.4,3.2-1,4.6-2c0.6-0.4,1.1-0.7,1.5-0.8c0.4,0.7,0.8,1.9,1.1,3.7c0.3,1.6,0.8,3,1.5,4.4
			c3,8.8,14.9,48,16.5,106.9c3.7-3.1,7.8-6.2,12.3-9.2c5.1-3.3,10.6-6.4,16.4-9.2C398.5,686,385.6,649.1,383.8,644.3z"/>
		<path class="st3" d="M452.5,936.5c-20.5,0-40.3-7.1-56.2-20.4c-18-15.1-29.1-36.2-31.2-59.6c-2.1-23.4,5-46.2,20.1-64.3
			c15.1-18,36.2-29.1,59.6-31.2c0.1,0,0.2,0,0.3,0c1-0.1,1.9-0.1,2.9-0.2c1.9-0.3,3.9-0.2,5.9,0.4c7.8,2.1,12.4,10.1,10.2,17.9
			c-1.7,6.2-7.2,10.6-13.6,10.9c-1,0-2.1,0.1-3.1,0.2c-15.6,1.4-29.7,8.8-39.7,20.8c-10.1,12-14.8,27.3-13.4,42.9
			c1.4,15.6,8.8,29.8,20.9,39.8c12,10,27.2,14.8,42.7,13.4c0.3,0,0.7-0.1,1-0.1c5.3-1,10.8,1,14.1,5.3l0.2,0.2
			c5,6.3,4,15.5-2.4,20.5c-2.9,2.3-6.4,3.3-9.7,3.2c-0.1,0-0.3,0-0.4,0C457.8,936.4,455.1,936.5,452.5,936.5z"/>
		<path class="st8" d="M657.6,681.3"/>
		<path class="st5" d="M357.5,891.6c0,0-27.3,52.9,1.6,61.4C374,957.4,398.1,936.4,357.5,891.6z"/>
		<path class="st5" d="M802.7,933.1c-2.5,0-4.9-0.6-7.2-1.9c-4.7-2.6-7.5-7.6-7.5-12.9c-0.1-5.4,2.9-10.5,7.7-13
			c7.6-6.6,38.6-36.6,54.9-99c0.2-1.3,0.6-2.5,1.2-3.8c3.4-7.3,12-10.6,19.3-7.2l0.1,0.1c6.4,3,9.8,10.1,8.1,16.9
			c-21.2,82.8-66,116.6-67.9,117.9C808.8,932.1,805.8,933.1,802.7,933.1z M788.4,920.9L788.4,920.9L788.4,920.9z M788.3,920.9
			L788.3,920.9L788.3,920.9z M788.1,917.2c0,0.1,0,0.1,0,0.2C788.1,917.3,788.1,917.3,788.1,917.2z"/>
		<path class="st7" d="M1109.7,889.6h-0.3c-4.8-0.6-9.5,1.3-12.7,4.8c-32.7,17.6-77.4,27.2-98.2,10.9c-6.8-5.3-11.2-11.9-14-19.8
			c4.3,0.6,9.9,1.1,16.5,1.1c22.7,0,57-6,90.1-35.3c0.5-0.4,1-0.9,1.4-1.5l0,0c13.6-12.7,21.6-29.9,22.3-48.5
			c0.7-18.6-5.9-36.4-18.5-50c-12.7-13.6-29.9-21.5-48.5-22.3c-18.6-0.7-36.4,5.9-50.1,18.6c-0.4,0.4-0.9,0.8-1.3,1.2
			c-0.3,0.3-0.7,0.6-1,0.9c-19.9,19.3-30.7,39.7-36.4,57.9c-0.7,1.3-1.3,2.8-1.6,4.3c-0.3,1.3-0.5,2.7-0.8,4
			c-1.8,7.6-2.8,14.6-3.3,20.8c-4.3,34.1-2.1,68.6,27.1,91.5c13.2,10.3,30.1,14.6,48.4,14.6c28,0,59.2-10.2,84.8-24.5
			c1.7-1,3.3-2.3,4.5-3.9c2.3-2.3,3.9-5.3,4.3-8.7C1123.4,897.8,1117.7,890.6,1109.7,889.6z M1014.6,771.9c0.6-0.4,1.1-0.9,1.6-1.5
			c0.5-0.5,1-1,1.4-1.4c16.4-15.2,42-14.2,57.1,2.2l0,0c7.3,7.9,11.2,18.2,10.7,29c-0.4,10.7-4.9,20.6-12.7,27.9
			c-0.3,0.2-0.5,0.4-0.8,0.6c-0.7,0.6-1.4,1.2-2,2c-39.5,33.9-80,26.4-86.4,24.9c-0.3-0.1-0.6-0.2-1-0.3c0-0.1,0-0.1-0.1-0.2
			c-0.3-2.6-0.7-7.4-0.4-13.8c0.7-6.1,1.8-12.7,3-19.5C989.2,806.9,997.4,788.9,1014.6,771.9z"/>
		<circle id="circle5642-3_00000046337143686691962360000017105595812652714136_" class="st3" cx="608.3" cy="780.5" r="19.1"/>
		<path class="st3" d="M603.9,887.2c0.7-1.6,1.5-3.3,2.2-5c1.7-3.8,3.3-7.9,4.9-12.2c1-2.8,2-5.7,3-8.7c0.8-2.5,1.6-5.1,2.4-7.7
			c0.6-2.1,1.2-4.3,1.8-6.5c2.9-11,5.4-23.1,7.2-36.4c0.1-0.8,0.1-1.6,0.1-2.4c-5.4,3.9-12.1,6.2-19.3,6.2c-3.7,0-7.3-0.6-10.6-1.8
			l0,0c-0.3,1.9-0.6,3.7-0.9,5.6v0.1c-0.3,1.8-0.7,3.6-1,5.4v0.1c-0.4,1.7-0.7,3.5-1.1,5.1c0,0.1,0,0.1,0,0.2
			c-0.4,1.7-0.8,3.3-1.2,5c0,0.1,0,0.1,0,0.2c-0.4,1.6-0.8,3.2-1.2,4.8c0,0.1,0,0.1,0,0.2c-0.4,1.6-0.8,3.1-1.3,4.6
			c0,0.1,0,0.1-0.1,0.2c-0.4,1.5-0.9,3-1.3,4.4c0,0.1,0,0.1-0.1,0.2c-0.4,1.5-0.9,2.9-1.4,4.3c0,0.1,0,0.1-0.1,0.2
			c-0.5,1.4-0.9,2.8-1.4,4.1c0,0.1,0,0.1-0.1,0.2c-0.5,1.3-1,2.7-1.5,3.9c0,0.1,0,0.1-0.1,0.2c-0.5,1.3-1,2.6-1.5,3.8
			c0,0,0,0.1-0.1,0.2c-0.5,1.2-1,2.5-1.5,3.7c0,0.1,0,0.1-0.1,0.2c-0.5,1.2-1,2.3-1.5,3.5c0,0.1,0,0.1-0.1,0.2
			c-0.5,1.1-1,2.2-1.5,3.3c0,0.1-0.1,0.1-0.1,0.2c-0.5,1.1-1,2.1-1.5,3.2c0,0.1-0.1,0.1-0.1,0.2c-0.5,1-1,2-1.5,3
			c0,0.1-0.1,0.1-0.1,0.2c-0.5,1-1,1.9-1.5,2.9c0,0-0.1,0.1-0.1,0.2c-0.5,0.9-1,1.8-1.5,2.7c0,0-0.1,0.1-0.1,0.2
			c-0.5,0.9-1,1.7-1.5,2.5c0,0.1-0.1,0.1-0.1,0.2c-0.5,0.8-1,1.6-1.4,2.4c0,0.1-0.1,0.1-0.1,0.2c-0.5,0.8-0.9,1.5-1.4,2.2
			c0,0.1-0.1,0.1-0.1,0.2c-0.5,0.7-0.9,1.4-1.3,2.1c0,0.1-0.1,0.1-0.1,0.2c-0.4,0.7-0.9,1.3-1.3,1.9c0,0.1-0.1,0.1-0.1,0.2
			c-0.4,0.6-0.8,1.2-1.2,1.7c-0.1,0.1-0.1,0.1-0.2,0.2c-0.4,0.5-0.8,1.1-1.1,1.6c-0.1,0.1-0.1,0.1-0.2,0.2c-0.4,0.5-0.7,1-1.1,1.4
			c0,0.1-0.1,0.1-0.2,0.2c-0.3,0.4-0.7,0.9-1,1.3c-0.1,0.1-0.1,0.2-0.2,0.3c-0.3,0.4-0.6,0.7-0.8,1.1c-0.1,0.1-0.2,0.2-0.3,0.4
			c-0.2,0.3-0.5,0.6-0.7,0.8c-0.1,0.1-0.2,0.2-0.3,0.4c-0.2,0.2-0.4,0.5-0.6,0.7c-0.1,0.1-0.2,0.2-0.3,0.4c-0.2,0.2-0.3,0.4-0.5,0.5
			c-0.2,0.3-0.5,0.5-0.7,0.7c-4,2.9-6.4,7.6-6.1,12.8c0,0.1,0,0.1,0,0.2c0.3,5.7,3.8,10.7,9.1,12.8c1.8,0.7,3.6,1.1,5.5,1.1
			c1.8,0,3.6-0.3,5.3-1s3.3-1.6,4.7-2.9c0.5-0.5,4.9-4.6,10.9-12.7c1.2-1.6,2.5-3.4,3.8-5.3c1.3-1.9,2.7-4,4.1-6.2
			c2.8-4.5,5.8-9.6,8.8-15.4C600.9,893.5,602.4,890.5,603.9,887.2z"/>
		<g id="lettrage_00000052095626338285168430000011883428286781217953_">
			<g class="st9">
				<g class="st10">
					<g>
						<path class="st4" d="M901.7,602.2L901.7,602.2c11.7,1.7,64.2-41,63.8-73.7c1.3-38.3-69.8-55.9-87.3-22
							C861.2,535,890.5,599.6,901.7,602.2z"/>
					</g>
					<path class="st4" d="M811.4,664.6l0.1-108.1l0,0v-39.7c14.9,0.3,29.3,7.6,38.1,21c1.7,2.6,4.2,10,4.2,10
						c6.6,40.3,29.6,80.9,40.3,83.5l0,0c11.3,1.6,45.6-21,69.3-53.2l4-4.1c0-0.1,0.1-0.1,0.1-0.1l0,0c2.3-1.9,4.8-3.7,7.5-5.1
						c14-7.7,30.2-7.5,43.5-0.8l-18.6,35.1l0,0l-50.4,95.6c-4.4,8.4-8.4,16.1-11.1,21.2c-0.4,0.8-0.8,1.5-1.3,2.3l-4.3,8.1l-0.2-0.3
						c-14.1,23.4-28.1,36.5-40.5,43.5c-3.3,2.3-7.1,4.2-11.1,5.6c-8.3,2.8-16.8,2.8-24.7,0.6v0.2c-8.1-1.8-15.7-5.8-21.9-12.2
						c-3-3.1-5.4-6.5-7.2-10.1c-7.7-12-14-30.1-15.5-57.3l-0.3,0.2v-9.1c0-0.9,0-1.7,0-2.6C811.3,682.8,811.3,674.1,811.4,664.6z"/>
				</g>
				<g class="st10">
					<g>
						<path class="st5" d="M1058.3,684.7L1058.3,684.7c9.6,6.9,75.9-6.5,90.8-35.6c18.9-33.3-35.8-81.9-67.1-60.1
							C1053.7,606.4,1049.7,677.2,1058.3,684.7z"/>
					</g>
					<path class="st5" d="M949.4,697.9l50.4-95.6l0,0l18.5-35.2c13,7.1,22.4,20.4,23.9,36.3c0.3,3.1-0.9,10.9-0.9,10.9
						c-12.9,38.8-11.4,85.4-3.1,92.6l0,0c9.3,6.7,50.1,2.6,86.1-14.8l5.4-1.8c0.1,0,0.1-0.1,0.2-0.1l0,0c2.9-0.6,5.9-1,9-1.1
						c16-0.3,30.2,7.4,38.8,19.5l-32.8,22.4l0,0l-89.1,61.2c-7.8,5.4-14.9,10.3-19.7,13.6c-0.7,0.5-1.5,1-2.2,1.5l-7.5,5.2v-0.4
						c-23.4,14.1-41.8,19.2-56.1,19.6c-4,0.5-8.2,0.5-12.5-0.2c-8.6-1.4-16.2-5.4-22.2-11l-0.1,0.1c-6.3-5.3-11.2-12.4-13.7-21
						c-1.2-4.1-1.7-8.3-1.7-12.3c-1.3-14.2,1.6-33.1,13-58h-0.4l4.3-8.1c0.4-0.8,0.8-1.6,1.2-2.4
						C940.8,713.9,944.9,706.3,949.4,697.9z"/>
				</g>
				<path class="st11" d="M984.1,869.6c7-22.6,16.1-35.2,42.8-56.9l-0.4-0.2c19.3-13.3,97.6-66.8,118.7-81.2l0,0l32.7-22.5
					c45.7,81-114.7,57.9-126.8,248c-9.6,17.8-13.6,35.8-15,33.2C1032.6,984,962.6,1001.2,984.1,869.6z"/>
			</g>
			<path class="st12" d="M814.8,955.7c-176.3-140.6-244.5-57.1-244.5-0.4c2.4,134.1,144,351.6,244.7,351.6L814.8,955.7z"/>
			<path class="st5" d="M515.8,549.7"/>
			<g class="st9">
				<path class="st13" d="M624.3,1054.7c-1-0.3-2.1-0.4-3.1-0.4c-4.6,0-9,2.4-11.4,6.7c-0.3,0.5-0.6,1-0.8,1.5
					c-1.7,3.9-1.4,8.4,0.8,12s6,6,10.3,6.3c0.4,0,1.8,0.1,4,0.1c7.1,0,22.7-0.8,41.9-6.8c-1.5,15.6-4.7,31-9.4,46.2
					c-4.9,15.6-10.7,28.4-15.8,38c5.2,8.4,10.5,16.7,16,24.8c12.1-19.2,33.9-61.7,36.3-120.3c18.6-9.9,38.3-25.2,55.8-48.7
					c2.5-3.3,3.2-7.6,2.1-11.5v-0.1c-1.7-5.7-6.9-9.3-12.5-9.3c-1.2,0-2.5,0.2-3.8,0.5c-3.1,0.9-5.6,2.9-7.3,5.4
					c-11.1,14.7-23,25.5-34.8,33.5c-1.6-21.8-6.1-45.4-14.5-70.4c-1.5-4.5-5.4-7.9-10.2-8.7h-0.2c-0.8-0.1-1.5-0.2-2.3-0.2
					c-6.2,0-11.8,4.5-12.9,10.8c-0.5,3.1,0,6,1.4,8.6c8.1,24.7,12.5,49.2,13,73.4c-19.7,7.8-36,8.7-42.4,8.7
					C624.5,1054.7,624.4,1054.7,624.3,1054.7z"/>
				<path class="st13" d="M636.3,1113.9c1.3-4.2,2.5-8.4,3.5-12.6c-6.6,0.7-12,0.9-15.7,0.9c-2.8,0-4.6-0.1-5.5-0.2
					c-3.1-0.2-6.1-0.9-9-1.9c5.7,12.1,11.8,24.1,18.3,35.9C630.8,1129.6,633.7,1122.2,636.3,1113.9z"/>
				<path class="st13" d="M814.8,955.7c-176.3-140.6-244.5-57.1-244.5-0.4c0.5,29.4,7.8,62.9,19.8,97.2c0.4-0.8,0.8-1.6,1.1-2.1
					c6.1-10.8,17.6-17.4,29.9-17.4c1.7,0,3.3,0.1,5,0.4c3.4-0.1,10.1-0.6,18.7-2.6c-1.6-16.6-5.2-33.3-10.5-50.1
					c-2.9-6.3-3.8-13.4-2.6-20.3c2.9-16.5,17.1-28.5,33.9-28.5l0,0c2,0,4,0.2,5.9,0.5h0.2c12.5,2.2,22.7,10.9,26.7,22.9
					c3.8,11.4,7,22.8,9.5,34.3c0.8-1,1.5-1.9,2.3-2.9c4.5-6.5,11-11.3,18.6-13.5c3.2-0.9,6.5-1.4,9.8-1.4c15.1,0,28.7,10.1,33,24.6
					v0.1c3.1,10.4,1,21.7-5.4,30.4c-14.9,19.9-32.5,36.2-52.3,48.7c-5.5,65.4-32.4,110.1-43.6,126.2c45.6,61,99.4,105.3,144.9,105.3
					L814.8,955.7z"/>
			</g>
			<g>
				<path class="st12" d="M624.8,1054.7c-1-0.3-2.1-0.4-3.1-0.4c-4.6,0-9,2.4-11.4,6.7c-0.3,0.5-0.6,1-0.8,1.5
					c-1.7,3.9-1.4,8.4,0.8,12s6,6,10.3,6.3c0.4,0,1.8,0.1,4,0.1c7.1,0,22.7-0.8,41.9-6.8c-1.5,15.6-4.7,31-9.4,46.2
					c-4.9,15.6-10.7,28.4-15.8,38c5.2,8.4,10.5,16.7,16,24.8c12.1-19.2,33.9-61.7,36.3-120.3c18.6-9.9,38.3-25.2,55.8-48.7
					c2.5-3.3,3.2-7.6,2.1-11.5v-0.1c-1.7-5.7-6.9-9.3-12.5-9.3c-1.2,0-2.5,0.2-3.8,0.5c-3.1,0.9-5.6,2.9-7.3,5.4
					c-11.1,14.7-23,25.5-34.8,33.5c-1.6-21.8-6.1-45.4-14.5-70.4c-1.5-4.5-5.4-7.9-10.2-8.7h-0.2c-0.8-0.1-1.5-0.2-2.3-0.2
					c-6.2,0-11.8,4.5-12.9,10.8c-0.5,3.1,0,6,1.4,8.6c8.1,24.7,12.5,49.2,13,73.4c-19.7,7.8-36,8.7-42.4,8.7
					C625.1,1054.7,624.9,1054.7,624.8,1054.7z"/>
			</g>
			<path class="st1" d="M657.3,680.2"/>
			<path class="st7" d="M704.5,976.1c-9.7,0-19.3-2.3-27.9-6.7c-2.2-0.8-4.2-1.9-6.2-3.1c-3.1-1.9-29.2-18.5-56.5-51.8
				c-13.3,23.3-25.7,35.6-28.2,37.9c-2.1,2-4.5,3.7-7,5.1c42.8,46.9,89,78.2,129.3,78.2V976C706.8,976.1,705.7,976.1,704.5,976.1z"
				/>
			<path class="st14" d="M814.2,958.1c-176.3-140.6-243.4-58.8-243.4-2.1c0.5,29.4,7.8,62.9,19.8,97.2c0.4-0.8,0.8-1.6,1.1-2.1
				c6.1-10.8,17.6-17.4,29.9-17.4c1.7,0,15.1-0.2,23.6-2.3c-1.6-16.6-5.2-33.3-10.5-50.1c-2.9-6.3-3.8-13.4-2.6-20.3
				c2.9-16.5,17.1-28.5,33.9-28.5l0,0c2,0,4,0.2,5.9,0.5h0.2c12.5,2.2,22.7,10.9,26.7,22.9c3.8,11.4,7,22.8,9.5,34.3
				c0.8-1,1.5-1.9,2.3-2.9c4.5-6.5,11-11.3,18.6-13.5c3.2-0.9,6.5-1.4,9.8-1.4c15.1,0,28.7,10.1,33,24.6v0.1
				c3.1,10.4,1,21.7-5.4,30.4c-7.5,10.1-15.8,19.2-24.6,27.4c0.2,1.8,7.3,40.9,17.7,60.7c17.2,36.5,43.1,57.7,54.5,66.5
				C815,1181.3,814.2,958.1,814.2,958.1z"/>
			<g>
				<path class="st7" d="M708.2,646.3c0-0.6-0.7-1.1-2.9-2.8c-194.4-153.3-268.5-62.6-268.5,0.4c0.6,31.4,5.7,51.5,15.2,86.3
					c0.8,2.8,3.2,4.9,6.1,5.1c9.5,0.8,31.4,2.4,51.7-3.5c6-1.7,9.9-7.7,9-13.9c-2.1-15.2-5.7-30.5-10.6-45.8c-3.2-7-4.3-15-3-22.7
					c3.2-18.5,19.2-31.9,37.9-31.9l0,0c2.2,0,4.4,0.2,6.6,0.6h0.3c13.9,2.4,25.4,12.3,29.9,25.7c4.3,12.7,7.8,25.4,10.6,38.2
					c0.8-1.1,1.7-2.1,2.5-3.2c5-7.3,12.3-12.6,20.8-15.1c3.6-1.1,7.2-1.6,10.9-1.6c16.9,0,32,11.3,36.8,27.5v0.1
					c3.4,11.5,1.3,24.1-5.9,33.7c-7.9,10.6-16.5,20.2-25.7,28.9c-1,1-0.9,2.6,0.2,3.4c14.9,11.3,17.2,27.6,17.5,53.7
					c0.1,9.3,2.7,18.4,7.3,26.4c18.6,32.4,42.5,51.8,53.6,60.5C709.6,895.6,708.2,679.6,708.2,646.3z"/>
				<path class="st15" d="M745.7,858.5c28-36.8,43.1-80.5,45.1-129.8c-0.9-8,4.9-34.3,0.5-51.5c-3.8-14.9-2.8-30.7,6.8-42.7
					c1.7-2.1,3.6-4.1,5.6-5.9c8-7.2,18.3-11.1,29.1-11.1c4.5,0,9,0.7,13.4,2.1c6.4,0.7,17,1.5,30.8,1.5c20,0,40.3-1.7,60.5-5
					c11.1-1.8,30.1-6.5,43.2-10C956.6,553.8,870.9,518,713.2,642c-2.6,2-4.9,4-4.9,4l0.2,250.1C715.8,890.3,731,877.9,745.7,858.5z"
					/>
			</g>
			<path class="st6" d="M1117.1,369.6l-36.6,25.1l0,0c-23.5,16.2-111,75.9-132.6,90.8l0.4,0.2c-29.8,24.3-40,38.3-47.8,63.6
				c-0.5,2.9-0.9,5.8-1.3,8.6c42.6,0.7,69.2,22.2,81.2,47.7c0.1,0,0.2,0,0.2-0.1C1013,437.4,1164.5,453.7,1117.1,369.6z"/>
			<path class="st15" d="M866.7,881.5c-5.4,10-11.4,19.4-17.9,28.1c-15.2,20.5-28.2,30.3-29.6,31.4c-4.9,3.6-10.8,5.5-16.9,5.5
				c-4.9,0-9.7-1.3-14-3.7c-3.7-2.1-6.9-5-9.3-8.4c-15.3,15.1-28,24.1-33.2,27.5c-10.7,8.7-24,13.6-37.9,13.9v59.8
				c50.4,0,110-48.3,160.7-115.7C867.6,910.5,866.6,897.4,866.7,881.5z"/>
		</g>
		<rect x="54.9" y="1.6" class="st16" width="1261.2" height="1261.2"/>
	</g>
</g>
</svg>
