<?xml version="1.0" encoding="utf-8"?>
<!-- Generator: Adobe Illustrator 26.4.0, SVG Export Plug-In . SVG Version: 6.00 Build 0)  -->
<svg version="1.1" id="Calque_1" xmlns="http://www.w3.org/2000/svg" xmlns:xlink="http://www.w3.org/1999/xlink" x="0px" y="0px"
	 viewBox="0 0 634.5 190.7" style="enable-background:new 0 0 634.5 190.7;" xml:space="preserve">
<style type="text/css">
	.st0{fill:#EC661B;}
	.st1{fill:#FAB41A;}
	.st2{fill:#97C22A;}
	.st3{fill:#68B437;}
	.st4{fill:#EA5D37;}
	.st5{fill:#EB671B;}
	.st6{fill:#FFFFFF;}
	.st7{opacity:0.9694;fill:#EC661B;enable-background:new    ;}
</style>
<g id="Calque_3">
</g>
<path class="st0" d="M71.6,5.3c-4.1-7.8-20.5-3.8-20.2,5.1C51.3,18,63.5,27.9,66.2,27.5l0,0C68.8,26.9,75.6,11.9,71.6,5.3z"/>
<g>
	<path class="st0" d="M71.6,5.3c-4.1-7.8-20.5-3.8-20.2,5.1C51.3,18,63.5,27.9,66.2,27.5l0,0C68.8,26.9,75.6,11.9,71.6,5.3z"/>
	<path class="st0" d="M87.1,42V17l0,0V7.8c-3.4,0.1-6.8,1.8-8.8,4.9c-0.4,0.6-1,2.3-1,2.3c-1.5,9.3-6.8,18.8-9.3,19.3l0,0
		c-2.6,0.4-10.5-4.9-16.1-12.3L51,21l0,0l0,0c-0.5-0.4-1.1-0.9-1.7-1.2c-3.2-1.8-7-1.7-10.1-0.2l4.3,8.1l0,0l11.7,22.2
		c1,2,1.9,3.7,2.6,4.9c0.1,0.2,0.2,0.4,0.3,0.5l1,1.9v-0.1c3.3,5.4,6.5,8.4,9.4,10.1c0.8,0.5,1.6,1,2.6,1.3c1.9,0.6,3.9,0.6,5.7,0.1
		l0,0c1.9-0.4,3.6-1.3,5.1-2.8c0.7-0.7,1.2-1.5,1.7-2.3c1.8-2.8,3.2-7,3.6-13.3h0.1v-2.1c0-0.2,0-0.4,0-0.6
		C87.1,46.2,87.1,44.2,87.1,42z"/>
</g>
<path class="st1" d="M24.6,24.6c-7.2-5.1-19.9,6.2-15.5,13.9c3.4,6.7,18.8,9.8,21,8.2l0,0C32.1,45.1,31.1,28.7,24.6,24.6z"/>
<path class="st1" d="M55.3,49.9L43.7,27.7l0,0l-4.3-8.1c-3,1.6-5.2,4.7-5.5,8.4c-0.1,0.7,0.2,2.5,0.2,2.5c3,9,2.7,19.8,0.7,21.5l0,0
	c-2.2,1.6-11.6,0.6-19.9-3.4l-1.3-0.4l0,0l0,0C12.9,48,12.2,48,11.5,48c-3.7-0.1-7,1.7-9,4.5l7.6,5.2l0,0l20.6,14.2
	c1.8,1.3,3.5,2.4,4.6,3.2c0.2,0.1,0.3,0.2,0.5,0.3l1.7,1.2v-0.1c5.4,3.3,9.7,4.4,13,4.5c0.9,0.1,1.9,0.1,2.9-0.1
	c2-0.3,3.8-1.2,5.1-2.5l0,0c1.5-1.2,2.6-2.9,3.2-4.8c0.3-0.9,0.4-1.9,0.4-2.9c0.3-3.3-0.4-7.7-3-13.4h0.1l-1-1.9
	c-0.1-0.2-0.2-0.4-0.3-0.5C57.3,53.6,56.4,51.8,55.3,49.9z"/>
<path class="st0" d="M107.7,27.5L107.7,27.5c2.7,0.4,14.9-9.5,14.8-17.1c0.3-8.9-16.2-12.9-20.2-5.1
	C98.3,11.9,105.1,26.9,107.7,27.5z"/>
<g>
	<path class="st1" d="M107.7,27.5L107.7,27.5c2.7,0.4,14.9-9.5,14.8-17.1c0.3-8.9-16.2-12.9-20.2-5.1
		C98.3,11.9,105.1,26.9,107.7,27.5z"/>
	<path class="st1" d="M86.8,42V17l0,0V7.8c3.4,0.1,6.8,1.8,8.8,4.9c0.4,0.6,1,2.3,1,2.3c1.5,9.3,6.8,18.8,9.3,19.3l0,0
		c2.6,0.4,10.6-4.9,16.1-12.3l0.9-1l0,0l0,0c0.5-0.4,1.1-0.9,1.7-1.2c3.2-1.8,7-1.7,10.1-0.2l-4.3,8.1l0,0l-11.7,22.2
		c-1,2-1.9,3.7-2.6,4.9c-0.1,0.2-0.2,0.4-0.3,0.5l-1,1.9v-0.1c-3.3,5.4-6.5,8.4-9.4,10.1c-0.8,0.5-1.6,1-2.6,1.3
		c-1.9,0.6-3.9,0.6-5.7,0.1l0,0c-1.9-0.4-3.6-1.3-5.1-2.8c-0.7-0.7-1.2-1.5-1.7-2.3c-1.8-2.8-3.2-7-3.6-13.3h-0.1v-2.1
		c0-0.2,0-0.4,0-0.6C86.8,46.2,86.8,44.2,86.8,42z"/>
</g>
<g>
	<path class="st0" d="M144,46.6L144,46.6c2.2,1.6,17.6-1.5,21-8.2c4.4-7.7-8.3-19-15.5-13.9C142.9,28.5,142,44.9,144,46.6z"/>
	<path class="st0" d="M118.8,49.7l11.7-22.2l0,0l4.3-8.1c3,1.6,5.2,4.7,5.6,8.4c0.1,0.7-0.2,2.5-0.2,2.5c-3,9-2.6,19.8-0.7,21.5l0,0
		c2.1,1.6,11.6,0.6,19.9-3.4l1.3-0.4l0,0l0,0c0.7-0.2,1.4-0.2,2.1-0.2c3.7-0.1,7,1.7,9,4.5l-7.6,5.2l0,0l-20.6,14.2
		c-1.8,1.3-3.4,2.4-4.6,3.2c-0.2,0.1-0.3,0.2-0.5,0.3l-1.7,1.2v-0.1c-5.4,3.3-9.7,4.4-13,4.5c-0.9,0.1-1.9,0.1-2.9-0.1
		c-2-0.3-3.8-1.2-5.1-2.5l0,0c-1.5-1.2-2.6-2.9-3.2-4.8c-0.3-0.9-0.4-1.9-0.4-2.9c-0.3-3.3,0.4-7.7,3-13.4h-0.1l1-1.9
		c0.1-0.2,0.2-0.4,0.3-0.5C116.8,53.4,117.7,51.6,118.8,49.7z"/>
</g>
<g>
	<path class="st2" d="M87.4,109.4c40.8-32.6,56.6-13.2,56.6-0.1c-0.6,31.1-33.3,81.4-56.7,81.4L87.4,109.4z"/>
	<path class="st1" d="M171.7,52.2l-7.6,5.2l0,0c-4.9,3.3-23,15.7-27.5,18.8h0.1c-6.2,5-8.3,7.9-9.9,13.2c-0.1,0.7-0.2,1.4-0.3,2.1
		c9.2,0.4,14.4,5.9,16.5,11.8C148.8,66.1,181.7,70,171.7,52.2z"/>
	<path class="st3" d="M87.6,109.4C46.8,76.8,31,96.2,31,109.3c0.5,31.1,33.4,81.4,56.7,81.4L87.6,109.4z"/>
	<path class="st0" d="M47.6,91.6c-0.1-0.7-0.2-1.3-0.3-2c-1.6-5.2-3.7-8.2-9.9-13.2h0.1C33,73.3,14.9,60.9,10,57.6l0,0l-7.6-5.2
		c-10.2,18.1,24,13.7,28.9,53C32.8,99,38,92.4,47.6,91.6z"/>
</g>
<path class="st0" d="M47.5,90"/>
<circle id="circle1024-1-0_00000056399628750972835170000009514598858761410452_" class="st4" cx="355.5" cy="113.6" r="8.5"/>
<path class="st3" d="M610.5,6.9L610.5,6.9c-0.8-2.7-3.2-4.8-6-4.9c-2.4,0-4.4,1.1-5.6,2.8C565,37,528,48.6,502.8,52.8
	c-22.6,3.7-40.1,2.2-45.8,1.5c-2.3-1.1-5.2-0.8-7.2,1c-0.4,0.3-0.7,0.7-1,1.1c-1.4,1.8-1.8,4.2-1,6.4s2.7,3.7,5,4.1
	c0.5,0.1,8.3,1.4,21,1.4c8.3,0,18.8-0.6,30.6-2.5c4.1-0.7,8.5-1.5,13.1-2.6c-22.2,27.5-30.4,55.6-33.3,75.3
	c-3.6,24.4,0,41.5,0.1,42.2c0.5,2.3,2.2,4.2,4.5,4.9c0.6,0.2,1.2,0.3,1.8,0.3c1.7,0,3.3-0.6,4.5-1.8c0.2-0.2,0.5-0.4,0.7-0.7
	c1.7-2.1,1.9-4.8,0.8-7.1c-0.7-4.7-2.3-18.5,0.4-36.4c4.4-29.3,17.5-55.6,38.9-78.1c1.1-0.8,1.9-1.9,2.4-3.2c0.2-0.5,0.3-1,0.3-1.5
	c22-7.8,46.7-21.1,70-43.5C610.4,11.7,611.1,9.2,610.5,6.9z"/>
<g>
	<path class="st3" d="M590.2,163c-0.7,0-1.5-0.1-2.2-0.4c-2.2-0.8-3.8-2.7-4.2-4.9c-0.5-2.3,0.4-4.8,2.4-6.4c0,0,0,0,0.1-0.1
		c2.5-2.8,12.2-15.3,8.4-35.2c-0.2-0.8-0.3-1.7-0.2-2.6c0.5-3.6,3.7-6.1,7.3-5.6l0,0c2.8,0.4,5,2.4,5.5,5.2
		c6,29.7-11.8,47.4-12.6,48.1C593.5,162.4,591.9,163,590.2,163z"/>
</g>
<path class="st0" d="M455.6,82.9l-0.2-0.1c-3.1-1.8-7.1-0.6-8.9,2.5c-0.8,1.4-1,3.1-0.7,4.5c-0.8,24.6-8.3,46.3-22.2,64.8
	c-9.3,12.3-18.6,19-20.9,20.5c-0.6,0.3-1.2,0.7-1.7,1.2c-0.7,0.7-1.7,1.1-2.7,1.1c-0.8,0-1.7-0.3-2.4-0.8c-0.6-0.4-1.2-0.7-1.8-1
	c-3.8-2.7-15.4-11.7-25.6-27.9c-1.6,5.7-3.5,10.8-5.4,15.3c12.2,16.2,24.5,23.9,25.5,24.5c0.5,0.3,1,0.5,1.5,0.7
	c2.5,1.4,5.3,2.1,8.2,2.1c4.1,0,8-1.5,11.1-4.1c4.7-3,48.2-32.6,49.6-97.6C459,86.3,457.7,84.1,455.6,82.9z"/>
<g>
	<path class="st3" d="M604.8,187c-0.3,0-0.7,0-1-0.1c-2.3-0.3-4.2-1.9-5-4c0-0.1-0.1-0.1-0.1-0.2c-1.2-2.8-0.3-6,2.2-7.8
		c2.7-3.7,9.9-14.5,15.2-30.7c8.8-26.6,8.7-54.5-0.2-82.9c-0.7-1.2-0.9-2.7-0.7-4.2c0.6-3.5,4-5.9,7.5-5.3h0.1
		c2.4,0.4,4.4,2.1,5.1,4.4c12.7,39.5,7.2,72.2,0.3,92.6c-7.5,22.3-17.9,35.2-18.4,35.8C608.5,186.1,606.7,187,604.8,187z
		 M599.1,183.5L599.1,183.5L599.1,183.5z M599.1,183.5L599.1,183.5L599.1,183.5z"/>
</g>
<g id="circle5652-8_00000057108938897688534310000008677097278808512437_">
	<circle class="st3" cx="593.7" cy="91.1" r="8.5"/>
</g>
<path class="st0" d="M367.7,76.3L367.7,76.3c-1-3.5-4.6-5.4-8.1-4.4c-1.5,0.5-2.8,1.4-3.6,2.7c-5.5,7.3-11.5,12.7-17.3,16.6
	c-0.8-10.8-3-22.5-7.2-35c-0.8-2.3-2.7-3.9-5-4.3h-0.1c-3.5-0.6-6.9,1.8-7.5,5.3c-0.3,1.5,0,3,0.7,4.3c4,12.3,6.2,24.5,6.5,36.5
	c-10,3.9-18.3,4.3-21.3,4.3c-2.8-0.7-5.8,0.5-7.2,3.1c-0.1,0.2-0.3,0.5-0.4,0.7c-0.8,1.9-0.7,4.2,0.4,6s3,3,5.1,3.1
	c0.2,0,0.9,0.1,2,0.1c3.5,0,11.3-0.4,20.8-3.4c-0.8,7.7-2.3,15.4-4.7,23c-4.5,14.4-10.7,24-13,27.4c-2.2,1.7-3.1,4.7-2.1,7.4
	c0.1,0.2,0.2,0.5,0.3,0.8c1,2,2.9,3.4,5.1,3.6c0.2,0,0.5,0,0.7,0c2,0,3.8-0.9,5.1-2.5c1.1-1.4,20.3-26.1,21.9-65.4
	c9.2-4.9,19-12.5,27.7-24.2C367.9,80.4,368.3,78.3,367.7,76.3z"/>
<circle id="circle5642-3_00000155111564843864459080000013424227864636128394_" class="st0" cx="354.4" cy="113.6" r="8.5"/>
<circle id="circle1100-4-9_00000127749511500644988130000001758220666381443003_" class="st0" cx="476" cy="99.1" r="8.5"/>
<path class="st5" d="M254.5,53c-1.2-5.3-4.3-9.2-8.6-10.8c-3.1-1.1-6.5-0.9-9.8,0.5c-0.6,0.1-1.2,0.3-1.8,0.6
	c-2.3,1.2-57.3,30.6-95.1,130c-0.6,1.5-0.6,3.2,0,4.7v0.1c1.3,3.3,5.1,5,8.5,3.6c0.1,0,0.2-0.1,0.3-0.1c0.1,0,0.2,0,0.3-0.1
	c1.7-0.7,2.9-2,3.6-3.6c14.1-22.4,32.8-38.5,55.8-47.9c13.9-5.7,25.3-7.2,29.4-7.5c2.4-0.6,5.7-0.7,7.1-3.3c0-0.2,0.1-0.3,0.2-0.5
	c1-2.1,0.9-4.5-0.3-6.4c-1.2-1.9-3.3-3.1-5.6-3c-1.8,0.1-36.3,1.1-69.2,28.8c29.3-55.1,61.8-77.4,69.4-82.1c0.7-0.2,1.4-0.5,2-0.9
	c0.3-0.2,0.5-0.3,0.7-0.4c0.2,0.3,0.4,0.8,0.5,1.7c0.1,0.7,0.3,1.3,0.7,1.9c1.3,3.9,6.6,21.3,7.3,47.5c1.6-1.4,3.5-2.7,5.5-4
	c2.3-1.5,4.7-2.9,7.3-4.1C261.1,71.6,255.3,55.2,254.5,53z"/>
<path class="st0" d="M285.1,183c-9.1,0-17.9-3.2-25-9.1c-8-6.7-13-16.1-13.9-26.5s2.2-20.6,8.9-28.6c6.7-8,16.1-13,26.5-13.9h0.1
	c0.4,0,0.9-0.1,1.3-0.1c0.9-0.1,1.7-0.1,2.6,0.2c3.5,1,5.5,4.5,4.5,8c-0.8,2.7-3.2,4.7-6.1,4.8c-0.5,0-0.9,0.1-1.4,0.1
	c-6.9,0.6-13.2,3.9-17.7,9.3s-6.6,12.1-6,19.1s3.9,13.2,9.3,17.7c5.3,4.5,12.1,6.6,19,6c0.2,0,0.3,0,0.5-0.1
	c2.4-0.4,4.8,0.5,6.3,2.3l0.1,0.1c2.2,2.8,1.8,6.9-1.1,9.1c-1.3,1-2.8,1.5-4.3,1.4c-0.1,0-0.1,0-0.2,0
	C287.5,183,286.3,183,285.1,183z"/>
<path class="st6" d="M376.4,69.5"/>
<path class="st7" d="M242.9,163.1c0,0-12.2,23.5,0.7,27.3C250.2,192.3,260.9,183,242.9,163.1z"/>
<path class="st0" d="M440.9,181.5c-1.1,0-2.2-0.3-3.2-0.8c-2.1-1.2-3.3-3.4-3.3-5.7c0-2.4,1.3-4.7,3.4-5.8
	c3.4-2.9,17.2-16.3,24.4-44c0.1-0.6,0.3-1.1,0.5-1.7c1.5-3.3,5.3-4.7,8.6-3.2h0.1c2.9,1.3,4.4,4.5,3.6,7.5
	c-9.4,36.9-29.4,51.9-30.2,52.5C443.6,181.1,442.3,181.5,440.9,181.5z M434.5,176.1L434.5,176.1L434.5,176.1z M434.5,176.1
	L434.5,176.1L434.5,176.1z M434.4,174.4C434.4,174.5,434.4,174.5,434.4,174.4C434.4,174.5,434.4,174.5,434.4,174.4z"/>
<g>
	<path class="st3" d="M577.5,162.2L577.5,162.2c-2.2-0.2-4.3,0.6-5.7,2.1c-14.6,7.8-34.4,12.1-43.7,4.8c-3-2.4-5-5.3-6.2-8.8
		c1.9,0.3,4.4,0.5,7.3,0.5c10.1,0,25.4-2.7,40.1-15.7c0.2-0.2,0.4-0.4,0.6-0.6l0,0c6.1-5.6,9.6-13.3,9.9-21.6
		c0.3-8.3-2.6-16.2-8.2-22.2c-5.6-6.1-13.3-9.6-21.6-9.9s-16.2,2.6-22.3,8.3c-0.2,0.2-0.4,0.4-0.6,0.6c-0.1,0.1-0.3,0.2-0.4,0.4
		c-8.8,8.6-13.7,17.7-16.2,25.8c-0.3,0.6-0.6,1.2-0.7,1.9c-0.1,0.6-0.2,1.2-0.3,1.8c-0.8,3.4-1.3,6.5-1.5,9.3
		c-1.9,15.2-0.9,30.5,12.1,40.7c5.9,4.6,13.4,6.5,21.5,6.5c12.5,0,26.4-4.5,37.7-10.9c0.8-0.4,1.4-1,2-1.7c1-1,1.7-2.3,1.9-3.9
		C583.6,165.8,581.1,162.6,577.5,162.2z M535.2,109.8c0.3-0.2,0.5-0.4,0.7-0.6s0.4-0.4,0.6-0.6c7.3-6.7,18.7-6.3,25.4,1l0,0
		c3.3,3.5,5,8.1,4.8,12.9s-2.2,9.2-5.7,12.4c-0.1,0.1-0.2,0.2-0.3,0.3c-0.3,0.3-0.6,0.6-0.9,0.9c-17.6,15.1-35.6,11.7-38.4,11.1
		c-0.1,0-0.3-0.1-0.4-0.1V147c-0.1-1.1-0.3-3.3-0.2-6.2c0.3-2.7,0.8-5.6,1.3-8.7C523.9,125.3,527.6,117.4,535.2,109.8z"/>
</g>
<path class="st0" d="M348.8,127.5c-4.2,27.5-16,41.9-18.9,45.1c-1.8,1.3-2.8,3.4-2.7,5.7v0.1c0.1,2.5,1.7,4.7,4.1,5.7
	c0.8,0.3,1.6,0.5,2.4,0.5c1.6,0,3.2-0.6,4.4-1.7c0.8-0.7,18.8-17.9,23.9-55.6c0,0,0,0,0-0.1c-2.1,1.1-4.5,1.8-7,1.8
	C352.8,128.8,350.7,128.3,348.8,127.5z"/>
</svg>
