<?xml version="1.0" encoding="utf-8"?>
<!-- Generator: Adobe Illustrator 26.5.0, SVG Export Plug-In . SVG Version: 6.00 Build 0)  -->
<svg version="1.1" id="Calque_1" xmlns="http://www.w3.org/2000/svg" xmlns:xlink="http://www.w3.org/1999/xlink" x="0px" y="0px"
	 viewBox="0 0 450 450" style="enable-background:new 0 0 450 450;" xml:space="preserve">
<style type="text/css">
	.st0{display:none;}
	.st1{display:inline;fill:#030321;stroke:#FFFFFF;stroke-miterlimit:10;}
	.st2{fill:#FFFFFF;}
	.st3{display:inline;fill:#FFFFFF;}
	.st4{display:inline;}
	.st5{fill:#C29671;}
	.st6{fill:#AD805E;}
	.st7{fill:#F1C9A5;}
	.st8{fill:#4D1A5F;}
	.st9{fill:#E42DEA;}
	.st10{fill:#A47655;}
	.st11{fill:#93684C;}
	.st12{fill:#1D7076;}
	.st13{fill:#2E150B;}
	.st14{opacity:0.1;fill:#E0A889;enable-background:new    ;}
	.st15{fill:#EB661B;}
	.st16{fill:#EFEAE8;}
	.st17{fill:#FBD8D2;}
	.st18{fill:#FCD0CA;}
	.st19{fill:#FAE43E;}
	.st20{fill:#97C22A;}
	.st21{fill:#FFDEC3;}
	.st22{fill:#976C4B;}
	.st23{fill:#CA9063;}
	.st24{fill:#FFEFE2;}
	.st25{opacity:0.1;fill:#F9E2D2;enable-background:new    ;}
	.st26{fill:#120902;}
	.st27{fill:#3D1C0F;}
	.st28{fill:#F9BA91;}
	.st29{fill:#FCB48B;}
	.st30{fill:#68B437;}
	.st31{fill:#473025;}
	.st32{fill:#172D39;}
	.st33{fill:#B2A1A1;}
	.st34{fill:#1C4760;}
	.st35{fill:#D1C6C6;}
	.st36{opacity:0.1;fill:#DB9877;enable-background:new    ;}
	.st37{fill:#DB4900;}
</style>
<g id="Calque_3" class="st0">
	<rect x="-27.6" y="-20.6" class="st1" width="531.5" height="498.4"/>
</g>
<g id="Calque_2_00000091710548667777125980000018225716341763626659_">
	<polygon class="st2" points="361,250.7 372.1,258.8 374.3,267.4 371.6,277.7 368.6,297.6 361,306.3 346.1,301.4 346.1,274.4 	"/>
	<g id="Calque_2_00000063624502513995234940000009507698052756097936_">
		<g class="st0">
			
				<rect x="60.5" y="283.3" transform="matrix(0.9171 -0.3987 0.3987 0.9171 -110.0043 53.4697)" class="st3" width="26.1" height="15.8"/>
			<rect x="58.7" y="282.6" transform="matrix(0.9165 -0.4 0.4 0.9165 -108.6344 52.603)" class="st3" width="26" height="7.9"/>
			<path class="st3" d="M75.6,297.7c3.1-2.9,2.9-9,1.3-12.9c-0.6-1.4-1.4-2.7-2.4-3.8l-16.2,7.1l6.3,14.4L75.6,297.7L75.6,297.7z"/>
			<path class="st3" d="M38.3,283.3C23.4,289.8,18.6,301.8,23,312s16.5,14.8,31.4,8.3s23.3-20.1,18.9-30.3S53.1,276.9,38.3,283.3z"
				/>
			<path class="st3" d="M49.8,281.7c1.1,3.5-1.7,7.4-6.3,8.8s-9.2-0.5-10.2-4s1.7-7.4,6.3-8.7S48.7,278.2,49.8,281.7z"/>
			<path class="st3" d="M38.3,283.3C23.4,289.8,18.6,301.8,23,312l50.3-22C68.8,279.9,53.1,276.9,38.3,283.3z"/>
			<path class="st3" d="M32.2,308c-4.1-9.3-1-20.3,7.5-26c-11.4,2.7-18.5,14.1-15.8,25.5S38,326,49.4,323.3c2.5-0.6,4.9-1.6,7-3.1
				C46.5,322.5,36.3,317.4,32.2,308z"/>
			<path class="st3" d="M88.6,303.2c1.8-3.9,5.8-15.8,3.4-21.2c-3.1-7.2-18.1-14.6-18.1-14.6l0.2,3.4c-0.1,3.5,0.4,6.9,1.4,10.2
				c12.3,3.1,6.3,14.1,6.3,14.1C83.7,298.1,85.9,300.8,88.6,303.2L88.6,303.2z"/>
			
				<rect x="283" y="364.6" transform="matrix(0.9223 -0.3866 0.3866 0.9223 -123.0726 141.4788)" class="st3" width="14.4" height="24.2"/>
			
				<rect x="283.3" y="366" transform="matrix(0.9223 -0.3866 0.3866 0.9223 -123.8656 140.3157)" class="st3" width="7.2" height="24.2"/>
			<path class="st3" d="M297.2,374.7c-2.6-2.9-8.3-2.9-11.8-1.4c-1.3,0.5-2.4,1.3-3.5,2.2l6.3,15.1l13.3-5.6L297.2,374.7
				L297.2,374.7z"/>
			<path class="st3" d="M283.6,409c5.8,13.9,16.8,18.6,26.2,14.6s13.8-15.1,8-29c-7.9-18.7-18.2-22-27.7-18S276.1,391.1,283.6,409z"
				/>
			<path class="st3" d="M282.2,398.3c3.2-1,6.8,1.5,7.8,5.5s-0.7,8.1-3.9,9s-6.7-1.5-7.8-5.5S278.9,399.2,282.2,398.3z"/>
			<path class="st3" d="M320.3,389.7c2.1,3.6,1.4,7.8-1.5,9.4s-7.1,0-9.2-3.5s-1.4-7.8,1.5-9.4S318.1,386.1,320.3,389.7z"/>
			<path class="st3" d="M283.6,409c5.8,13.9,16.8,18.6,26.2,14.6l-19.7-47C280.7,380.6,276.1,391.1,283.6,409z"/>
			<path class="st3" d="M318.9,424.4c0-0.1,0-0.1,0-0.2"/>
			
				<rect x="68.1" y="151.9" transform="matrix(0.3788 -0.9255 0.9255 0.3788 -104.9529 171.5727)" class="st3" width="14.4" height="24.2"/>
			
				<rect x="73" y="148.5" transform="matrix(0.3788 -0.9255 0.9255 0.3788 -101.0302 170.6603)" class="st3" width="7.2" height="24.2"/>
			<path class="st3" d="M71.7,170.3c3.9,0.2,7.9-3.8,9.3-7.4c0.5-1.3,0.8-2.6,0.9-4l-15.2-6.2L61.3,166L71.7,170.3L71.7,170.3z"/>
			<path class="st3" d="M57,136.4c-14-5.7-25-1.3-28.9,8.2S29,165,42.9,170.7c18.8,7.7,28.4,2.7,32.3-6.8S75,143.8,57,136.4z"/>
			<path class="st3" d="M65.6,143c-1.6,3-5.8,3.7-9.4,1.6s-5.2-6.2-3.6-9.2s5.8-3.7,9.4-1.6C65.6,135.9,67.2,140,65.6,143z"/>
			<path class="st3" d="M44.7,176c-4-1-6.5-4.5-5.6-7.7s5-5,9-4s6.5,4.5,5.6,7.7S48.8,177,44.7,176z"/>
			<path class="st3" d="M57,136.4c-14-5.7-25-1.3-28.9,8.2l47.2,19.3C79.1,154.4,75,143.8,57,136.4z"/>
			<path class="st3" d="M379.8,294.2c4.6-7.3,1.4,5.2,2,5.8c2.9,2.8,6,5.3,9.3,7.6c-0.2,1.2,1,5.4,0.8,6.6c-4-1.4-8.4-8.5-9.7-11.1
				C381.1,301.1,379.6,296.2,379.8,294.2L379.8,294.2z"/>
			<path class="st3" d="M381.3,280.9l-9.6-8.7c0-0.5-0.1-1-0.1-1.4c2.9,0.5,6.2-1.1,8.5,2.1c0.6,0.6,1.4,0.9,2.2,0.7
				c4.4-1.5,6.1,2.9,9.4,3.9c0.1,0,0,0.6,0,1c-2.2,1.4-4.5,2.9-6.7,4.2C383.5,282.7,382.6,281.4,381.3,280.9L381.3,280.9z"/>
			<path class="st3" d="M353.6,310.7c8.9-1.3,22.6-25.1,22.6-25.1s4.3-27.1-1.8-33.8c-9.4-6.6-21.7-13.8-21.7-13.8l-24.6,69.7
				C328.1,307.7,342.9,311,353.6,310.7L353.6,310.7z"/>
			
				<rect x="378.1" y="277.7" transform="matrix(0.3336 -0.9427 0.9427 0.3336 -19.0076 553.1661)" class="st3" width="7.4" height="24.6"/>
			<path class="st3" d="M386.4,280c-4,0-7.9,4.3-9.2,8c-0.5,1.3-0.7,2.7-0.8,4.1l15.8,5.6l4.9-13.9L386.4,280z"/>
			<path class="st3" d="M399.8,314c14.5,5.1,25.6,0.1,29.1-9.8s-1.9-20.8-16.4-25.9s-29.1-1.3-32.6,8.5S385.3,308.8,399.8,314z"/>
			<path class="st3" d="M390.7,307.7c1.5-3.1,6-4,10-1.9s6,6.2,4.5,9.3s-6,4-10,1.9S389.2,310.8,390.7,307.7z"/>
			<path class="st3" d="M406.1,271.6c4.4,1,7.3,4.4,6.5,7.8s-5,5.3-9.4,4.4s-7.3-4.4-6.5-7.8S401.8,270.6,406.1,271.6z"/>
			<path class="st3" d="M399.8,314c14.5,5.1,25.6,0.1,29.1-9.8l-49-17.4C376.4,296.7,385.3,308.8,399.8,314z"/>
			<path class="st3" d="M377.7,268.1c-3.8,1.5-14.2,7-16.1,12.3c-2.5,6.9,3.1,21.6,3.1,21.6l2-2.5c2.3-2.3,4.2-5,5.6-7.9
				c-6.5-10.1,4.7-13.7,4.7-13.7C377.8,274.7,378,271.4,377.7,268.1z"/>
			<path class="st3" d="M426.2,305.8c2.7-0.4,5.9-3,8.6-2.1c-3,8.7-10.5,16-19.2,15.6c-1.2,0-2.4-0.1-3.6-0.1
				c-3.2-0.8-8.1,1.7-10.9-1.2c0.7-2.2,2.6-3.8,4.9-4.2c2.8-0.4,5.6-1.1,8.4-1.6C419.1,311.4,423.2,309.2,426.2,305.8L426.2,305.8z"
				/>
			<path class="st3" d="M426.1,306.1c4.8-0.6,6.7,1.6,8.7-2.4c0.9-1.7,0.6-5.9,0.5-7.8c-0.4-5.6-2.6-10.9-6.3-15.1
				c-4.4-5.1-10.3-8.9-16.8-10.9c-7-2.1-13.8-0.4-20.6-1.5c-5.1-0.9-11.5-5.6-16.3-5.8c-1.2,0-2.8,0.8-3.8,0.7
				c-0.2,0.6-0.6,1.1-1.1,1.4c-1-0.9-2.1-1.5-3.4-1.9c-6.1-0.7-13-1.8-19-1.4c-5,0.3-4,0.5-5.8,5.8c7.1-1.9,15.7,2.2,22.6,3
				c7.2,0.9,13.5,4.1,20.5,6.3c3.9,1.3-0.6,1.4,5,1.3c2.8,0,6.6-1,9.3-1.6c5.7-1.3,4.6-1.7,9.3,1.6c5.1,3.7,6.5,4.8,7.6,11.3
				C417.8,295.9,417.4,304.4,426.1,306.1C428.8,305.7,423.6,305.6,426.1,306.1L426.1,306.1z"/>
			
				<rect x="369.1" y="165.8" transform="matrix(0.9409 -0.3386 0.3386 0.9409 -34.8765 139.2789)" class="st3" width="25.3" height="7.6"/>
			<path class="st3" d="M414,174.6c14.9-5.4,20.4-16.6,16.7-26.7s-15-15.2-29.9-9.9c-20,7.2-24,17.9-20.4,28S394.8,181.5,414,174.6z
				"/>
			<path class="st3" d="M402.1,173.8c-0.8-3.4,1.9-7,6.2-7.9s8.4,1.1,9.2,4.6s-1.9,7-6.2,7.9S402.9,177.3,402.1,173.8L402.1,173.8z"
				/>
			<path class="st3" d="M396.4,137c3.9-2,8.2-1.1,9.8,2.1s-0.4,7.4-4.2,9.4s-8.2,1.1-9.8-2.1S392.6,139,396.4,137L396.4,137z"/>
			<path class="st3" d="M414,174.6c14.9-5.4,20.4-16.6,16.7-26.7L380.5,166C384.1,176.1,394.8,181.5,414,174.6z"/>
			<path class="st3" d="M365.1,186.3l4.5-10.6l-6.8-3.4l15.4,4.2c0.3,1.9-0.4,3.8-2,5C371.5,183.6,365.1,186.3,365.1,186.3
				L365.1,186.3z"/>
			<polygon class="st3" points="339,177.8 340,180.6 362.9,172.4 364.5,168.6 			"/>
			<path class="st3" d="M355.7,160.2l10.2,5.3l-3,6.9l9.2-13c-1-1.7-2.8-2.7-4.7-2.6C362.4,158.2,355.8,160.2,355.7,160.2
				L355.7,160.2z"/>
			
				<rect x="150.2" y="369.5" transform="matrix(0.4259 -0.9048 0.9048 0.4259 -247.6615 363.8079)" class="st3" width="25.3" height="15.1"/>
			
				<rect x="146.9" y="371.7" transform="matrix(0.4259 -0.9048 0.9048 0.4259 -248.1478 359.9034)" class="st3" width="25.3" height="7.6"/>
			<path class="st3" d="M169.3,381.2c0.4-4.1-3.6-8.5-7.2-10.2c-1.3-0.6-2.7-1-4.1-1.2l-7.3,15.5l13.7,6.4L169.3,381.2z"/>
			<path class="st3" d="M133.1,394.7c-6.7,14.3-2.7,26.1,7,30.7s21.4,0.1,28.1-14.1c9.1-19.2,4.3-29.6-5.4-34.2
				S141.8,376.3,133.1,394.7z"/>
			<path class="st3" d="M142.1,386.8c3,1.8,3.6,6.3,1.2,9.9s-6.7,5.1-9.8,3.3s-3.6-6.3-1.2-9.9S139.1,385,142.1,386.8L142.1,386.8z"
				/>
			<path class="st3" d="M172.2,408.9c-1.3,4.2-5.1,6.6-8.4,5.4s-5-5.5-3.7-9.6s5.1-6.6,8.4-5.4S173.5,404.7,172.2,408.9z"/>
			<path class="st3" d="M133.1,394.7c-6.7,14.3-2.7,26.1,7,30.7l22.7-48.3C153.2,372.5,141.8,376.3,133.1,394.7z"/>
			<path class="st3" d="M169.5,402.8c0,0-7.7,17.9-18,10.4c2.1-4.2-5.7-5.5-5.7-5.5s-11.2,0.2-14.7,10.5"/>
			<path class="st3" d="M160.4,425.7"/>
			<path class="st3" d="M159.4,351.9l4.3,10.6l7.2-2.4l-13.8,7.9c-1.6-1.1-2.4-3-2.1-5C156.8,358.3,159.4,351.8,159.4,351.9
				L159.4,351.9z"/>
			<polygon class="st3" points="183.9,339.4 181.2,338.2 170.9,360.1 172.3,363.9 			"/>
			<path class="st3" d="M184.5,363.7l-10.9,3.5l-2.8-7.1l2.7,15.7c1.9,0.5,3.9-0.1,5.2-1.5C181.2,369.8,184.5,363.7,184.5,363.7
				L184.5,363.7z"/>
			<path class="st3" d="M290,83.5c0,0,23.3,15.2,24.1,24.3c-0.2,10.9-4.5,25.7-4.5,25.7L275.2,119L290,83.5z"/>
			
				<rect x="279.2" y="72.4" transform="matrix(0.3861 -0.9225 0.9225 0.3861 105.3817 318.0814)" class="st3" width="25" height="14.9"/>
			
				<rect x="282.5" y="77.5" transform="matrix(0.3861 -0.9225 0.9225 0.3861 106.1829 322.0229)" class="st3" width="25" height="7.5"/>
			<path class="st3" d="M285,76.1c-0.2,4.1,3.9,8.2,7.6,9.7c1.3,0.5,2.7,0.9,4.1,1l6.5-15.6l-13.8-5.8L285,76.1z"/>
			<path class="st3" d="M320.2,61.2c6-14.4,1.5-25.9-8.2-30s-21.1,0.8-27.1,15.1s-3,29.3,6.8,33.4S314.1,75.6,320.2,61.2z"/>
			<path class="st3" d="M312.2,69.6c-3-1.7-3.8-6-1.7-9.6s6.4-5.2,9.5-3.6s3.8,6,1.7,9.6C319.6,69.6,315.3,71.3,312.2,69.6z"/>
			<path class="st3" d="M280.4,48.8c1.1-4.1,4.6-6.6,8-5.6s5.2,5.1,4.1,9.3s-4.6,6.6-8,5.6S279.4,52.9,280.4,48.8L280.4,48.8z"/>
			<path class="st3" d="M320.2,61.2c6-14.4,1.5-25.9-8.2-30l-20.3,48.6C301.3,83.9,314.1,75.6,320.2,61.2z"/>
			<path class="st3" d="M314.8,27.3c-10.6-4.4-25,3.4-29.8,14.5v0.1l4.4,1.8l6.9-5.9l-5.7,6.4l5,1L299,39l-2.8,6.6l3.6,1.1l4.8-6
				l-2.7,6.7l4.8,1.8l2.5-5.9l-0.7,6.5l5.8,2.3l2.5-4.2l0.8,7.2l5.7,2.7v-0.1C327.9,46.7,325.3,31.8,314.8,27.3L314.8,27.3z"/>
			<path class="st3" d="M309.8,34.6c9.1,3.8,14.5,12.3,13.1,19.9c0.5-0.8,1-1.6,1.4-2.5c3.4-8.2-2.1-18.3-12.4-22.6
				s-21.3-1.1-24.8,7c-0.4,0.9-0.6,1.8-0.8,2.7C290.9,32.9,300.6,30.8,309.8,34.6z"/>
			
				<rect x="162.7" y="61.3" transform="matrix(0.9135 -0.4069 0.4069 0.9135 -15.8374 74.2225)" class="st3" width="7.8" height="26.1"/>
			<path class="st3" d="M169.4,40.8c-6.6-14.9-18.6-19.7-28.7-15.2s-14.5,16.6-7.9,31.5c8.9,20,20.2,23.3,30.3,18.8
				S177.9,60,169.4,40.8z"/>
			<path class="st3" d="M171.2,52.4c-3.5,1.1-7.3-1.5-8.6-5.8s0.5-8.7,4-9.9s7.3,1.5,8.6,5.8S174.6,51.2,171.2,52.4z"/>
			<path class="st3" d="M130.7,61.3c-2.4-3.8-1.7-8.4,1.4-10.2s7.7-0.2,10,3.6s1.7,8.4-1.4,10.2C137.6,66.7,133,65.1,130.7,61.3z"/>
			<path class="st3" d="M169.4,40.8c-6.6-14.9-18.6-19.7-28.7-15.2L163,75.9C173.1,71.4,177.9,60,169.4,40.8L169.4,40.8z"/>
			<polygon class="st3" points="155.3,86.7 181.1,116.5 175.9,77.5 170.9,93.6 			"/>
			<path class="st3" d="M178.9,115.5l-20.2-9c-0.3-0.1-0.4-0.4-0.3-0.7c0-0.1,0.1-0.1,0.1-0.2l3.3-3.3c0.2-0.2,0.2-0.6,0-0.8
				l-0.1-0.1l-13.5-7.3c-0.3-0.1-0.4-0.5-0.2-0.7l0.1-0.1c0.7-0.7,1.9-1.9,2.6-2.5c1.4-1.4,2.8-2.6,4.3-3.8c0.2-0.2,0.5-0.1,0.7,0.1
				l23.8,27.6c0.2,0.2,0.2,0.6-0.1,0.7C179.3,115.6,179.1,115.6,178.9,115.5L178.9,115.5z"/>
			<path class="st3" d="M159,101.7l4.5-10.8c0,0,0,0,0.1,0l7,2.5c0.1,0,0.1-0.1,0-0.1l-12.3-8.9h-0.1l-3.8,3c0,0,0,0,0,0.1
				c1.7,4.6,4.1,13,4.4,14.2C158.9,101.7,158.9,101.7,159,101.7C158.9,101.7,159,101.7,159,101.7L159,101.7z"/>
			<path class="st3" d="M181.6,114.2l6.8-21.1c0.1-0.3-0.1-0.6-0.3-0.7c-0.1,0-0.1,0-0.2,0l-4.7,0.3c-0.3,0-0.6-0.2-0.6-0.5
				c0-0.1,0-0.1,0-0.2l3.6-14.9c0.1-0.3-0.1-0.6-0.4-0.7c-0.1,0-0.1,0-0.2,0c-1,0.1-2.7,0.1-3.6,0.2c-1.9,0.1-3.8,0.4-5.7,0.7
				c-0.3,0.1-0.5,0.3-0.4,0.6l0,0l4.6,36.2c0,0.3,0.3,0.5,0.6,0.4C181.4,114.6,181.6,114.4,181.6,114.2L181.6,114.2z"/>
			<path class="st3" d="M184.8,90.2l-11-3.8c0,0,0,0-0.1,0l-2.8,6.8c0,0.1-0.1,0-0.1,0l1.6-15.1c0,0,0-0.1,0,0l4.8-0.8
				c0,0,0,0,0.1,0C179.5,81.6,184.1,89,184.8,90.2C184.8,90.1,184.8,90.2,184.8,90.2L184.8,90.2z"/>
			<g class="st4">
				<ellipse class="st2" cx="227.9" cy="225.3" rx="130.9" ry="130.9"/>
			</g>
		</g>
		<g>
			<path class="st5" d="M76.2,252.4c-5.9,7.5,0.8,36,0.8,36s16.4,24.3,25.9,25.1c12-1.6,26.7-5,26.7-5L98,236.3
				C98,236.3,84.2,244.4,76.2,252.4L76.2,252.4z"/>
			
				<rect x="60.5" y="283.3" transform="matrix(0.9171 -0.3987 0.3987 0.9171 -110.0043 53.4697)" class="st5" width="26.1" height="15.8"/>
			<rect x="58.7" y="282.6" transform="matrix(0.9165 -0.4 0.4 0.9165 -108.6344 52.603)" class="st5" width="26" height="7.9"/>
			<path class="st6" d="M75.6,297.7c3.1-2.9,2.9-9,1.3-12.9c-0.6-1.4-1.4-2.7-2.4-3.8l-16.2,7.1l6.3,14.4L75.6,297.7L75.6,297.7z"/>
			<path class="st5" d="M38.3,283.3C23.4,289.8,18.6,301.8,23,312s16.5,14.8,31.4,8.3s23.3-20.1,18.9-30.3S53.1,276.9,38.3,283.3z"
				/>
			<path class="st7" d="M49.8,281.7c1.1,3.5-1.7,7.4-6.3,8.8s-9.2-0.5-10.2-4s1.7-7.4,6.3-8.7S48.7,278.2,49.8,281.7z"/>
			<path class="st5" d="M38.3,283.3C23.4,289.8,18.6,301.8,23,312l50.3-22C68.8,279.9,53.1,276.9,38.3,283.3z"/>
			<path class="st8" d="M72.1,305c-3.1,4.8-8,8.2-13.6,9.4c-9.2,1.9-12.6-1.9-16.5-0.2c5.5-11.2-6-10-5.2-22.3
				c0.5-4.5,12.8-13,19.2-11.9c-14.8-11.5-45.5,7.5-40.9,27.4C24.3,348,83.8,336.8,72.1,305z"/>
			<path class="st9" d="M32.2,308c-4.1-9.3-1-20.3,7.5-26c-11.4,2.7-18.5,14.1-15.8,25.5S38,326,49.4,323.3c2.5-0.6,4.9-1.6,7-3.1
				C46.5,322.5,36.3,317.4,32.2,308z"/>
			<path class="st9" d="M88.6,303.2c1.8-3.9,5.8-15.8,3.4-21.2c-3.1-7.2-18.1-14.6-18.1-14.6l0.2,3.4c-0.1,3.5,0.4,6.9,1.4,10.2
				c12.3,3.1,6.3,14.1,6.3,14.1C83.7,298.1,85.9,300.8,88.6,303.2L88.6,303.2z"/>
			<path class="st8" d="M76.2,252.4c-2,2.5-2.5,7.5-2.4,12.9c12.9-1.6,24.6,7.5,26.2,20.4c1,7.9-2.1,15.7-8.2,20.8
				c3.9,3.8,7.9,6.8,11.1,7c12-1.6,26.7-5,26.7-5L98,236.3C98,236.3,84.2,244.4,76.2,252.4L76.2,252.4z"/>
			<polygon class="st10" points="272.2,356.9 288.5,349.3 301.5,385.1 288.3,390.7 			"/>
			
				<rect x="283.3" y="366" transform="matrix(0.9223 -0.3866 0.3866 0.9223 -123.8656 140.3157)" class="st10" width="7.2" height="24.2"/>
			<path class="st11" d="M297.2,374.7c-2.6-2.9-8.3-2.9-11.8-1.4c-1.3,0.5-2.4,1.3-3.5,2.2l6.3,15.1l13.3-5.6L297.2,374.7
				L297.2,374.7z"/>
			<path class="st10" d="M283.6,409c5.8,13.9,16.8,18.6,26.2,14.6s13.8-15.1,8-29c-7.9-18.7-18.2-22-27.7-18S276.1,391.1,283.6,409z
				"/>
			<path class="st10" d="M282.2,398.3c3.2-1,6.8,1.5,7.8,5.5s-0.7,8.1-3.9,9s-6.7-1.5-7.8-5.5S278.9,399.2,282.2,398.3z"/>
			<path class="st10" d="M320.3,389.7c2.1,3.6,1.4,7.8-1.5,9.4s-7.1,0-9.2-3.5s-1.4-7.8,1.5-9.4S318.1,386.1,320.3,389.7z"/>
			<path class="st10" d="M283.6,409c5.8,13.9,16.8,18.6,26.2,14.6l-19.7-47C280.7,380.6,276.1,391.1,283.6,409z"/>
			<path class="st12" d="M255.6,373.3c4.4,3.6,16.7,2.5,25.1,1.3c-1.7-4.1,0.2-8.8,4.3-10.5c4.1-1.7,8.8,0.2,10.5,4.3
				c6.7-5.1,16.1-13.1,16.6-18.8c-1.4-11.2-4.4-24.8-4.4-24.8l-66.8,28C240.9,352.7,248.2,365.7,255.6,373.3z"/>
			<path class="st13" d="M290.7,430.4c4,2.8,16.8,0.4,28.2-6c0-0.1,0-0.1,0-0.2c13.1-9.7,6.9-22-0.3-27c-0.9-2-2-4.2-3.3-6.9
				c0,0-0.4,4.9,1.8,13.1c0,0.4-0.1,0.9-0.1,1.4c-9.7-3.4-18.3-0.9-25.9,11.3c-2.9-6.2-6.4-9.4-9.8-11.4c0.6,2,1.1,3.8,1.5,5.5
				C281.8,418.5,287,427.8,290.7,430.4L290.7,430.4z"/>
			<path class="st7" d="M102.1,141.8c-8.8,0.9-23.3,23.5-23.3,23.5s-5.5,26.4,0.1,33.2c8.9,6.9,20.7,14.5,20.7,14.5l27.5-67
				C127,146,112.7,142,102.1,141.8z"/>
			
				<rect x="68.1" y="151.9" transform="matrix(0.3788 -0.9255 0.9255 0.3788 -104.9529 171.5727)" class="st7" width="14.4" height="24.2"/>
			
				<rect x="73" y="148.5" transform="matrix(0.3788 -0.9255 0.9255 0.3788 -101.0302 170.6603)" class="st7" width="7.2" height="24.2"/>
			<path class="st14" d="M71.7,170.3c3.9,0.2,7.9-3.8,9.3-7.4c0.5-1.3,0.8-2.6,0.9-4l-15.2-6.2L61.3,166L71.7,170.3L71.7,170.3z"/>
			<path class="st7" d="M57,136.4c-14-5.7-25-1.3-28.9,8.2S29,165,42.9,170.7c18.8,7.7,28.4,2.7,32.3-6.8S75,143.8,57,136.4z"/>
			<path class="st7" d="M65.6,143c-1.6,3-5.8,3.7-9.4,1.6s-5.2-6.2-3.6-9.2s5.8-3.7,9.4-1.6C65.6,135.9,67.2,140,65.6,143z"/>
			<path class="st7" d="M44.7,176c-4-1-6.5-4.5-5.6-7.7s5-5,9-4s6.5,4.5,5.6,7.7S48.8,177,44.7,176z"/>
			<path class="st7" d="M57,136.4c-14-5.7-25-1.3-28.9,8.2l47.2,19.3C79.1,154.4,75,143.8,57,136.4z"/>
			<path class="st15" d="M102.1,141.8c-5.7,0.6-13.6,10-18.7,16.8c4.1,1.7,6.1,6.4,4.4,10.4c-1.7,4.1-6.4,6.1-10.4,4.4
				c-1.2,8.4-2.1,20.7,1.5,25.1c8.9,6.9,20.7,14.5,20.7,14.5l27.5-67C127,146,112.7,142,102.1,141.8z"/>
			<path class="st16" d="M36.8,126.3c-4.8,0.9-12.1,11.6-15.7,24.2c0.1,0,0.1,0.1,0.2,0.1C18.9,166.7,32,171,40.6,169.5
				c2.1,0.7,4.4,1.6,7.2,2.5c0,0-3.2-3.7-10.5-8c-0.3-0.3-0.6-0.7-0.9-1.1c9.3-4.4,13.6-12.3,10.3-26.3c6.5,2.3,11.2,2.1,15,1.1
				c-1.8-1-3.5-2-5-2.8C51.6,128.4,41.3,125.5,36.8,126.3L36.8,126.3z"/>
			<path class="st15" d="M379.8,294.2c4.6-7.3,1.4,5.2,2,5.8c2.9,2.8,6,5.3,9.3,7.6c-0.2,1.2,1,5.4,0.8,6.6c-4-1.4-8.4-8.5-9.7-11.1
				C381.1,301.1,379.6,296.2,379.8,294.2L379.8,294.2z"/>
			<path class="st15" d="M381.3,280.9l-9.6-8.7c0-0.5-0.1-1-0.1-1.4c2.9,0.5,6.2-1.1,8.5,2.1c0.6,0.6,1.4,0.9,2.2,0.7
				c4.4-1.5,6.1,2.9,9.4,3.9c0.1,0,0,0.6,0,1c-2.2,1.4-4.5,2.9-6.7,4.2C383.5,282.7,382.6,281.4,381.3,280.9L381.3,280.9z"/>
			
				<rect x="373.8" y="274.5" transform="matrix(0.3336 -0.9427 0.9427 0.3336 -16.361 550.3793)" class="st17" width="14.7" height="24.6"/>
			
				<rect x="378.1" y="277.7" transform="matrix(0.3336 -0.9427 0.9427 0.3336 -19.0076 553.1661)" class="st17" width="7.4" height="24.6"/>
			<path class="st18" d="M386.4,280c-4,0-7.9,4.3-9.2,8c-0.5,1.3-0.7,2.7-0.8,4.1l15.8,5.6l4.9-13.9L386.4,280z"/>
			<path class="st17" d="M399.8,314c14.5,5.1,25.6,0.1,29.1-9.8s-1.9-20.8-16.4-25.9s-29.1-1.3-32.6,8.5S385.3,308.8,399.8,314z"/>
			<path class="st17" d="M390.7,307.7c1.5-3.1,6-4,10-1.9s6,6.2,4.5,9.3s-6,4-10,1.9S389.2,310.8,390.7,307.7z"/>
			<path class="st17" d="M406.1,271.6c4.4,1,7.3,4.4,6.5,7.8s-5,5.3-9.4,4.4s-7.3-4.4-6.5-7.8S401.8,270.6,406.1,271.6z"/>
			<path class="st17" d="M399.8,314c14.5,5.1,25.6,0.1,29.1-9.8l-49-17.4C376.4,296.7,385.3,308.8,399.8,314z"/>
			<path class="st19" d="M377.7,268.1c-3.8,1.5-14.2,7-16.1,12.3c-2.5,6.9,3.4,21.6,3.4,21.6l1.8-2.2c2.3-2.3,4.5-5.3,5.9-8.2
				c-6.5-10.1,4.7-13.9,4.7-13.9C378.2,274.5,378,271.4,377.7,268.1z"/>
			<path class="st20" d="M353.6,310.8c3-0.5,6.6-3.5,10-7.2c-9.9-7-12.2-20.7-5.2-30.6c4.4-6.2,11.6-9.7,19.3-9.2
				c-0.2-5.1-1.1-9.7-3.2-11.9c-9.4-6.6-21.8-13.8-21.8-13.8L328,307.8C328,307.8,342.8,311.1,353.6,310.8L353.6,310.8z"/>
			<path class="st15" d="M426.2,305.8c2.7-0.4,5.9-3,8.6-2.1c-3,8.7-10.5,16-19.2,15.6c-1.2,0-2.4-0.1-3.6-0.1
				c-3.2-0.8-8.1,1.7-10.9-1.2c0.7-2.2,2.6-3.8,4.9-4.2c2.8-0.4,5.6-1.1,8.4-1.6C419.1,311.4,423.2,309.2,426.2,305.8L426.2,305.8z"
				/>
			<path class="st15" d="M426.1,306.1c4.8-0.6,6.7,1.6,8.7-2.4c0.9-1.7,0.6-5.9,0.5-7.8c-0.4-5.6-2.6-10.9-6.3-15.1
				c-4.4-5.1-10.3-8.9-16.8-10.9c-7-2.1-13.8-0.4-20.6-1.5c-5.1-0.9-11.5-5.6-16.3-5.8c-1.2,0-2.8,0.8-3.8,0.7
				c-0.2,0.6-0.6,1.1-1.1,1.4c-1-0.9-2.1-1.5-3.4-1.9c-6.1-0.7-13-1.8-19-1.4c-5,0.3-4,0.5-5.8,5.8c7.1-1.9,15.7,2.2,22.6,3
				c7.2,0.9,13.5,4.1,20.5,6.3c3.9,1.3-0.6,1.4,5,1.3c2.8,0,6.6-1,9.3-1.6c5.7-1.3,4.6-1.7,9.3,1.6c5.1,3.7,6.5,4.8,7.6,11.3
				C417.8,295.9,417.4,304.4,426.1,306.1C428.8,305.7,423.6,305.6,426.1,306.1L426.1,306.1z"/>
			<polygon class="st21" points="352.7,164.6 389.8,154.7 394.9,168.9 359.8,184.6 			"/>
			
				<rect x="369.1" y="165.8" transform="matrix(0.9409 -0.3386 0.3386 0.9409 -34.8765 139.2789)" class="st21" width="25.3" height="7.6"/>
			<path class="st21" d="M402.1,173.8c-0.8-3.4,1.9-7,6.2-7.9s8.4,1.1,9.2,4.6s-1.9,7-6.2,7.9S402.9,177.3,402.1,173.8L402.1,173.8z
				"/>
			<path class="st21" d="M396.4,137c3.9-2,8.2-1.1,9.8,2.1s-0.4,7.4-4.2,9.4s-8.2,1.1-9.8-2.1S392.6,139,396.4,137L396.4,137z"/>
			<path class="st21" d="M414,174.6c14.9-5.4,20.4-16.6,16.7-26.7L380.5,166C384.1,176.1,394.8,181.5,414,174.6z"/>
			<path class="st22" d="M375.1,202.1c3.6-4,3.6-15.1,2.9-23.7l-15.2-5.9l7.9-14.2c-5-7-12-15.7-17.4-16.4
				c-11.8,0.8-26.2,3.2-26.2,3.2l25.7,71.4C352.9,216.3,366.8,209.4,375.1,202.1z"/>
			<path class="st2" d="M365.1,186.3l4.5-10.6l-6.8-3.4l15.4,4.2c0.3,1.9-0.4,3.8-2,5C371.5,183.6,365.1,186.3,365.1,186.3
				L365.1,186.3z"/>
			<polygon class="st23" points="339,177.8 340,180.6 362.9,172.4 364.5,168.6 			"/>
			<path class="st2" d="M355.7,160.2l10.2,5.3l-3,6.9l9.2-13c-1-1.7-2.8-2.7-4.7-2.6C362.4,158.2,355.8,160.2,355.7,160.2
				L355.7,160.2z"/>
			<polygon class="st24" points="150.6,385.3 165.1,349.3 183.1,357.2 164.3,391.7 			"/>
			
				<rect x="146.9" y="371.7" transform="matrix(0.4259 -0.9048 0.9048 0.4259 -248.1478 359.9034)" class="st24" width="25.3" height="7.6"/>
			<path class="st25" d="M169.3,381.2c0.4-4.1-3.6-8.5-7.2-10.2c-1.3-0.6-2.7-1-4.1-1.2l-7.3,15.5l13.7,6.4L169.3,381.2z"/>
			<path class="st24" d="M133.1,394.7c-6.7,14.3-2.7,26.1,7,30.7s21.4,0.1,28.1-14.1c9.1-19.2,4.3-29.6-5.4-34.2
				S141.8,376.3,133.1,394.7z"/>
			<path class="st24" d="M142.1,386.8c3,1.8,3.6,6.3,1.2,9.9s-6.7,5.1-9.8,3.3s-3.6-6.3-1.2-9.9S139.1,385,142.1,386.8L142.1,386.8z
				"/>
			<path class="st24" d="M172.2,408.9c-1.3,4.2-5.1,6.6-8.4,5.4s-5-5.5-3.7-9.6s5.1-6.6,8.4-5.4S173.5,404.7,172.2,408.9z"/>
			<path class="st24" d="M133.1,394.7c-6.7,14.3-2.7,26.1,7,30.7l22.7-48.3C153.2,372.5,141.8,376.3,133.1,394.7z"/>
			<path class="st26" d="M141.2,347.8c0.2,5.4,8.2,13.2,14.7,18.8l14.9-6.5l4.5,15.7c8.5,1.5,19.6,2.6,23.9-0.7
				c7.7-8.9,16.3-20.8,16.3-20.8L146.9,322C146.9,322,141.9,336.8,141.2,347.8z"/>
			<path class="st19" d="M169.5,402.8c0,0-7.7,17.9-18,10.4c2.1-4.2-5.7-5.5-5.7-5.5s-11.2,0.2-14.7,10.5
				c10.3,13.8,25,10.3,29.3,7.5S171.4,412,169.5,402.8z"/>
			<path class="st19" d="M134.8,415.1c5.7-3.2-1.7-14.2,3.8-25.8c-6.9,4.1-20.4,21.4-7.4,29C132.5,417.4,133.7,416.3,134.8,415.1
				L134.8,415.1z"/>
			<path class="st15" d="M159.4,351.9l4.3,10.6l7.2-2.4l-13.8,7.9c-1.6-1.1-2.4-3-2.1-5C156.8,358.3,159.4,351.8,159.4,351.9
				L159.4,351.9z"/>
			<polygon class="st15" points="183.9,339.4 181.2,338.2 170.9,360.1 172.3,363.9 			"/>
			<path class="st15" d="M184.5,363.7l-10.9,3.5l-2.8-7.1l2.7,15.7c1.9,0.5,3.9-0.1,5.2-1.5C181.2,369.8,184.5,363.7,184.5,363.7
				L184.5,363.7z"/>
			
				<ellipse transform="matrix(0.3861 -0.9225 0.9225 0.3861 140.7131 311.1966)" class="st27" cx="304.2" cy="49.9" rx="27.2" ry="27"/>
			<path class="st28" d="M314.2,107.8c-0.8-9.1-24.2-24.3-24.2-24.3s-27.2-5.9-34.2-0.1c-7.2,9.1-15.1,21.2-15.1,21.2l69,28.9
				C309.6,133.4,314,118.7,314.2,107.8z"/>
			<path class="st28" d="M290,83.5c0,0,23.3,15.2,24.1,24.3c-0.2,10.9-4.5,25.7-4.5,25.7L275.2,119L290,83.5z"/>
			
				<rect x="279.2" y="72.4" transform="matrix(0.3861 -0.9225 0.9225 0.3861 105.3817 318.0814)" class="st28" width="25" height="14.9"/>
			
				<rect x="282.5" y="77.5" transform="matrix(0.3861 -0.9225 0.9225 0.3861 106.1829 322.0229)" class="st28" width="25" height="7.5"/>
			<path class="st29" d="M285,76.1c-0.2,4.1,3.9,8.2,7.6,9.7c1.3,0.5,2.7,0.9,4.1,1l6.5-15.6l-13.8-5.8L285,76.1z"/>
			<path class="st28" d="M320.2,61.2c6-14.4,1.5-25.9-8.2-30s-21.1,0.8-27.1,15.1s-3,29.3,6.8,33.4S314.1,75.6,320.2,61.2z"/>
			<path class="st28" d="M312.2,69.6c-3-1.7-3.8-6-1.7-9.6s6.4-5.2,9.5-3.6s3.8,6,1.7,9.6C319.6,69.6,315.3,71.3,312.2,69.6z"/>
			<path class="st28" d="M280.4,48.8c1.1-4.1,4.6-6.6,8-5.6s5.2,5.1,4.1,9.3s-4.6,6.6-8,5.6S279.4,52.9,280.4,48.8L280.4,48.8z"/>
			<path class="st28" d="M320.2,61.2c6-14.4,1.5-25.9-8.2-30l-20.3,48.6C301.3,83.9,314.1,75.6,320.2,61.2z"/>
			<path class="st27" d="M314.8,27.3c-10.6-4.4-25,3.4-29.8,14.5v0.1l4.4,1.8l6.9-5.9l-5.7,6.4l5,1L299,39l-2.8,6.6l3.6,1.1l4.8-6
				l-2.7,6.7l4.8,1.8l2.5-5.9l-0.7,6.5l5.8,2.3l2.5-4.2l0.8,7.2l5.7,2.7v-0.1C327.9,46.7,325.3,31.8,314.8,27.3L314.8,27.3z"/>
			<path class="st27" d="M288.1,31.7c0,0-0.5-15-11.4-11.8s-5.4,29.3-17.4,22.8c2.5,6.5,9.6,6.5,14.4-3.6s8-4.5,8-4.5"/>
			<path class="st27" d="M330.8,52.1c0,0,6.2-1.7,2.4,8.9s1.2,15.7,7.6,12.8c-13-3.9,9.5-18.3,4.1-28.4s-16.4,0.2-16.4,0.2"/>
			<path class="st19" d="M309.8,34.6c9.1,3.8,14.5,12.3,13.1,19.9c0.5-0.8,1-1.6,1.4-2.5c3.4-8.2-2.1-18.3-12.4-22.6
				s-21.3-1.1-24.8,7c-0.4,0.9-0.6,1.8-0.8,2.7C290.9,32.9,300.6,30.8,309.8,34.6z"/>
			<path class="st30" d="M314.2,107.8c-0.2-2.4-2-5.2-4.5-8.1c-5.3-1.2-13.8-4-23.1-7.9s-17.3-7.9-21.9-10.9
				c-3.8,0.2-7.1,0.9-8.9,2.5c-7.2,9.1-15.1,21.2-15.1,21.2l69,28.9C309.7,133.4,314,118.7,314.2,107.8z"/>
			<polygon class="st31" points="150.7,67.2 164.9,60.9 180.4,95.7 166.1,101.9 			"/>
			
				<rect x="166.9" y="70.4" transform="matrix(0.9135 -0.4069 0.4069 0.9135 -19.18 76.7112)" class="st31" width="7.8" height="26.1"/>
			<path class="st31" d="M169.4,40.8c-6.6-14.9-18.6-19.7-28.7-15.2s-14.5,16.6-7.9,31.5c8.9,20,20.2,23.3,30.3,18.8
				S177.9,60,169.4,40.8z"/>
			<path class="st31" d="M171.2,52.4c-3.5,1.1-7.3-1.5-8.6-5.8s0.5-8.7,4-9.9s7.3,1.5,8.6,5.8S174.6,51.2,171.2,52.4z"/>
			<path class="st31" d="M130.7,61.3c-2.4-3.8-1.7-8.4,1.4-10.2s7.7-0.2,10,3.6s1.7,8.4-1.4,10.2C137.6,66.7,133,65.1,130.7,61.3z"
				/>
			<path class="st31" d="M169.4,40.8c-6.6-14.9-18.6-19.7-28.7-15.2L163,75.9C173.1,71.4,177.9,60,169.4,40.8L169.4,40.8z"/>
			<path class="st32" d="M200.6,78.7c-4.4-3.4-15.9-2.6-24.6-1.2l5.2,39l-25.5-30c-6.9,5.6-15.2,13.6-15.6,19.1
				c1.8,12,5.3,26.8,5.3,26.8l71.5-31.9C216.9,100.6,208.7,86.7,200.6,78.7L200.6,78.7z"/>
			<polygon class="st33" points="155.3,86.7 181.1,116.5 175.9,77.5 170.9,93.6 			"/>
			<path class="st34" d="M178.9,115.5l-20.2-9c-0.3-0.1-0.4-0.4-0.3-0.7c0-0.1,0.1-0.1,0.1-0.2l3.3-3.3c0.2-0.2,0.2-0.6,0-0.8
				l-0.1-0.1l-13.5-7.3c-0.3-0.1-0.4-0.5-0.2-0.7l0.1-0.1c0.7-0.7,1.9-1.9,2.6-2.5c1.4-1.4,2.8-2.6,4.3-3.8c0.2-0.2,0.5-0.1,0.7,0.1
				l23.8,27.6c0.2,0.2,0.2,0.6-0.1,0.7C179.3,115.6,179.1,115.6,178.9,115.5L178.9,115.5z"/>
			<path class="st35" d="M159,101.7l4.5-10.8c0,0,0,0,0.1,0l7,2.5c0.1,0,0.1-0.1,0-0.1l-12.3-8.9h-0.1l-3.8,3c0,0,0,0,0,0.1
				c1.7,4.6,4.1,13,4.4,14.2C158.9,101.7,158.9,101.7,159,101.7C158.9,101.7,159,101.7,159,101.7L159,101.7z"/>
			<path class="st26" d="M169.7,36.6c0,0-4.4-1-2.5,6.9c-2.6-7-7.1-16.2-13.4-15.5c-0.6,6.9-11.1,15.8-20,17.4
				c-3.9,2,0.1,2,2.4,14.2c-2.1-5.1-3.5-8.1-6.2-5.7c-5.6-10.2-5.7-26.1,9.8-33S165.1,22.2,169.7,36.6L169.7,36.6z"/>
			<path class="st34" d="M181.6,114.2l6.8-21.1c0.1-0.3-0.1-0.6-0.3-0.7c-0.1,0-0.1,0-0.2,0l-4.7,0.3c-0.3,0-0.6-0.2-0.6-0.5
				c0-0.1,0-0.1,0-0.2l3.6-14.9c0.1-0.3-0.1-0.6-0.4-0.7c-0.1,0-0.1,0-0.2,0c-1,0.1-2.7,0.1-3.6,0.2c-1.9,0.1-3.8,0.4-5.7,0.7
				c-0.3,0.1-0.5,0.3-0.4,0.6l0,0l4.6,36.2c0,0.3,0.3,0.5,0.6,0.4C181.4,114.6,181.6,114.4,181.6,114.2L181.6,114.2z"/>
			<path class="st35" d="M184.8,90.2l-11-3.8c0,0,0,0-0.1,0l-2.8,6.8c0,0.1-0.1,0-0.1,0l1.6-15.1c0,0,0-0.1,0,0l4.8-0.8
				c0,0,0,0,0.1,0C179.5,81.6,184.1,89,184.8,90.2C184.8,90.1,184.8,90.2,184.8,90.2L184.8,90.2z"/>
			<path class="st36" d="M384.5,170.3l10.4-4.3l-5.4-13.3l-15.2,6.2c0.1,1.4,0.4,2.7,0.9,4C376.6,166.5,380.6,170.5,384.5,170.3
				L384.5,170.3z"/>
			<path class="st21" d="M414,174.6c14.9-5.4,20.4-16.6,16.7-26.7s-15-15.2-29.9-9.9c-20,7.2-24,17.9-20.4,28S394.8,181.5,414,174.6
				z"/>
			<g>
				<ellipse class="st15" cx="227.9" cy="225.3" rx="130.9" ry="130.9"/>
				<path class="st37" d="M227.9,101.5c33.1,0,64.2,12.9,87.6,36.3c23.4,23.4,36.3,54.5,36.3,87.6s-12.9,64.2-36.3,87.6
					c-23.4,23.4-54.5,36.3-87.6,36.3s-64.2-12.9-87.6-36.3S104,258.5,104,225.4s12.9-64.2,36.3-87.6S194.8,101.5,227.9,101.5
					 M227.9,87.3c-76.2,0-138,61.8-138,138s61.8,138,138,138s138-61.8,138-138S304.1,87.3,227.9,87.3L227.9,87.3z"/>
			</g>
			<path class="st22" d="M427.3,159c-6.3-1.8-8.8,11.2-20.9,15.6c7.8,2,29.6-0.7,25.7-15.3C430.5,159.1,428.9,159,427.3,159z"/>
			<path class="st22" d="M394,143.2c0,0,18-7.2,20,5.3c-4.5,1.4,0.2,7.9,0.2,7.9s8.1,7.8,17.8,2.9c2.5-17-10.4-24.9-15.4-26
				S399.2,135.3,394,143.2z"/>
		</g>
	</g>
</g>
</svg>
